<svg width="350" height="140" viewBox="0 0 350 140" fill="none" xmlns="http://www.w3.org/2000/svg">
<path d="M0 5C0 2.23858 2.23858 0 5 0H165C167.761 0 170 2.23858 170 5V45C170 47.7614 167.761 50 165 50H45C42.2386 50 40 52.2386 40 55V95C40 97.7614 37.7614 100 35 100H5C2.23858 100 0 97.7614 0 95V5Z" fill="#54C42C"/>
<path d="M14.918 12.5H18.6982V21.9062H21.1113V23H14.918V21.9062H17.4336V13.6006H14.918V12.5ZM23.3262 15.6035H27.1064V21.9062H29.5195V23H23.3262V21.9062H25.8418V16.7041H23.3262V15.6035ZM25.6777 13.6621C25.6777 13.4525 25.7393 13.277 25.8623 13.1357C25.9899 12.9899 26.1813 12.917 26.4365 12.917C26.6872 12.917 26.8763 12.9899 27.0039 13.1357C27.1315 13.277 27.1953 13.4525 27.1953 13.6621C27.1953 13.8672 27.1315 14.0381 27.0039 14.1748C26.8763 14.3115 26.6872 14.3799 26.4365 14.3799C26.1813 14.3799 25.9899 14.3115 25.8623 14.1748C25.7393 14.0381 25.6777 13.8672 25.6777 13.6621ZM37.8047 19.3838C37.8047 19.9124 37.7409 20.4069 37.6133 20.8672C37.4857 21.3229 37.2988 21.7194 37.0527 22.0566C36.8066 22.3939 36.5013 22.6582 36.1367 22.8496C35.7767 23.041 35.362 23.1367 34.8926 23.1367C34.4186 23.1367 34.0062 23.0524 33.6553 22.8838C33.3089 22.7152 33.0127 22.4736 32.7666 22.1592L32.7051 23H31.543V12.5H32.8076V16.3965C33.0492 16.0957 33.3408 15.8656 33.6826 15.7061C34.0244 15.5465 34.4232 15.4668 34.8789 15.4668C35.3529 15.4668 35.7721 15.5602 36.1367 15.7471C36.5013 15.9339 36.8066 16.1937 37.0527 16.5264C37.2988 16.859 37.4857 17.2578 37.6133 17.7227C37.7409 18.1829 37.8047 18.6888 37.8047 19.2402V19.3838ZM36.54 19.2402C36.54 18.8802 36.5036 18.5384 36.4307 18.2148C36.3623 17.8867 36.2507 17.5996 36.0957 17.3535C35.9408 17.1029 35.738 16.9046 35.4873 16.7588C35.2367 16.613 34.929 16.54 34.5645 16.54C34.3457 16.54 34.1452 16.5697 33.9629 16.6289C33.7806 16.6836 33.6165 16.7633 33.4707 16.8682C33.3294 16.9684 33.2018 17.0892 33.0879 17.2305C32.9785 17.3672 32.8851 17.5176 32.8076 17.6816V20.915C32.8896 21.0791 32.9854 21.2318 33.0947 21.373C33.2087 21.5098 33.3385 21.6305 33.4844 21.7354C33.6302 21.8402 33.7943 21.9222 33.9766 21.9814C34.1589 22.0361 34.3594 22.0635 34.5781 22.0635C34.9245 22.0635 35.2207 21.9928 35.4668 21.8516C35.7174 21.7057 35.9202 21.5098 36.0752 21.2637C36.2347 21.0176 36.3509 20.7327 36.4238 20.4092C36.5013 20.0856 36.54 19.7438 36.54 19.3838V19.2402ZM44.791 15.4668C44.9095 15.4668 45.0326 15.4714 45.1602 15.4805C45.2878 15.485 45.4085 15.4964 45.5225 15.5146C45.641 15.5283 45.748 15.5465 45.8438 15.5693C45.944 15.5921 46.026 15.6172 46.0898 15.6445L45.9189 16.8818C45.6729 16.8271 45.4382 16.7884 45.2148 16.7656C44.9961 16.7383 44.766 16.7246 44.5244 16.7246C43.932 16.7246 43.4512 16.859 43.082 17.1279C42.7174 17.3968 42.4486 17.7728 42.2754 18.2559V23H41.0039V15.6035H42.207L42.2686 16.7793C42.5693 16.3737 42.9294 16.0547 43.3486 15.8223C43.7725 15.5853 44.2533 15.4668 44.791 15.4668ZM53.2129 23C53.1628 22.9043 53.1217 22.7858 53.0898 22.6445C53.0625 22.4987 53.042 22.3483 53.0283 22.1934C52.9007 22.321 52.7572 22.4417 52.5977 22.5557C52.4427 22.6696 52.2695 22.7699 52.0781 22.8564C51.8913 22.943 51.6908 23.0114 51.4766 23.0615C51.2624 23.1117 51.0345 23.1367 50.793 23.1367C50.401 23.1367 50.0456 23.0798 49.7266 22.9658C49.4121 22.8519 49.1432 22.6992 48.9199 22.5078C48.7012 22.3118 48.5303 22.0817 48.4072 21.8174C48.2887 21.5485 48.2295 21.2591 48.2295 20.9492C48.2295 20.5436 48.3092 20.1882 48.4688 19.8828C48.6328 19.5775 48.863 19.3245 49.1592 19.124C49.4554 18.9189 49.8109 18.7663 50.2256 18.666C50.6449 18.5658 51.112 18.5156 51.627 18.5156H53.0078V17.9346C53.0078 17.7113 52.9668 17.5107 52.8848 17.333C52.8027 17.1553 52.6865 17.0049 52.5361 16.8818C52.3857 16.7542 52.2012 16.6562 51.9824 16.5879C51.7682 16.5195 51.5267 16.4854 51.2578 16.4854C51.0072 16.4854 50.7816 16.5173 50.5811 16.5811C50.3851 16.6449 50.2188 16.7292 50.082 16.834C49.9453 16.9388 49.8382 17.0641 49.7607 17.21C49.6878 17.3512 49.6514 17.4993 49.6514 17.6543H48.3799C48.3844 17.3854 48.4528 17.1211 48.585 16.8613C48.7217 16.6016 48.9154 16.3691 49.166 16.1641C49.4212 15.9544 49.7288 15.7858 50.0889 15.6582C50.4535 15.5306 50.8659 15.4668 51.3262 15.4668C51.7454 15.4668 52.1351 15.5192 52.4951 15.624C52.8551 15.7243 53.165 15.8792 53.4248 16.0889C53.6891 16.2939 53.8965 16.5514 54.0469 16.8613C54.1973 17.1712 54.2725 17.5335 54.2725 17.9482V21.3867C54.2725 21.6328 54.2952 21.8949 54.3408 22.1729C54.3864 22.4463 54.4502 22.6855 54.5322 22.8906V23H53.2129ZM50.9775 22.0361C51.2236 22.0361 51.4538 22.0042 51.668 21.9404C51.8822 21.8766 52.0758 21.7923 52.249 21.6875C52.4268 21.5827 52.5794 21.4642 52.707 21.332C52.8346 21.1953 52.9349 21.054 53.0078 20.9082V19.4111H51.832C51.0938 19.4111 50.5195 19.5205 50.1094 19.7393C49.6992 19.958 49.4941 20.3021 49.4941 20.7715C49.4941 20.9538 49.5238 21.1224 49.583 21.2773C49.6468 21.4323 49.7402 21.5667 49.8633 21.6807C49.9863 21.79 50.1413 21.8766 50.3281 21.9404C50.515 22.0042 50.7314 22.0361 50.9775 22.0361ZM61.6074 15.4668C61.7259 15.4668 61.849 15.4714 61.9766 15.4805C62.1042 15.485 62.2249 15.4964 62.3389 15.5146C62.4574 15.5283 62.5645 15.5465 62.6602 15.5693C62.7604 15.5921 62.8424 15.6172 62.9062 15.6445L62.7354 16.8818C62.4893 16.8271 62.2546 16.7884 62.0312 16.7656C61.8125 16.7383 61.5824 16.7246 61.3408 16.7246C60.7484 16.7246 60.2676 16.859 59.8984 17.1279C59.5339 17.3968 59.265 17.7728 59.0918 18.2559V23H57.8203V15.6035H59.0234L59.085 16.7793C59.3857 16.3737 59.7458 16.0547 60.165 15.8223C60.5889 15.5853 61.0697 15.4668 61.6074 15.4668ZM65.3672 15.6035H69.1475V21.9062H71.5605V23H65.3672V21.9062H67.8828V16.7041H65.3672V15.6035ZM67.7188 13.6621C67.7188 13.4525 67.7803 13.277 67.9033 13.1357C68.0309 12.9899 68.2223 12.917 68.4775 12.917C68.7282 12.917 68.9173 12.9899 69.0449 13.1357C69.1725 13.277 69.2363 13.4525 69.2363 13.6621C69.2363 13.8672 69.1725 14.0381 69.0449 14.1748C68.9173 14.3115 68.7282 14.3799 68.4775 14.3799C68.2223 14.3799 68.0309 14.3115 67.9033 14.1748C67.7803 14.0381 67.7188 13.8672 67.7188 13.6621ZM78.4375 23C78.3874 22.9043 78.3464 22.7858 78.3145 22.6445C78.2871 22.4987 78.2666 22.3483 78.2529 22.1934C78.1253 22.321 77.9818 22.4417 77.8223 22.5557C77.6673 22.6696 77.4941 22.7699 77.3027 22.8564C77.1159 22.943 76.9154 23.0114 76.7012 23.0615C76.487 23.1117 76.2591 23.1367 76.0176 23.1367C75.6257 23.1367 75.2702 23.0798 74.9512 22.9658C74.6367 22.8519 74.3678 22.6992 74.1445 22.5078C73.9258 22.3118 73.7549 22.0817 73.6318 21.8174C73.5133 21.5485 73.4541 21.2591 73.4541 20.9492C73.4541 20.5436 73.5339 20.1882 73.6934 19.8828C73.8574 19.5775 74.0876 19.3245 74.3838 19.124C74.68 18.9189 75.0355 18.7663 75.4502 18.666C75.8695 18.5658 76.3366 18.5156 76.8516 18.5156H78.2324V17.9346C78.2324 17.7113 78.1914 17.5107 78.1094 17.333C78.0273 17.1553 77.9111 17.0049 77.7607 16.8818C77.6104 16.7542 77.4258 16.6562 77.207 16.5879C76.9928 16.5195 76.7513 16.4854 76.4824 16.4854C76.2318 16.4854 76.0062 16.5173 75.8057 16.5811C75.6097 16.6449 75.4434 16.7292 75.3066 16.834C75.1699 16.9388 75.0628 17.0641 74.9854 17.21C74.9124 17.3512 74.876 17.4993 74.876 17.6543H73.6045C73.609 17.3854 73.6774 17.1211 73.8096 16.8613C73.9463 16.6016 74.14 16.3691 74.3906 16.1641C74.6458 15.9544 74.9535 15.7858 75.3135 15.6582C75.6781 15.5306 76.0905 15.4668 76.5508 15.4668C76.9701 15.4668 77.3597 15.5192 77.7197 15.624C78.0798 15.7243 78.3896 15.8792 78.6494 16.0889C78.9137 16.2939 79.1211 16.5514 79.2715 16.8613C79.4219 17.1712 79.4971 17.5335 79.4971 17.9482V21.3867C79.4971 21.6328 79.5199 21.8949 79.5654 22.1729C79.611 22.4463 79.6748 22.6855 79.7568 22.8906V23H78.4375ZM76.2021 22.0361C76.4482 22.0361 76.6784 22.0042 76.8926 21.9404C77.1068 21.8766 77.3005 21.7923 77.4736 21.6875C77.6514 21.5827 77.804 21.4642 77.9316 21.332C78.0592 21.1953 78.1595 21.054 78.2324 20.9082V19.4111H77.0566C76.3184 19.4111 75.7441 19.5205 75.334 19.7393C74.9238 19.958 74.7188 20.3021 74.7188 20.7715C74.7188 20.9538 74.7484 21.1224 74.8076 21.2773C74.8714 21.4323 74.9648 21.5667 75.0879 21.6807C75.2109 21.79 75.3659 21.8766 75.5527 21.9404C75.7396 22.0042 75.9561 22.0361 76.2021 22.0361ZM83.1201 15.6035L83.209 16.6973C83.4779 16.3145 83.8083 16.016 84.2002 15.8018C84.5921 15.583 85.0296 15.4714 85.5127 15.4668C85.9001 15.4668 86.251 15.5215 86.5654 15.6309C86.8844 15.7402 87.1556 15.9111 87.3789 16.1436C87.6022 16.376 87.7731 16.6722 87.8916 17.0322C88.0146 17.3877 88.0762 17.8115 88.0762 18.3037V23H86.8115V18.3311C86.8115 18.0029 86.7751 17.7249 86.7021 17.4971C86.6292 17.2692 86.5199 17.0846 86.374 16.9434C86.2327 16.8021 86.0573 16.6995 85.8477 16.6357C85.6426 16.5719 85.4056 16.54 85.1367 16.54C84.7129 16.54 84.3392 16.6471 84.0156 16.8613C83.6966 17.071 83.4414 17.349 83.25 17.6953V23H81.9854V15.6035H83.1201ZM92.0615 23.8545H90.9268L95.083 13.0469H96.2109L92.0615 23.8545ZM103.717 21.0381C103.717 20.8877 103.687 20.7533 103.628 20.6348C103.569 20.5117 103.468 20.4001 103.327 20.2998C103.186 20.1995 102.999 20.1084 102.767 20.0264C102.534 19.9398 102.245 19.8623 101.898 19.7939C101.475 19.7074 101.087 19.6025 100.736 19.4795C100.39 19.3564 100.091 19.2106 99.8408 19.042C99.5947 18.8688 99.4033 18.6683 99.2666 18.4404C99.1299 18.208 99.0615 17.9391 99.0615 17.6338C99.0615 17.333 99.1322 17.0527 99.2734 16.793C99.4147 16.5286 99.613 16.2985 99.8682 16.1025C100.123 15.9066 100.426 15.7516 100.777 15.6377C101.133 15.5238 101.522 15.4668 101.946 15.4668C102.402 15.4668 102.812 15.526 103.177 15.6445C103.541 15.763 103.851 15.9271 104.106 16.1367C104.362 16.3464 104.558 16.5924 104.694 16.875C104.836 17.153 104.906 17.4538 104.906 17.7773H103.642C103.642 17.6178 103.601 17.4629 103.519 17.3125C103.437 17.1576 103.323 17.0208 103.177 16.9023C103.031 16.7839 102.853 16.6882 102.644 16.6152C102.438 16.5423 102.206 16.5059 101.946 16.5059C101.677 16.5059 101.44 16.5355 101.235 16.5947C101.035 16.654 100.866 16.7337 100.729 16.834C100.597 16.9342 100.497 17.0505 100.429 17.1826C100.36 17.3148 100.326 17.4515 100.326 17.5928C100.326 17.7386 100.354 17.8685 100.408 17.9824C100.463 18.0964 100.556 18.1989 100.688 18.29C100.825 18.3812 101.005 18.4632 101.229 18.5361C101.456 18.609 101.743 18.6797 102.09 18.748C102.546 18.8438 102.953 18.9554 103.313 19.083C103.674 19.2061 103.977 19.3564 104.223 19.5342C104.469 19.7074 104.656 19.9102 104.783 20.1426C104.915 20.375 104.981 20.6439 104.981 20.9492C104.981 21.2773 104.906 21.5758 104.756 21.8447C104.61 22.1136 104.405 22.3438 104.141 22.5352C103.876 22.7266 103.56 22.8747 103.19 22.9795C102.821 23.0843 102.418 23.1367 101.98 23.1367C101.479 23.1367 101.033 23.0706 100.641 22.9385C100.249 22.8018 99.916 22.624 99.6426 22.4053C99.3737 22.182 99.1663 21.9245 99.0205 21.6328C98.8792 21.3411 98.8086 21.0381 98.8086 20.7236H100.073C100.091 20.9834 100.16 21.2021 100.278 21.3799C100.401 21.5576 100.552 21.7012 100.729 21.8105C100.912 21.9199 101.112 21.9974 101.331 22.043C101.55 22.0885 101.766 22.1113 101.98 22.1113C102.514 22.1113 102.935 22.0133 103.245 21.8174C103.555 21.6214 103.712 21.3617 103.717 21.0381ZM110.361 22.1113C110.589 22.1113 110.81 22.0749 111.024 22.002C111.243 21.929 111.437 21.8288 111.605 21.7012C111.774 21.569 111.909 21.4163 112.009 21.2432C112.114 21.0654 112.168 20.874 112.173 20.6689H113.369C113.365 20.9971 113.278 21.3115 113.109 21.6123C112.945 21.9085 112.724 22.1706 112.446 22.3984C112.168 22.6217 111.849 22.8018 111.489 22.9385C111.129 23.0706 110.753 23.1367 110.361 23.1367C109.801 23.1367 109.311 23.0365 108.892 22.8359C108.472 22.6354 108.121 22.3665 107.839 22.0293C107.561 21.6875 107.351 21.2956 107.21 20.8535C107.069 20.4069 106.998 19.9375 106.998 19.4453V19.1582C106.998 18.6706 107.069 18.2035 107.21 17.7568C107.351 17.3102 107.561 16.9183 107.839 16.5811C108.121 16.2393 108.472 15.9681 108.892 15.7676C109.311 15.5671 109.801 15.4668 110.361 15.4668C110.799 15.4668 111.2 15.5374 111.564 15.6787C111.934 15.8154 112.25 16.0046 112.515 16.2461C112.784 16.4831 112.993 16.7656 113.144 17.0938C113.294 17.4219 113.369 17.7728 113.369 18.1465H112.173C112.168 17.9232 112.118 17.7135 112.022 17.5176C111.931 17.3171 111.806 17.1416 111.646 16.9912C111.487 16.8408 111.296 16.7223 111.072 16.6357C110.854 16.5492 110.617 16.5059 110.361 16.5059C109.969 16.5059 109.639 16.5856 109.37 16.7451C109.106 16.9001 108.892 17.1051 108.728 17.3604C108.563 17.611 108.445 17.8936 108.372 18.208C108.304 18.5225 108.27 18.8392 108.27 19.1582V19.4453C108.27 19.7689 108.304 20.0902 108.372 20.4092C108.445 20.7236 108.561 21.0085 108.721 21.2637C108.885 21.5143 109.099 21.7194 109.363 21.8789C109.632 22.0339 109.965 22.1113 110.361 22.1113ZM120.465 15.4668C120.583 15.4668 120.706 15.4714 120.834 15.4805C120.962 15.485 121.082 15.4964 121.196 15.5146C121.315 15.5283 121.422 15.5465 121.518 15.5693C121.618 15.5921 121.7 15.6172 121.764 15.6445L121.593 16.8818C121.347 16.8271 121.112 16.7884 120.889 16.7656C120.67 16.7383 120.44 16.7246 120.198 16.7246C119.606 16.7246 119.125 16.859 118.756 17.1279C118.391 17.3968 118.122 17.7728 117.949 18.2559V23H116.678V15.6035H117.881L117.942 16.7793C118.243 16.3737 118.603 16.0547 119.022 15.8223C119.446 15.5853 119.927 15.4668 120.465 15.4668ZM128.887 23C128.837 22.9043 128.796 22.7858 128.764 22.6445C128.736 22.4987 128.716 22.3483 128.702 22.1934C128.575 22.321 128.431 22.4417 128.271 22.5557C128.117 22.6696 127.943 22.7699 127.752 22.8564C127.565 22.943 127.365 23.0114 127.15 23.0615C126.936 23.1117 126.708 23.1367 126.467 23.1367C126.075 23.1367 125.719 23.0798 125.4 22.9658C125.086 22.8519 124.817 22.6992 124.594 22.5078C124.375 22.3118 124.204 22.0817 124.081 21.8174C123.963 21.5485 123.903 21.2591 123.903 20.9492C123.903 20.5436 123.983 20.1882 124.143 19.8828C124.307 19.5775 124.537 19.3245 124.833 19.124C125.129 18.9189 125.485 18.7663 125.899 18.666C126.319 18.5658 126.786 18.5156 127.301 18.5156H128.682V17.9346C128.682 17.7113 128.641 17.5107 128.559 17.333C128.477 17.1553 128.36 17.0049 128.21 16.8818C128.06 16.7542 127.875 16.6562 127.656 16.5879C127.442 16.5195 127.201 16.4854 126.932 16.4854C126.681 16.4854 126.455 16.5173 126.255 16.5811C126.059 16.6449 125.893 16.7292 125.756 16.834C125.619 16.9388 125.512 17.0641 125.435 17.21C125.362 17.3512 125.325 17.4993 125.325 17.6543H124.054C124.058 17.3854 124.127 17.1211 124.259 16.8613C124.396 16.6016 124.589 16.3691 124.84 16.1641C125.095 15.9544 125.403 15.7858 125.763 15.6582C126.127 15.5306 126.54 15.4668 127 15.4668C127.419 15.4668 127.809 15.5192 128.169 15.624C128.529 15.7243 128.839 15.8792 129.099 16.0889C129.363 16.2939 129.57 16.5514 129.721 16.8613C129.871 17.1712 129.946 17.5335 129.946 17.9482V21.3867C129.946 21.6328 129.969 21.8949 130.015 22.1729C130.06 22.4463 130.124 22.6855 130.206 22.8906V23H128.887ZM126.651 22.0361C126.897 22.0361 127.128 22.0042 127.342 21.9404C127.556 21.8766 127.75 21.7923 127.923 21.6875C128.101 21.5827 128.253 21.4642 128.381 21.332C128.508 21.1953 128.609 21.054 128.682 20.9082V19.4111H127.506C126.768 19.4111 126.193 19.5205 125.783 19.7393C125.373 19.958 125.168 20.3021 125.168 20.7715C125.168 20.9538 125.198 21.1224 125.257 21.2773C125.321 21.4323 125.414 21.5667 125.537 21.6807C125.66 21.79 125.815 21.8766 126.002 21.9404C126.189 22.0042 126.405 22.0361 126.651 22.0361ZM138.676 19.3838C138.676 19.9124 138.612 20.4069 138.484 20.8672C138.357 21.3229 138.17 21.7194 137.924 22.0566C137.678 22.3939 137.372 22.6582 137.008 22.8496C136.648 23.041 136.235 23.1367 135.771 23.1367C135.319 23.1367 134.921 23.0638 134.574 22.918C134.232 22.7721 133.938 22.5625 133.692 22.2891V25.8438H132.428V15.6035H133.583L133.645 16.4102C133.891 16.1048 134.187 15.8724 134.533 15.7129C134.884 15.5488 135.29 15.4668 135.75 15.4668C136.224 15.4668 136.643 15.5602 137.008 15.7471C137.372 15.9339 137.678 16.1937 137.924 16.5264C138.17 16.859 138.357 17.2578 138.484 17.7227C138.612 18.1829 138.676 18.6888 138.676 19.2402V19.3838ZM137.411 19.2402C137.411 18.8802 137.37 18.5384 137.288 18.2148C137.211 17.8867 137.088 17.5996 136.919 17.3535C136.755 17.1029 136.545 16.9046 136.29 16.7588C136.035 16.613 135.729 16.54 135.374 16.54C134.968 16.54 134.627 16.6357 134.349 16.8271C134.075 17.014 133.856 17.2555 133.692 17.5518V21.1133C133.856 21.4049 134.075 21.6442 134.349 21.8311C134.622 22.0133 134.968 22.1045 135.388 22.1045C135.739 22.1045 136.042 22.0316 136.297 21.8857C136.552 21.7354 136.762 21.5348 136.926 21.2842C137.09 21.0335 137.211 20.7441 137.288 20.416C137.37 20.0879 137.411 19.7438 137.411 19.3838V19.2402ZM144.11 23.1367C143.591 23.1367 143.112 23.0479 142.675 22.8701C142.242 22.6924 141.87 22.444 141.561 22.125C141.251 21.806 141.009 21.4277 140.836 20.9902C140.663 20.5527 140.576 20.0765 140.576 19.5615V19.2744C140.576 18.6774 140.672 18.1442 140.863 17.6748C141.055 17.2008 141.308 16.8021 141.622 16.4785C141.941 16.1504 142.301 15.8997 142.702 15.7266C143.108 15.5534 143.522 15.4668 143.946 15.4668C144.479 15.4668 144.944 15.5602 145.341 15.7471C145.742 15.9294 146.075 16.1846 146.339 16.5127C146.603 16.8363 146.799 17.2191 146.927 17.6611C147.059 18.1032 147.125 18.5817 147.125 19.0967V19.6641H141.841C141.854 20.0013 141.918 20.318 142.032 20.6143C142.151 20.9105 142.31 21.1702 142.511 21.3936C142.716 21.6123 142.96 21.7855 143.242 21.9131C143.525 22.0407 143.837 22.1045 144.179 22.1045C144.63 22.1045 145.031 22.0133 145.382 21.8311C145.733 21.6488 146.024 21.4072 146.257 21.1064L147.029 21.708C146.906 21.8949 146.751 22.0749 146.564 22.248C146.382 22.4167 146.17 22.5671 145.929 22.6992C145.687 22.8314 145.414 22.9362 145.108 23.0137C144.803 23.0957 144.47 23.1367 144.11 23.1367ZM143.946 16.5059C143.691 16.5059 143.45 16.5537 143.222 16.6494C142.994 16.7406 142.789 16.8773 142.606 17.0596C142.424 17.2373 142.269 17.4583 142.142 17.7227C142.019 17.9824 141.932 18.2832 141.882 18.625H145.86V18.5293C145.847 18.2832 145.799 18.0394 145.717 17.7979C145.639 17.5563 145.523 17.3398 145.368 17.1484C145.213 16.957 145.017 16.8021 144.78 16.6836C144.548 16.5651 144.27 16.5059 143.946 16.5059ZM154.098 15.4668C154.216 15.4668 154.339 15.4714 154.467 15.4805C154.594 15.485 154.715 15.4964 154.829 15.5146C154.948 15.5283 155.055 15.5465 155.15 15.5693C155.251 15.5921 155.333 15.6172 155.396 15.6445L155.226 16.8818C154.979 16.8271 154.745 16.7884 154.521 16.7656C154.303 16.7383 154.073 16.7246 153.831 16.7246C153.239 16.7246 152.758 16.859 152.389 17.1279C152.024 17.3968 151.755 17.7728 151.582 18.2559V23H150.311V15.6035H151.514L151.575 16.7793C151.876 16.3737 152.236 16.0547 152.655 15.8223C153.079 15.5853 153.56 15.4668 154.098 15.4668ZM51.3125 37V29.1797H53.8691C54.7178 29.1797 55.3551 29.3551 55.7812 29.7061C56.2109 30.057 56.4258 30.5762 56.4258 31.2637C56.4258 31.6289 56.3219 31.953 56.1143 32.2358C55.9066 32.5151 55.6237 32.7318 55.2656 32.8857C55.6882 33.0039 56.0212 33.2295 56.2646 33.5625C56.5117 33.8919 56.6353 34.2858 56.6353 34.7441C56.6353 35.446 56.4079 35.9974 55.9531 36.3984C55.4984 36.7995 54.8556 37 54.0249 37H51.3125ZM52.3438 33.3423V36.1567H54.0464C54.5262 36.1567 54.904 36.0332 55.1797 35.7861C55.459 35.5355 55.5986 35.1917 55.5986 34.7549C55.5986 33.8132 55.0866 33.3423 54.0625 33.3423H52.3438ZM52.3438 32.5151H53.9014C54.3525 32.5151 54.7124 32.4023 54.981 32.1768C55.2531 31.9512 55.3892 31.645 55.3892 31.2583C55.3892 30.8286 55.2638 30.5171 55.0132 30.3237C54.7625 30.1268 54.3812 30.0283 53.8691 30.0283H52.3438V32.5151ZM61.5981 36.4253C61.2114 36.88 60.6439 37.1074 59.8955 37.1074C59.276 37.1074 58.8034 36.9284 58.4775 36.5703C58.1553 36.2087 57.9924 35.6751 57.9888 34.9697V31.1885H58.9824V34.9429C58.9824 35.8237 59.3405 36.2642 60.0566 36.2642C60.8158 36.2642 61.3206 35.9813 61.5713 35.4155V31.1885H62.5649V37H61.6196L61.5981 36.4253ZM65.1592 37H64.1655V31.1885H65.1592V37ZM64.085 29.647C64.085 29.4858 64.1333 29.3498 64.23 29.2388C64.3302 29.1278 64.4771 29.0723 64.6704 29.0723C64.8638 29.0723 65.0106 29.1278 65.1108 29.2388C65.2111 29.3498 65.2612 29.4858 65.2612 29.647C65.2612 29.8081 65.2111 29.9424 65.1108 30.0498C65.0106 30.1572 64.8638 30.2109 64.6704 30.2109C64.4771 30.2109 64.3302 30.1572 64.23 30.0498C64.1333 29.9424 64.085 29.8081 64.085 29.647ZM67.834 37H66.8403V28.75H67.834V37ZM69.1875 34.0459C69.1875 33.1543 69.3988 32.4382 69.8213 31.8975C70.2438 31.3532 70.797 31.0811 71.481 31.0811C72.1613 31.0811 72.7002 31.3138 73.0977 31.7793V28.75H74.0913V37H73.1782L73.1299 36.377C72.7324 36.8639 72.1792 37.1074 71.4702 37.1074C70.797 37.1074 70.2474 36.8317 69.8213 36.2803C69.3988 35.7288 69.1875 35.0091 69.1875 34.1211V34.0459ZM70.1812 34.1587C70.1812 34.8175 70.3172 35.3332 70.5894 35.7056C70.8615 36.078 71.2375 36.2642 71.7173 36.2642C72.3475 36.2642 72.8076 35.9813 73.0977 35.4155V32.7461C72.8005 32.1982 72.3439 31.9243 71.728 31.9243C71.241 31.9243 70.8615 32.1123 70.5894 32.4883C70.3172 32.8643 70.1812 33.4211 70.1812 34.1587ZM79.022 35.4585C79.022 35.1899 78.9199 34.9823 78.7158 34.8354C78.5153 34.6851 78.1626 34.5562 77.6577 34.4487C77.1564 34.3413 76.7572 34.2124 76.46 34.062C76.1663 33.9116 75.9479 33.7326 75.8047 33.5249C75.665 33.3172 75.5952 33.0701 75.5952 32.7837C75.5952 32.3075 75.7957 31.9046 76.1968 31.5752C76.6014 31.2458 77.117 31.0811 77.7437 31.0811C78.4025 31.0811 78.936 31.2511 79.3442 31.5913C79.756 31.9315 79.9619 32.3665 79.9619 32.8965H78.9629C78.9629 32.6243 78.8465 32.3898 78.6138 32.1929C78.3846 31.9959 78.0946 31.8975 77.7437 31.8975C77.382 31.8975 77.0991 31.9762 76.895 32.1338C76.6909 32.2913 76.5889 32.4972 76.5889 32.7515C76.5889 32.9914 76.6838 33.1722 76.8735 33.2939C77.0633 33.4157 77.4053 33.5321 77.8994 33.6431C78.3971 33.7541 78.8 33.8866 79.1079 34.0405C79.4159 34.1945 79.6432 34.3807 79.79 34.5991C79.9404 34.814 80.0156 35.0771 80.0156 35.3887C80.0156 35.9079 79.8079 36.325 79.3926 36.6401C78.9772 36.9517 78.4383 37.1074 77.7759 37.1074C77.3104 37.1074 76.8986 37.0251 76.5405 36.8604C76.1825 36.6956 75.9014 36.4665 75.6973 36.1729C75.4967 35.8757 75.3965 35.5552 75.3965 35.2114H76.3901C76.408 35.5444 76.5405 35.8094 76.7876 36.0063C77.0382 36.1997 77.3677 36.2964 77.7759 36.2964C78.1519 36.2964 78.4526 36.2212 78.6782 36.0708C78.9074 35.9168 79.022 35.7127 79.022 35.4585ZM84.9731 31.1885L85 31.833C85.4261 31.3317 86.0008 31.0811 86.7241 31.0811C87.5369 31.0811 88.0902 31.3926 88.3838 32.0156C88.5771 31.7363 88.8278 31.5107 89.1357 31.3389C89.4473 31.167 89.8143 31.0811 90.2368 31.0811C91.5116 31.0811 92.1597 31.756 92.1812 33.106V37H91.1875V33.165C91.1875 32.7497 91.0926 32.4399 90.9028 32.2358C90.7131 32.0282 90.3944 31.9243 89.9468 31.9243C89.578 31.9243 89.2718 32.0353 89.0283 32.2573C88.7848 32.4757 88.6434 32.7712 88.604 33.1436V37H87.605V33.1919C87.605 32.3468 87.1914 31.9243 86.3643 31.9243C85.7126 31.9243 85.2668 32.2018 85.0269 32.7568V37H84.0332V31.1885H84.9731ZM93.4219 34.0405C93.4219 33.4712 93.5329 32.9591 93.7549 32.5044C93.9805 32.0496 94.292 31.6987 94.6895 31.4517C95.0905 31.2046 95.547 31.0811 96.0591 31.0811C96.8504 31.0811 97.4896 31.355 97.9766 31.9028C98.4671 32.4507 98.7124 33.1794 98.7124 34.0889V34.1587C98.7124 34.7244 98.6032 35.2329 98.3848 35.6841C98.1699 36.1317 97.8602 36.4808 97.4556 36.7314C97.0545 36.9821 96.5926 37.1074 96.0698 37.1074C95.2821 37.1074 94.6429 36.8335 94.1523 36.2856C93.6654 35.7378 93.4219 35.0127 93.4219 34.1104V34.0405ZM94.4209 34.1587C94.4209 34.8032 94.5695 35.3206 94.8667 35.7109C95.1675 36.1012 95.5685 36.2964 96.0698 36.2964C96.5747 36.2964 96.9757 36.0994 97.2729 35.7056C97.5701 35.3081 97.7188 34.7531 97.7188 34.0405C97.7188 33.4032 97.5666 32.8875 97.2622 32.4937C96.9614 32.0962 96.5604 31.8975 96.0591 31.8975C95.5685 31.8975 95.1729 32.0926 94.8721 32.4829C94.5713 32.8732 94.4209 33.4318 94.4209 34.1587ZM99.7168 34.0459C99.7168 33.1543 99.9281 32.4382 100.351 31.8975C100.773 31.3532 101.326 31.0811 102.01 31.0811C102.691 31.0811 103.229 31.3138 103.627 31.7793V28.75H104.621V37H103.708L103.659 36.377C103.262 36.8639 102.708 37.1074 102 37.1074C101.326 37.1074 100.777 36.8317 100.351 36.2803C99.9281 35.7288 99.7168 35.0091 99.7168 34.1211V34.0459ZM100.71 34.1587C100.71 34.8175 100.847 35.3332 101.119 35.7056C101.391 36.078 101.767 36.2642 102.247 36.2642C102.877 36.2642 103.337 35.9813 103.627 35.4155V32.7461C103.33 32.1982 102.873 31.9243 102.257 31.9243C101.77 31.9243 101.391 32.1123 101.119 32.4883C100.847 32.8643 100.71 33.4211 100.71 34.1587ZM108.579 37.1074C107.791 37.1074 107.15 36.8496 106.656 36.334C106.162 35.8148 105.915 35.1219 105.915 34.2554V34.0728C105.915 33.4963 106.024 32.9824 106.243 32.5312C106.465 32.0765 106.773 31.722 107.167 31.4678C107.564 31.21 107.994 31.0811 108.456 31.0811C109.211 31.0811 109.798 31.3299 110.217 31.8276C110.636 32.3254 110.846 33.0379 110.846 33.9653V34.3789H106.909C106.923 34.9518 107.09 35.4155 107.408 35.77C107.73 36.1209 108.139 36.2964 108.633 36.2964C108.984 36.2964 109.281 36.2248 109.524 36.0815C109.768 35.9383 109.981 35.7485 110.164 35.5122L110.771 35.9849C110.284 36.7332 109.553 37.1074 108.579 37.1074ZM108.456 31.8975C108.055 31.8975 107.718 32.0443 107.446 32.3379C107.174 32.6279 107.005 33.0361 106.941 33.5625H109.852V33.4873C109.823 32.9824 109.687 32.5921 109.444 32.3164C109.2 32.0371 108.871 31.8975 108.456 31.8975ZM113.08 37H112.086V28.75H113.08V37ZM118.059 35.4585C118.059 35.1899 117.957 34.9823 117.753 34.8354C117.552 34.6851 117.2 34.5562 116.695 34.4487C116.194 34.3413 115.794 34.2124 115.497 34.062C115.203 33.9116 114.985 33.7326 114.842 33.5249C114.702 33.3172 114.632 33.0701 114.632 32.7837C114.632 32.3075 114.833 31.9046 115.234 31.5752C115.639 31.2458 116.154 31.0811 116.781 31.0811C117.44 31.0811 117.973 31.2511 118.381 31.5913C118.793 31.9315 118.999 32.3665 118.999 32.8965H118C118 32.6243 117.884 32.3898 117.651 32.1929C117.422 31.9959 117.132 31.8975 116.781 31.8975C116.419 31.8975 116.136 31.9762 115.932 32.1338C115.728 32.2913 115.626 32.4972 115.626 32.7515C115.626 32.9914 115.721 33.1722 115.911 33.2939C116.1 33.4157 116.442 33.5321 116.937 33.6431C117.434 33.7541 117.837 33.8866 118.145 34.0405C118.453 34.1945 118.68 34.3807 118.827 34.5991C118.978 34.814 119.053 35.0771 119.053 35.3887C119.053 35.9079 118.845 36.325 118.43 36.6401C118.014 36.9517 117.475 37.1074 116.813 37.1074C116.347 37.1074 115.936 37.0251 115.578 36.8604C115.22 36.6956 114.938 36.4665 114.734 36.1729C114.534 35.8757 114.434 35.5552 114.434 35.2114H115.427C115.445 35.5444 115.578 35.8094 115.825 36.0063C116.075 36.1997 116.405 36.2964 116.813 36.2964C117.189 36.2964 117.49 36.2212 117.715 36.0708C117.944 35.9168 118.059 35.7127 118.059 35.4585Z" fill="white"/>
<rect x="50" y="60" width="250" height="40" rx="5" fill="#2CB2C4"/>
<path d="M113.326 74.5H117.106V83.9062H119.52V85H113.326V83.9062H115.842V75.6006H113.326V74.5ZM121.734 77.6035H125.515V83.9062H127.928V85H121.734V83.9062H124.25V78.7041H121.734V77.6035ZM124.086 75.6621C124.086 75.4525 124.147 75.277 124.271 75.1357C124.398 74.9899 124.59 74.917 124.845 74.917C125.095 74.917 125.285 74.9899 125.412 75.1357C125.54 75.277 125.604 75.4525 125.604 75.6621C125.604 75.8672 125.54 76.0381 125.412 76.1748C125.285 76.3115 125.095 76.3799 124.845 76.3799C124.59 76.3799 124.398 76.3115 124.271 76.1748C124.147 76.0381 124.086 75.8672 124.086 75.6621ZM136.213 81.3838C136.213 81.9124 136.149 82.4069 136.021 82.8672C135.894 83.3229 135.707 83.7194 135.461 84.0566C135.215 84.3939 134.91 84.6582 134.545 84.8496C134.185 85.041 133.77 85.1367 133.301 85.1367C132.827 85.1367 132.414 85.0524 132.063 84.8838C131.717 84.7152 131.421 84.4736 131.175 84.1592L131.113 85H129.951V74.5H131.216V78.3965C131.457 78.0957 131.749 77.8656 132.091 77.7061C132.433 77.5465 132.831 77.4668 133.287 77.4668C133.761 77.4668 134.18 77.5602 134.545 77.7471C134.91 77.9339 135.215 78.1937 135.461 78.5264C135.707 78.859 135.894 79.2578 136.021 79.7227C136.149 80.1829 136.213 80.6888 136.213 81.2402V81.3838ZM134.948 81.2402C134.948 80.8802 134.912 80.5384 134.839 80.2148C134.771 79.8867 134.659 79.5996 134.504 79.3535C134.349 79.1029 134.146 78.9046 133.896 78.7588C133.645 78.613 133.337 78.54 132.973 78.54C132.754 78.54 132.553 78.5697 132.371 78.6289C132.189 78.6836 132.025 78.7633 131.879 78.8682C131.738 78.9684 131.61 79.0892 131.496 79.2305C131.387 79.3672 131.293 79.5176 131.216 79.6816V82.915C131.298 83.0791 131.394 83.2318 131.503 83.373C131.617 83.5098 131.747 83.6305 131.893 83.7354C132.038 83.8402 132.202 83.9222 132.385 83.9814C132.567 84.0361 132.768 84.0635 132.986 84.0635C133.333 84.0635 133.629 83.9928 133.875 83.8516C134.126 83.7057 134.328 83.5098 134.483 83.2637C134.643 83.0176 134.759 82.7327 134.832 82.4092C134.91 82.0856 134.948 81.7438 134.948 81.3838V81.2402ZM143.199 77.4668C143.318 77.4668 143.441 77.4714 143.568 77.4805C143.696 77.485 143.817 77.4964 143.931 77.5146C144.049 77.5283 144.156 77.5465 144.252 77.5693C144.352 77.5921 144.434 77.6172 144.498 77.6445L144.327 78.8818C144.081 78.8271 143.846 78.7884 143.623 78.7656C143.404 78.7383 143.174 78.7246 142.933 78.7246C142.34 78.7246 141.859 78.859 141.49 79.1279C141.126 79.3968 140.857 79.7728 140.684 80.2559V85H139.412V77.6035H140.615L140.677 78.7793C140.978 78.3737 141.338 78.0547 141.757 77.8223C142.181 77.5853 142.661 77.4668 143.199 77.4668ZM151.621 85C151.571 84.9043 151.53 84.7858 151.498 84.6445C151.471 84.4987 151.45 84.3483 151.437 84.1934C151.309 84.321 151.165 84.4417 151.006 84.5557C150.851 84.6696 150.678 84.7699 150.486 84.8564C150.299 84.943 150.099 85.0114 149.885 85.0615C149.671 85.1117 149.443 85.1367 149.201 85.1367C148.809 85.1367 148.454 85.0798 148.135 84.9658C147.82 84.8519 147.551 84.6992 147.328 84.5078C147.109 84.3118 146.938 84.0817 146.815 83.8174C146.697 83.5485 146.638 83.2591 146.638 82.9492C146.638 82.5436 146.717 82.1882 146.877 81.8828C147.041 81.5775 147.271 81.3245 147.567 81.124C147.864 80.9189 148.219 80.7663 148.634 80.666C149.053 80.5658 149.52 80.5156 150.035 80.5156H151.416V79.9346C151.416 79.7113 151.375 79.5107 151.293 79.333C151.211 79.1553 151.095 79.0049 150.944 78.8818C150.794 78.7542 150.609 78.6562 150.391 78.5879C150.176 78.5195 149.935 78.4854 149.666 78.4854C149.415 78.4854 149.19 78.5173 148.989 78.5811C148.793 78.6449 148.627 78.7292 148.49 78.834C148.354 78.9388 148.246 79.0641 148.169 79.21C148.096 79.3512 148.06 79.4993 148.06 79.6543H146.788C146.793 79.3854 146.861 79.1211 146.993 78.8613C147.13 78.6016 147.324 78.3691 147.574 78.1641C147.829 77.9544 148.137 77.7858 148.497 77.6582C148.862 77.5306 149.274 77.4668 149.734 77.4668C150.154 77.4668 150.543 77.5192 150.903 77.624C151.263 77.7243 151.573 77.8792 151.833 78.0889C152.097 78.2939 152.305 78.5514 152.455 78.8613C152.605 79.1712 152.681 79.5335 152.681 79.9482V83.3867C152.681 83.6328 152.703 83.8949 152.749 84.1729C152.795 84.4463 152.858 84.6855 152.94 84.8906V85H151.621ZM149.386 84.0361C149.632 84.0361 149.862 84.0042 150.076 83.9404C150.29 83.8766 150.484 83.7923 150.657 83.6875C150.835 83.5827 150.988 83.4642 151.115 83.332C151.243 83.1953 151.343 83.054 151.416 82.9082V81.4111H150.24C149.502 81.4111 148.928 81.5205 148.518 81.7393C148.107 81.958 147.902 82.3021 147.902 82.7715C147.902 82.9538 147.932 83.1224 147.991 83.2773C148.055 83.4323 148.148 83.5667 148.271 83.6807C148.395 83.79 148.549 83.8766 148.736 83.9404C148.923 84.0042 149.14 84.0361 149.386 84.0361ZM160.016 77.4668C160.134 77.4668 160.257 77.4714 160.385 77.4805C160.512 77.485 160.633 77.4964 160.747 77.5146C160.866 77.5283 160.973 77.5465 161.068 77.5693C161.169 77.5921 161.251 77.6172 161.314 77.6445L161.144 78.8818C160.897 78.8271 160.663 78.7884 160.439 78.7656C160.221 78.7383 159.991 78.7246 159.749 78.7246C159.157 78.7246 158.676 78.859 158.307 79.1279C157.942 79.3968 157.673 79.7728 157.5 80.2559V85H156.229V77.6035H157.432L157.493 78.7793C157.794 78.3737 158.154 78.0547 158.573 77.8223C158.997 77.5853 159.478 77.4668 160.016 77.4668ZM163.775 77.6035H167.556V83.9062H169.969V85H163.775V83.9062H166.291V78.7041H163.775V77.6035ZM166.127 75.6621C166.127 75.4525 166.188 75.277 166.312 75.1357C166.439 74.9899 166.631 74.917 166.886 74.917C167.136 74.917 167.326 74.9899 167.453 75.1357C167.581 75.277 167.645 75.4525 167.645 75.6621C167.645 75.8672 167.581 76.0381 167.453 76.1748C167.326 76.3115 167.136 76.3799 166.886 76.3799C166.631 76.3799 166.439 76.3115 166.312 76.1748C166.188 76.0381 166.127 75.8672 166.127 75.6621ZM176.846 85C176.796 84.9043 176.755 84.7858 176.723 84.6445C176.695 84.4987 176.675 84.3483 176.661 84.1934C176.534 84.321 176.39 84.4417 176.23 84.5557C176.076 84.6696 175.902 84.7699 175.711 84.8564C175.524 84.943 175.324 85.0114 175.109 85.0615C174.895 85.1117 174.667 85.1367 174.426 85.1367C174.034 85.1367 173.678 85.0798 173.359 84.9658C173.045 84.8519 172.776 84.6992 172.553 84.5078C172.334 84.3118 172.163 84.0817 172.04 83.8174C171.922 83.5485 171.862 83.2591 171.862 82.9492C171.862 82.5436 171.942 82.1882 172.102 81.8828C172.266 81.5775 172.496 81.3245 172.792 81.124C173.088 80.9189 173.444 80.7663 173.858 80.666C174.278 80.5658 174.745 80.5156 175.26 80.5156H176.641V79.9346C176.641 79.7113 176.6 79.5107 176.518 79.333C176.436 79.1553 176.319 79.0049 176.169 78.8818C176.019 78.7542 175.834 78.6562 175.615 78.5879C175.401 78.5195 175.16 78.4854 174.891 78.4854C174.64 78.4854 174.414 78.5173 174.214 78.5811C174.018 78.6449 173.852 78.7292 173.715 78.834C173.578 78.9388 173.471 79.0641 173.394 79.21C173.321 79.3512 173.284 79.4993 173.284 79.6543H172.013C172.017 79.3854 172.086 79.1211 172.218 78.8613C172.354 78.6016 172.548 78.3691 172.799 78.1641C173.054 77.9544 173.362 77.7858 173.722 77.6582C174.086 77.5306 174.499 77.4668 174.959 77.4668C175.378 77.4668 175.768 77.5192 176.128 77.624C176.488 77.7243 176.798 77.8792 177.058 78.0889C177.322 78.2939 177.529 78.5514 177.68 78.8613C177.83 79.1712 177.905 79.5335 177.905 79.9482V83.3867C177.905 83.6328 177.928 83.8949 177.974 84.1729C178.019 84.4463 178.083 84.6855 178.165 84.8906V85H176.846ZM174.61 84.0361C174.856 84.0361 175.087 84.0042 175.301 83.9404C175.515 83.8766 175.709 83.7923 175.882 83.6875C176.06 83.5827 176.212 83.4642 176.34 83.332C176.467 83.1953 176.568 83.054 176.641 82.9082V81.4111H175.465C174.727 81.4111 174.152 81.5205 173.742 81.7393C173.332 81.958 173.127 82.3021 173.127 82.7715C173.127 82.9538 173.157 83.1224 173.216 83.2773C173.28 83.4323 173.373 83.5667 173.496 83.6807C173.619 83.79 173.774 83.8766 173.961 83.9404C174.148 84.0042 174.364 84.0361 174.61 84.0361ZM181.528 77.6035L181.617 78.6973C181.886 78.3145 182.216 78.016 182.608 77.8018C183 77.583 183.438 77.4714 183.921 77.4668C184.308 77.4668 184.659 77.5215 184.974 77.6309C185.293 77.7402 185.564 77.9111 185.787 78.1436C186.01 78.376 186.181 78.6722 186.3 79.0322C186.423 79.3877 186.484 79.8115 186.484 80.3037V85H185.22V80.3311C185.22 80.0029 185.183 79.7249 185.11 79.4971C185.037 79.2692 184.928 79.0846 184.782 78.9434C184.641 78.8021 184.465 78.6995 184.256 78.6357C184.051 78.5719 183.814 78.54 183.545 78.54C183.121 78.54 182.747 78.6471 182.424 78.8613C182.105 79.071 181.85 79.349 181.658 79.6953V85H180.394V77.6035H181.528ZM190.47 85.8545H189.335L193.491 75.0469H194.619L190.47 85.8545ZM197.791 77.6035L197.825 78.3008C197.976 78.041 198.172 77.8382 198.413 77.6924C198.659 77.5465 198.955 77.4714 199.302 77.4668C199.981 77.4668 200.434 77.7311 200.662 78.2598C200.808 78.0228 200.999 77.8337 201.236 77.6924C201.478 77.5465 201.77 77.4714 202.111 77.4668C202.654 77.4668 203.071 77.6331 203.362 77.9658C203.654 78.2985 203.8 78.8021 203.8 79.4766V85H202.597V79.4629C202.597 78.8431 202.312 78.5355 201.742 78.54C201.592 78.54 201.462 78.5605 201.353 78.6016C201.243 78.6426 201.152 78.6995 201.079 78.7725C201.006 78.8408 200.949 78.9229 200.908 79.0186C200.867 79.1097 200.84 79.2054 200.826 79.3057V85H199.623V79.4561C199.623 79.1598 199.557 78.932 199.425 78.7725C199.293 78.613 199.083 78.5355 198.796 78.54C198.532 78.54 198.326 78.5924 198.181 78.6973C198.035 78.8021 197.928 78.9411 197.859 79.1143V85H196.656V77.6035H197.791ZM205.263 81.2334C205.263 80.7002 205.34 80.2057 205.495 79.75C205.65 79.2897 205.871 78.891 206.158 78.5537C206.45 78.2165 206.803 77.9521 207.218 77.7607C207.632 77.5648 208.1 77.4668 208.619 77.4668C209.143 77.4668 209.613 77.5648 210.027 77.7607C210.447 77.9521 210.8 78.2165 211.087 78.5537C211.379 78.891 211.602 79.2897 211.757 79.75C211.912 80.2057 211.989 80.7002 211.989 81.2334V81.3838C211.989 81.917 211.912 82.4115 211.757 82.8672C211.602 83.3229 211.379 83.7194 211.087 84.0566C210.8 84.3939 210.449 84.6582 210.034 84.8496C209.619 85.041 209.152 85.1367 208.633 85.1367C208.109 85.1367 207.637 85.041 207.218 84.8496C206.803 84.6582 206.45 84.3939 206.158 84.0566C205.871 83.7194 205.65 83.3229 205.495 82.8672C205.34 82.4115 205.263 81.917 205.263 81.3838V81.2334ZM206.527 81.3838C206.527 81.7484 206.571 82.097 206.657 82.4297C206.744 82.7578 206.874 83.0472 207.047 83.2979C207.225 83.5485 207.446 83.7467 207.71 83.8926C207.974 84.0384 208.282 84.1113 208.633 84.1113C208.979 84.1113 209.282 84.0384 209.542 83.8926C209.806 83.7467 210.025 83.5485 210.198 83.2979C210.376 83.0472 210.508 82.7578 210.595 82.4297C210.681 82.097 210.725 81.7484 210.725 81.3838V81.2334C210.725 80.8734 210.679 80.5293 210.588 80.2012C210.501 79.8685 210.369 79.5768 210.191 79.3262C210.018 79.0755 209.799 78.8773 209.535 78.7314C209.275 78.5811 208.97 78.5059 208.619 78.5059C208.268 78.5059 207.963 78.5811 207.703 78.7314C207.443 78.8773 207.225 79.0755 207.047 79.3262C206.874 79.5768 206.744 79.8685 206.657 80.2012C206.571 80.5293 206.527 80.8734 206.527 81.2334V81.3838ZM213.787 81.2402C213.787 80.6888 213.855 80.1829 213.992 79.7227C214.133 79.2578 214.332 78.859 214.587 78.5264C214.847 78.1937 215.159 77.9339 215.523 77.7471C215.888 77.5602 216.296 77.4668 216.747 77.4668C217.189 77.4668 217.574 77.542 217.902 77.6924C218.235 77.8382 218.522 78.0524 218.764 78.335V74.5H220.028V85H218.866L218.812 84.2207C218.565 84.5215 218.271 84.7493 217.93 84.9043C217.588 85.0592 217.189 85.1367 216.733 85.1367C216.287 85.1367 215.881 85.041 215.517 84.8496C215.157 84.6582 214.849 84.3939 214.594 84.0566C214.339 83.7194 214.14 83.3229 213.999 82.8672C213.858 82.4069 213.787 81.9124 213.787 81.3838V81.2402ZM215.052 81.3838C215.052 81.7438 215.09 82.0856 215.168 82.4092C215.245 82.7327 215.364 83.0176 215.523 83.2637C215.688 83.5098 215.895 83.7057 216.146 83.8516C216.396 83.9928 216.697 84.0635 217.048 84.0635C217.262 84.0635 217.456 84.0384 217.629 83.9883C217.802 83.9382 217.959 83.8675 218.101 83.7764C218.242 83.6807 218.367 83.569 218.477 83.4414C218.586 83.3092 218.682 83.1634 218.764 83.0039V79.5723C218.6 79.2715 218.379 79.0254 218.101 78.834C217.823 78.638 217.476 78.54 217.062 78.54C216.706 78.54 216.401 78.613 216.146 78.7588C215.895 78.9046 215.688 79.1029 215.523 79.3535C215.364 79.5996 215.245 79.8867 215.168 80.2148C215.09 80.5384 215.052 80.8802 215.052 81.2402V81.3838ZM225.702 85.1367C225.183 85.1367 224.704 85.0479 224.267 84.8701C223.834 84.6924 223.462 84.444 223.152 84.125C222.842 83.806 222.601 83.4277 222.428 82.9902C222.255 82.5527 222.168 82.0765 222.168 81.5615V81.2744C222.168 80.6774 222.264 80.1442 222.455 79.6748C222.646 79.2008 222.899 78.8021 223.214 78.4785C223.533 78.1504 223.893 77.8997 224.294 77.7266C224.7 77.5534 225.114 77.4668 225.538 77.4668C226.071 77.4668 226.536 77.5602 226.933 77.7471C227.334 77.9294 227.666 78.1846 227.931 78.5127C228.195 78.8363 228.391 79.2191 228.519 79.6611C228.651 80.1032 228.717 80.5817 228.717 81.0967V81.6641H223.433C223.446 82.0013 223.51 82.318 223.624 82.6143C223.743 82.9105 223.902 83.1702 224.103 83.3936C224.308 83.6123 224.551 83.7855 224.834 83.9131C225.117 84.0407 225.429 84.1045 225.771 84.1045C226.222 84.1045 226.623 84.0133 226.974 83.8311C227.325 83.6488 227.616 83.4072 227.849 83.1064L228.621 83.708C228.498 83.8949 228.343 84.0749 228.156 84.248C227.974 84.4167 227.762 84.5671 227.521 84.6992C227.279 84.8314 227.006 84.9362 226.7 85.0137C226.395 85.0957 226.062 85.1367 225.702 85.1367ZM225.538 78.5059C225.283 78.5059 225.041 78.5537 224.813 78.6494C224.586 78.7406 224.381 78.8773 224.198 79.0596C224.016 79.2373 223.861 79.4583 223.733 79.7227C223.61 79.9824 223.524 80.2832 223.474 80.625H227.452V80.5293C227.438 80.2832 227.391 80.0394 227.309 79.7979C227.231 79.5563 227.115 79.3398 226.96 79.1484C226.805 78.957 226.609 78.8021 226.372 78.6836C226.14 78.5651 225.862 78.5059 225.538 78.5059ZM231.041 74.5H234.821V83.9062H237.234V85H231.041V83.9062H233.557V75.6006H231.041V74.5Z" fill="white"/>
<rect y="110" width="350" height="30" rx="5" fill="#A3A3A3"/>
<path d="M104.918 119.5H108.698V128.906H111.111V130H104.918V128.906H107.434V120.601H104.918V119.5ZM113.326 122.604H117.106V128.906H119.52V130H113.326V128.906H115.842V123.704H113.326V122.604ZM115.678 120.662C115.678 120.452 115.739 120.277 115.862 120.136C115.99 119.99 116.181 119.917 116.437 119.917C116.687 119.917 116.876 119.99 117.004 120.136C117.132 120.277 117.195 120.452 117.195 120.662C117.195 120.867 117.132 121.038 117.004 121.175C116.876 121.312 116.687 121.38 116.437 121.38C116.181 121.38 115.99 121.312 115.862 121.175C115.739 121.038 115.678 120.867 115.678 120.662ZM127.805 126.384C127.805 126.912 127.741 127.407 127.613 127.867C127.486 128.323 127.299 128.719 127.053 129.057C126.807 129.394 126.501 129.658 126.137 129.85C125.777 130.041 125.362 130.137 124.893 130.137C124.419 130.137 124.006 130.052 123.655 129.884C123.309 129.715 123.013 129.474 122.767 129.159L122.705 130H121.543V119.5H122.808V123.396C123.049 123.096 123.341 122.866 123.683 122.706C124.024 122.547 124.423 122.467 124.879 122.467C125.353 122.467 125.772 122.56 126.137 122.747C126.501 122.934 126.807 123.194 127.053 123.526C127.299 123.859 127.486 124.258 127.613 124.723C127.741 125.183 127.805 125.689 127.805 126.24V126.384ZM126.54 126.24C126.54 125.88 126.504 125.538 126.431 125.215C126.362 124.887 126.251 124.6 126.096 124.354C125.941 124.103 125.738 123.905 125.487 123.759C125.237 123.613 124.929 123.54 124.564 123.54C124.346 123.54 124.145 123.57 123.963 123.629C123.781 123.684 123.617 123.763 123.471 123.868C123.329 123.968 123.202 124.089 123.088 124.23C122.979 124.367 122.885 124.518 122.808 124.682V127.915C122.89 128.079 122.985 128.232 123.095 128.373C123.209 128.51 123.339 128.631 123.484 128.735C123.63 128.84 123.794 128.922 123.977 128.981C124.159 129.036 124.359 129.063 124.578 129.063C124.924 129.063 125.221 128.993 125.467 128.852C125.717 128.706 125.92 128.51 126.075 128.264C126.235 128.018 126.351 127.733 126.424 127.409C126.501 127.086 126.54 126.744 126.54 126.384V126.24ZM134.791 122.467C134.91 122.467 135.033 122.471 135.16 122.48C135.288 122.485 135.409 122.496 135.522 122.515C135.641 122.528 135.748 122.547 135.844 122.569C135.944 122.592 136.026 122.617 136.09 122.645L135.919 123.882C135.673 123.827 135.438 123.788 135.215 123.766C134.996 123.738 134.766 123.725 134.524 123.725C133.932 123.725 133.451 123.859 133.082 124.128C132.717 124.397 132.449 124.773 132.275 125.256V130H131.004V122.604H132.207L132.269 123.779C132.569 123.374 132.929 123.055 133.349 122.822C133.772 122.585 134.253 122.467 134.791 122.467ZM143.213 130C143.163 129.904 143.122 129.786 143.09 129.645C143.062 129.499 143.042 129.348 143.028 129.193C142.901 129.321 142.757 129.442 142.598 129.556C142.443 129.67 142.27 129.77 142.078 129.856C141.891 129.943 141.691 130.011 141.477 130.062C141.262 130.112 141.035 130.137 140.793 130.137C140.401 130.137 140.046 130.08 139.727 129.966C139.412 129.852 139.143 129.699 138.92 129.508C138.701 129.312 138.53 129.082 138.407 128.817C138.289 128.549 138.229 128.259 138.229 127.949C138.229 127.544 138.309 127.188 138.469 126.883C138.633 126.577 138.863 126.325 139.159 126.124C139.455 125.919 139.811 125.766 140.226 125.666C140.645 125.566 141.112 125.516 141.627 125.516H143.008V124.935C143.008 124.711 142.967 124.511 142.885 124.333C142.803 124.155 142.687 124.005 142.536 123.882C142.386 123.754 142.201 123.656 141.982 123.588C141.768 123.52 141.527 123.485 141.258 123.485C141.007 123.485 140.782 123.517 140.581 123.581C140.385 123.645 140.219 123.729 140.082 123.834C139.945 123.939 139.838 124.064 139.761 124.21C139.688 124.351 139.651 124.499 139.651 124.654H138.38C138.384 124.385 138.453 124.121 138.585 123.861C138.722 123.602 138.915 123.369 139.166 123.164C139.421 122.954 139.729 122.786 140.089 122.658C140.453 122.531 140.866 122.467 141.326 122.467C141.745 122.467 142.135 122.519 142.495 122.624C142.855 122.724 143.165 122.879 143.425 123.089C143.689 123.294 143.896 123.551 144.047 123.861C144.197 124.171 144.272 124.534 144.272 124.948V128.387C144.272 128.633 144.295 128.895 144.341 129.173C144.386 129.446 144.45 129.686 144.532 129.891V130H143.213ZM140.978 129.036C141.224 129.036 141.454 129.004 141.668 128.94C141.882 128.877 142.076 128.792 142.249 128.688C142.427 128.583 142.579 128.464 142.707 128.332C142.835 128.195 142.935 128.054 143.008 127.908V126.411H141.832C141.094 126.411 140.52 126.521 140.109 126.739C139.699 126.958 139.494 127.302 139.494 127.771C139.494 127.954 139.524 128.122 139.583 128.277C139.647 128.432 139.74 128.567 139.863 128.681C139.986 128.79 140.141 128.877 140.328 128.94C140.515 129.004 140.731 129.036 140.978 129.036ZM151.607 122.467C151.726 122.467 151.849 122.471 151.977 122.48C152.104 122.485 152.225 122.496 152.339 122.515C152.457 122.528 152.564 122.547 152.66 122.569C152.76 122.592 152.842 122.617 152.906 122.645L152.735 123.882C152.489 123.827 152.255 123.788 152.031 123.766C151.812 123.738 151.582 123.725 151.341 123.725C150.748 123.725 150.268 123.859 149.898 124.128C149.534 124.397 149.265 124.773 149.092 125.256V130H147.82V122.604H149.023L149.085 123.779C149.386 123.374 149.746 123.055 150.165 122.822C150.589 122.585 151.07 122.467 151.607 122.467ZM155.367 122.604H159.147V128.906H161.561V130H155.367V128.906H157.883V123.704H155.367V122.604ZM157.719 120.662C157.719 120.452 157.78 120.277 157.903 120.136C158.031 119.99 158.222 119.917 158.478 119.917C158.728 119.917 158.917 119.99 159.045 120.136C159.173 120.277 159.236 120.452 159.236 120.662C159.236 120.867 159.173 121.038 159.045 121.175C158.917 121.312 158.728 121.38 158.478 121.38C158.222 121.38 158.031 121.312 157.903 121.175C157.78 121.038 157.719 120.867 157.719 120.662ZM168.438 130C168.387 129.904 168.346 129.786 168.314 129.645C168.287 129.499 168.267 129.348 168.253 129.193C168.125 129.321 167.982 129.442 167.822 129.556C167.667 129.67 167.494 129.77 167.303 129.856C167.116 129.943 166.915 130.011 166.701 130.062C166.487 130.112 166.259 130.137 166.018 130.137C165.626 130.137 165.27 130.08 164.951 129.966C164.637 129.852 164.368 129.699 164.145 129.508C163.926 129.312 163.755 129.082 163.632 128.817C163.513 128.549 163.454 128.259 163.454 127.949C163.454 127.544 163.534 127.188 163.693 126.883C163.857 126.577 164.088 126.325 164.384 126.124C164.68 125.919 165.035 125.766 165.45 125.666C165.869 125.566 166.337 125.516 166.852 125.516H168.232V124.935C168.232 124.711 168.191 124.511 168.109 124.333C168.027 124.155 167.911 124.005 167.761 123.882C167.61 123.754 167.426 123.656 167.207 123.588C166.993 123.52 166.751 123.485 166.482 123.485C166.232 123.485 166.006 123.517 165.806 123.581C165.61 123.645 165.443 123.729 165.307 123.834C165.17 123.939 165.063 124.064 164.985 124.21C164.912 124.351 164.876 124.499 164.876 124.654H163.604C163.609 124.385 163.677 124.121 163.81 123.861C163.946 123.602 164.14 123.369 164.391 123.164C164.646 122.954 164.953 122.786 165.313 122.658C165.678 122.531 166.09 122.467 166.551 122.467C166.97 122.467 167.36 122.519 167.72 122.624C168.08 122.724 168.39 122.879 168.649 123.089C168.914 123.294 169.121 123.551 169.271 123.861C169.422 124.171 169.497 124.534 169.497 124.948V128.387C169.497 128.633 169.52 128.895 169.565 129.173C169.611 129.446 169.675 129.686 169.757 129.891V130H168.438ZM166.202 129.036C166.448 129.036 166.678 129.004 166.893 128.94C167.107 128.877 167.3 128.792 167.474 128.688C167.651 128.583 167.804 128.464 167.932 128.332C168.059 128.195 168.16 128.054 168.232 127.908V126.411H167.057C166.318 126.411 165.744 126.521 165.334 126.739C164.924 126.958 164.719 127.302 164.719 127.771C164.719 127.954 164.748 128.122 164.808 128.277C164.871 128.432 164.965 128.567 165.088 128.681C165.211 128.79 165.366 128.877 165.553 128.94C165.74 129.004 165.956 129.036 166.202 129.036ZM173.12 122.604L173.209 123.697C173.478 123.314 173.808 123.016 174.2 122.802C174.592 122.583 175.03 122.471 175.513 122.467C175.9 122.467 176.251 122.521 176.565 122.631C176.884 122.74 177.156 122.911 177.379 123.144C177.602 123.376 177.773 123.672 177.892 124.032C178.015 124.388 178.076 124.812 178.076 125.304V130H176.812V125.331C176.812 125.003 176.775 124.725 176.702 124.497C176.629 124.269 176.52 124.085 176.374 123.943C176.233 123.802 176.057 123.7 175.848 123.636C175.643 123.572 175.406 123.54 175.137 123.54C174.713 123.54 174.339 123.647 174.016 123.861C173.697 124.071 173.441 124.349 173.25 124.695V130H171.985V122.604H173.12ZM182.062 130.854H180.927L185.083 120.047H186.211L182.062 130.854ZM190.066 123.704C190.331 123.317 190.657 123.016 191.044 122.802C191.431 122.583 191.867 122.471 192.35 122.467C192.737 122.467 193.088 122.524 193.402 122.638C193.721 122.747 193.993 122.92 194.216 123.157C194.439 123.394 194.61 123.695 194.729 124.06C194.852 124.42 194.913 124.848 194.913 125.345V130H193.648V125.331C193.648 124.725 193.503 124.274 193.211 123.978C192.924 123.681 192.511 123.535 191.974 123.54C191.568 123.54 191.199 123.64 190.866 123.841C190.538 124.037 190.271 124.299 190.066 124.627V130H188.802V119.5H190.066V123.704ZM200.478 130.137C199.958 130.137 199.479 130.048 199.042 129.87C198.609 129.692 198.238 129.444 197.928 129.125C197.618 128.806 197.376 128.428 197.203 127.99C197.03 127.553 196.943 127.076 196.943 126.562V126.274C196.943 125.677 197.039 125.144 197.23 124.675C197.422 124.201 197.675 123.802 197.989 123.479C198.308 123.15 198.668 122.9 199.069 122.727C199.475 122.553 199.89 122.467 200.313 122.467C200.847 122.467 201.312 122.56 201.708 122.747C202.109 122.929 202.442 123.185 202.706 123.513C202.97 123.836 203.166 124.219 203.294 124.661C203.426 125.103 203.492 125.582 203.492 126.097V126.664H198.208C198.222 127.001 198.285 127.318 198.399 127.614C198.518 127.91 198.677 128.17 198.878 128.394C199.083 128.612 199.327 128.785 199.609 128.913C199.892 129.041 200.204 129.104 200.546 129.104C200.997 129.104 201.398 129.013 201.749 128.831C202.1 128.649 202.392 128.407 202.624 128.106L203.396 128.708C203.273 128.895 203.118 129.075 202.932 129.248C202.749 129.417 202.537 129.567 202.296 129.699C202.054 129.831 201.781 129.936 201.476 130.014C201.17 130.096 200.838 130.137 200.478 130.137ZM200.313 123.506C200.058 123.506 199.817 123.554 199.589 123.649C199.361 123.741 199.156 123.877 198.974 124.06C198.791 124.237 198.636 124.458 198.509 124.723C198.386 124.982 198.299 125.283 198.249 125.625H202.228V125.529C202.214 125.283 202.166 125.039 202.084 124.798C202.007 124.556 201.89 124.34 201.735 124.148C201.58 123.957 201.384 123.802 201.147 123.684C200.915 123.565 200.637 123.506 200.313 123.506ZM205.816 119.5H209.597V128.906H212.01V130H205.816V128.906H208.332V120.601H205.816V119.5ZM220.268 126.384C220.268 126.912 220.204 127.407 220.076 127.867C219.949 128.323 219.762 128.719 219.516 129.057C219.27 129.394 218.964 129.658 218.6 129.85C218.24 130.041 217.827 130.137 217.362 130.137C216.911 130.137 216.512 130.064 216.166 129.918C215.824 129.772 215.53 129.562 215.284 129.289V132.844H214.02V122.604H215.175L215.236 123.41C215.482 123.105 215.779 122.872 216.125 122.713C216.476 122.549 216.882 122.467 217.342 122.467C217.816 122.467 218.235 122.56 218.6 122.747C218.964 122.934 219.27 123.194 219.516 123.526C219.762 123.859 219.949 124.258 220.076 124.723C220.204 125.183 220.268 125.689 220.268 126.24V126.384ZM219.003 126.24C219.003 125.88 218.962 125.538 218.88 125.215C218.802 124.887 218.679 124.6 218.511 124.354C218.347 124.103 218.137 123.905 217.882 123.759C217.627 123.613 217.321 123.54 216.966 123.54C216.56 123.54 216.218 123.636 215.94 123.827C215.667 124.014 215.448 124.256 215.284 124.552V128.113C215.448 128.405 215.667 128.644 215.94 128.831C216.214 129.013 216.56 129.104 216.979 129.104C217.33 129.104 217.633 129.032 217.889 128.886C218.144 128.735 218.354 128.535 218.518 128.284C218.682 128.034 218.802 127.744 218.88 127.416C218.962 127.088 219.003 126.744 219.003 126.384V126.24ZM225.702 130.137C225.183 130.137 224.704 130.048 224.267 129.87C223.834 129.692 223.462 129.444 223.152 129.125C222.842 128.806 222.601 128.428 222.428 127.99C222.255 127.553 222.168 127.076 222.168 126.562V126.274C222.168 125.677 222.264 125.144 222.455 124.675C222.646 124.201 222.899 123.802 223.214 123.479C223.533 123.15 223.893 122.9 224.294 122.727C224.7 122.553 225.114 122.467 225.538 122.467C226.071 122.467 226.536 122.56 226.933 122.747C227.334 122.929 227.666 123.185 227.931 123.513C228.195 123.836 228.391 124.219 228.519 124.661C228.651 125.103 228.717 125.582 228.717 126.097V126.664H223.433C223.446 127.001 223.51 127.318 223.624 127.614C223.743 127.91 223.902 128.17 224.103 128.394C224.308 128.612 224.551 128.785 224.834 128.913C225.117 129.041 225.429 129.104 225.771 129.104C226.222 129.104 226.623 129.013 226.974 128.831C227.325 128.649 227.616 128.407 227.849 128.106L228.621 128.708C228.498 128.895 228.343 129.075 228.156 129.248C227.974 129.417 227.762 129.567 227.521 129.699C227.279 129.831 227.006 129.936 226.7 130.014C226.395 130.096 226.062 130.137 225.702 130.137ZM225.538 123.506C225.283 123.506 225.041 123.554 224.813 123.649C224.586 123.741 224.381 123.877 224.198 124.06C224.016 124.237 223.861 124.458 223.733 124.723C223.61 124.982 223.524 125.283 223.474 125.625H227.452V125.529C227.438 125.283 227.391 125.039 227.309 124.798C227.231 124.556 227.115 124.34 226.96 124.148C226.805 123.957 226.609 123.802 226.372 123.684C226.14 123.565 225.862 123.506 225.538 123.506ZM235.689 122.467C235.808 122.467 235.931 122.471 236.059 122.48C236.186 122.485 236.307 122.496 236.421 122.515C236.539 122.528 236.646 122.547 236.742 122.569C236.842 122.592 236.924 122.617 236.988 122.645L236.817 123.882C236.571 123.827 236.337 123.788 236.113 123.766C235.895 123.738 235.664 123.725 235.423 123.725C234.83 123.725 234.35 123.859 233.98 124.128C233.616 124.397 233.347 124.773 233.174 125.256V130H231.902V122.604H233.105L233.167 123.779C233.468 123.374 233.828 123.055 234.247 122.822C234.671 122.585 235.152 122.467 235.689 122.467ZM244.166 128.038C244.166 127.888 244.136 127.753 244.077 127.635C244.018 127.512 243.918 127.4 243.776 127.3C243.635 127.2 243.448 127.108 243.216 127.026C242.983 126.94 242.694 126.862 242.348 126.794C241.924 126.707 241.536 126.603 241.186 126.479C240.839 126.356 240.541 126.211 240.29 126.042C240.044 125.869 239.853 125.668 239.716 125.44C239.579 125.208 239.511 124.939 239.511 124.634C239.511 124.333 239.581 124.053 239.723 123.793C239.864 123.529 240.062 123.299 240.317 123.103C240.573 122.907 240.876 122.752 241.227 122.638C241.582 122.524 241.972 122.467 242.396 122.467C242.851 122.467 243.261 122.526 243.626 122.645C243.991 122.763 244.3 122.927 244.556 123.137C244.811 123.346 245.007 123.592 245.144 123.875C245.285 124.153 245.355 124.454 245.355 124.777H244.091C244.091 124.618 244.05 124.463 243.968 124.312C243.886 124.158 243.772 124.021 243.626 123.902C243.48 123.784 243.302 123.688 243.093 123.615C242.888 123.542 242.655 123.506 242.396 123.506C242.127 123.506 241.89 123.535 241.685 123.595C241.484 123.654 241.315 123.734 241.179 123.834C241.047 123.934 240.946 124.05 240.878 124.183C240.81 124.315 240.775 124.451 240.775 124.593C240.775 124.739 240.803 124.868 240.857 124.982C240.912 125.096 241.006 125.199 241.138 125.29C241.274 125.381 241.454 125.463 241.678 125.536C241.906 125.609 242.193 125.68 242.539 125.748C242.995 125.844 243.403 125.955 243.763 126.083C244.123 126.206 244.426 126.356 244.672 126.534C244.918 126.707 245.105 126.91 245.232 127.143C245.365 127.375 245.431 127.644 245.431 127.949C245.431 128.277 245.355 128.576 245.205 128.845C245.059 129.114 244.854 129.344 244.59 129.535C244.326 129.727 244.009 129.875 243.64 129.979C243.271 130.084 242.867 130.137 242.43 130.137C241.928 130.137 241.482 130.071 241.09 129.938C240.698 129.802 240.365 129.624 240.092 129.405C239.823 129.182 239.616 128.924 239.47 128.633C239.328 128.341 239.258 128.038 239.258 127.724H240.522C240.541 127.983 240.609 128.202 240.728 128.38C240.851 128.558 241.001 128.701 241.179 128.811C241.361 128.92 241.562 128.997 241.78 129.043C241.999 129.089 242.215 129.111 242.43 129.111C242.963 129.111 243.384 129.013 243.694 128.817C244.004 128.621 244.161 128.362 244.166 128.038Z" fill="white"/>
<path d="M180 5C180 2.23858 182.239 0 185 0H345C347.761 0 350 2.23858 350 5V95C350 97.7614 347.761 100 345 100H315C312.239 100 310 97.7614 310 95V55C310 52.2386 307.761 50 305 50H185C182.239 50 180 47.7614 180 45V5Z" fill="#C42C2D"/>
<path d="M186.51 12.5H190.29V21.9062H192.703V23H186.51V21.9062H189.025V13.6006H186.51V12.5ZM194.918 15.6035H198.698V21.9062H201.111V23H194.918V21.9062H197.434V16.7041H194.918V15.6035ZM197.27 13.6621C197.27 13.4525 197.331 13.277 197.454 13.1357C197.582 12.9899 197.773 12.917 198.028 12.917C198.279 12.917 198.468 12.9899 198.596 13.1357C198.723 13.277 198.787 13.4525 198.787 13.6621C198.787 13.8672 198.723 14.0381 198.596 14.1748C198.468 14.3115 198.279 14.3799 198.028 14.3799C197.773 14.3799 197.582 14.3115 197.454 14.1748C197.331 14.0381 197.27 13.8672 197.27 13.6621ZM209.396 19.3838C209.396 19.9124 209.333 20.4069 209.205 20.8672C209.077 21.3229 208.891 21.7194 208.645 22.0566C208.398 22.3939 208.093 22.6582 207.729 22.8496C207.368 23.041 206.954 23.1367 206.484 23.1367C206.01 23.1367 205.598 23.0524 205.247 22.8838C204.901 22.7152 204.604 22.4736 204.358 22.1592L204.297 23H203.135V12.5H204.399V16.3965C204.641 16.0957 204.933 15.8656 205.274 15.7061C205.616 15.5465 206.015 15.4668 206.471 15.4668C206.945 15.4668 207.364 15.5602 207.729 15.7471C208.093 15.9339 208.398 16.1937 208.645 16.5264C208.891 16.859 209.077 17.2578 209.205 17.7227C209.333 18.1829 209.396 18.6888 209.396 19.2402V19.3838ZM208.132 19.2402C208.132 18.8802 208.095 18.5384 208.022 18.2148C207.954 17.8867 207.842 17.5996 207.688 17.3535C207.533 17.1029 207.33 16.9046 207.079 16.7588C206.828 16.613 206.521 16.54 206.156 16.54C205.938 16.54 205.737 16.5697 205.555 16.6289C205.372 16.6836 205.208 16.7633 205.062 16.8682C204.921 16.9684 204.794 17.0892 204.68 17.2305C204.57 17.3672 204.477 17.5176 204.399 17.6816V20.915C204.481 21.0791 204.577 21.2318 204.687 21.373C204.8 21.5098 204.93 21.6305 205.076 21.7354C205.222 21.8402 205.386 21.9222 205.568 21.9814C205.751 22.0361 205.951 22.0635 206.17 22.0635C206.516 22.0635 206.812 21.9928 207.059 21.8516C207.309 21.7057 207.512 21.5098 207.667 21.2637C207.826 21.0176 207.943 20.7327 208.016 20.4092C208.093 20.0856 208.132 19.7438 208.132 19.3838V19.2402ZM216.383 15.4668C216.501 15.4668 216.624 15.4714 216.752 15.4805C216.88 15.485 217 15.4964 217.114 15.5146C217.233 15.5283 217.34 15.5465 217.436 15.5693C217.536 15.5921 217.618 15.6172 217.682 15.6445L217.511 16.8818C217.265 16.8271 217.03 16.7884 216.807 16.7656C216.588 16.7383 216.358 16.7246 216.116 16.7246C215.524 16.7246 215.043 16.859 214.674 17.1279C214.309 17.3968 214.04 17.7728 213.867 18.2559V23H212.596V15.6035H213.799L213.86 16.7793C214.161 16.3737 214.521 16.0547 214.94 15.8223C215.364 15.5853 215.845 15.4668 216.383 15.4668ZM224.805 23C224.755 22.9043 224.714 22.7858 224.682 22.6445C224.654 22.4987 224.634 22.3483 224.62 22.1934C224.493 22.321 224.349 22.4417 224.189 22.5557C224.035 22.6696 223.861 22.7699 223.67 22.8564C223.483 22.943 223.283 23.0114 223.068 23.0615C222.854 23.1117 222.626 23.1367 222.385 23.1367C221.993 23.1367 221.637 23.0798 221.318 22.9658C221.004 22.8519 220.735 22.6992 220.512 22.5078C220.293 22.3118 220.122 22.0817 219.999 21.8174C219.881 21.5485 219.821 21.2591 219.821 20.9492C219.821 20.5436 219.901 20.1882 220.061 19.8828C220.225 19.5775 220.455 19.3245 220.751 19.124C221.047 18.9189 221.403 18.7663 221.817 18.666C222.237 18.5658 222.704 18.5156 223.219 18.5156H224.6V17.9346C224.6 17.7113 224.559 17.5107 224.477 17.333C224.395 17.1553 224.278 17.0049 224.128 16.8818C223.978 16.7542 223.793 16.6562 223.574 16.5879C223.36 16.5195 223.118 16.4854 222.85 16.4854C222.599 16.4854 222.373 16.5173 222.173 16.5811C221.977 16.6449 221.811 16.7292 221.674 16.834C221.537 16.9388 221.43 17.0641 221.353 17.21C221.28 17.3512 221.243 17.4993 221.243 17.6543H219.972C219.976 17.3854 220.045 17.1211 220.177 16.8613C220.313 16.6016 220.507 16.3691 220.758 16.1641C221.013 15.9544 221.321 15.7858 221.681 15.6582C222.045 15.5306 222.458 15.4668 222.918 15.4668C223.337 15.4668 223.727 15.5192 224.087 15.624C224.447 15.7243 224.757 15.8792 225.017 16.0889C225.281 16.2939 225.488 16.5514 225.639 16.8613C225.789 17.1712 225.864 17.5335 225.864 17.9482V21.3867C225.864 21.6328 225.887 21.8949 225.933 22.1729C225.978 22.4463 226.042 22.6855 226.124 22.8906V23H224.805ZM222.569 22.0361C222.815 22.0361 223.046 22.0042 223.26 21.9404C223.474 21.8766 223.668 21.7923 223.841 21.6875C224.019 21.5827 224.171 21.4642 224.299 21.332C224.426 21.1953 224.527 21.054 224.6 20.9082V19.4111H223.424C222.686 19.4111 222.111 19.5205 221.701 19.7393C221.291 19.958 221.086 20.3021 221.086 20.7715C221.086 20.9538 221.116 21.1224 221.175 21.2773C221.239 21.4323 221.332 21.5667 221.455 21.6807C221.578 21.79 221.733 21.8766 221.92 21.9404C222.107 22.0042 222.323 22.0361 222.569 22.0361ZM233.199 15.4668C233.318 15.4668 233.441 15.4714 233.568 15.4805C233.696 15.485 233.817 15.4964 233.931 15.5146C234.049 15.5283 234.156 15.5465 234.252 15.5693C234.352 15.5921 234.434 15.6172 234.498 15.6445L234.327 16.8818C234.081 16.8271 233.846 16.7884 233.623 16.7656C233.404 16.7383 233.174 16.7246 232.933 16.7246C232.34 16.7246 231.859 16.859 231.49 17.1279C231.126 17.3968 230.857 17.7728 230.684 18.2559V23H229.412V15.6035H230.615L230.677 16.7793C230.978 16.3737 231.338 16.0547 231.757 15.8223C232.181 15.5853 232.661 15.4668 233.199 15.4668ZM236.959 15.6035H240.739V21.9062H243.152V23H236.959V21.9062H239.475V16.7041H236.959V15.6035ZM239.311 13.6621C239.311 13.4525 239.372 13.277 239.495 13.1357C239.623 12.9899 239.814 12.917 240.069 12.917C240.32 12.917 240.509 12.9899 240.637 13.1357C240.764 13.277 240.828 13.4525 240.828 13.6621C240.828 13.8672 240.764 14.0381 240.637 14.1748C240.509 14.3115 240.32 14.3799 240.069 14.3799C239.814 14.3799 239.623 14.3115 239.495 14.1748C239.372 14.0381 239.311 13.8672 239.311 13.6621ZM250.029 23C249.979 22.9043 249.938 22.7858 249.906 22.6445C249.879 22.4987 249.858 22.3483 249.845 22.1934C249.717 22.321 249.574 22.4417 249.414 22.5557C249.259 22.6696 249.086 22.7699 248.895 22.8564C248.708 22.943 248.507 23.0114 248.293 23.0615C248.079 23.1117 247.851 23.1367 247.609 23.1367C247.217 23.1367 246.862 23.0798 246.543 22.9658C246.229 22.8519 245.96 22.6992 245.736 22.5078C245.518 22.3118 245.347 22.0817 245.224 21.8174C245.105 21.5485 245.046 21.2591 245.046 20.9492C245.046 20.5436 245.126 20.1882 245.285 19.8828C245.449 19.5775 245.679 19.3245 245.976 19.124C246.272 18.9189 246.627 18.7663 247.042 18.666C247.461 18.5658 247.928 18.5156 248.443 18.5156H249.824V17.9346C249.824 17.7113 249.783 17.5107 249.701 17.333C249.619 17.1553 249.503 17.0049 249.353 16.8818C249.202 16.7542 249.018 16.6562 248.799 16.5879C248.585 16.5195 248.343 16.4854 248.074 16.4854C247.824 16.4854 247.598 16.5173 247.397 16.5811C247.201 16.6449 247.035 16.7292 246.898 16.834C246.762 16.9388 246.655 17.0641 246.577 17.21C246.504 17.3512 246.468 17.4993 246.468 17.6543H245.196C245.201 17.3854 245.269 17.1211 245.401 16.8613C245.538 16.6016 245.732 16.3691 245.982 16.1641C246.238 15.9544 246.545 15.7858 246.905 15.6582C247.27 15.5306 247.682 15.4668 248.143 15.4668C248.562 15.4668 248.951 15.5192 249.312 15.624C249.672 15.7243 249.981 15.8792 250.241 16.0889C250.506 16.2939 250.713 16.5514 250.863 16.8613C251.014 17.1712 251.089 17.5335 251.089 17.9482V21.3867C251.089 21.6328 251.112 21.8949 251.157 22.1729C251.203 22.4463 251.267 22.6855 251.349 22.8906V23H250.029ZM247.794 22.0361C248.04 22.0361 248.27 22.0042 248.484 21.9404C248.699 21.8766 248.892 21.7923 249.065 21.6875C249.243 21.5827 249.396 21.4642 249.523 21.332C249.651 21.1953 249.751 21.054 249.824 20.9082V19.4111H248.648C247.91 19.4111 247.336 19.5205 246.926 19.7393C246.516 19.958 246.311 20.3021 246.311 20.7715C246.311 20.9538 246.34 21.1224 246.399 21.2773C246.463 21.4323 246.557 21.5667 246.68 21.6807C246.803 21.79 246.958 21.8766 247.145 21.9404C247.331 22.0042 247.548 22.0361 247.794 22.0361ZM254.712 15.6035L254.801 16.6973C255.07 16.3145 255.4 16.016 255.792 15.8018C256.184 15.583 256.621 15.4714 257.104 15.4668C257.492 15.4668 257.843 15.5215 258.157 15.6309C258.476 15.7402 258.747 15.9111 258.971 16.1436C259.194 16.376 259.365 16.6722 259.483 17.0322C259.606 17.3877 259.668 17.8115 259.668 18.3037V23H258.403V18.3311C258.403 18.0029 258.367 17.7249 258.294 17.4971C258.221 17.2692 258.112 17.0846 257.966 16.9434C257.825 16.8021 257.649 16.6995 257.439 16.6357C257.234 16.5719 256.997 16.54 256.729 16.54C256.305 16.54 255.931 16.6471 255.607 16.8613C255.288 17.071 255.033 17.349 254.842 17.6953V23H253.577V15.6035H254.712ZM263.653 23.8545H262.519L266.675 13.0469H267.803L263.653 23.8545ZM270.161 19.2402C270.161 18.6888 270.227 18.1829 270.359 17.7227C270.496 17.2578 270.692 16.859 270.947 16.5264C271.202 16.1937 271.512 15.9339 271.877 15.7471C272.242 15.5602 272.654 15.4668 273.114 15.4668C273.57 15.4668 273.969 15.5488 274.311 15.7129C274.657 15.8724 274.951 16.1048 275.192 16.4102L275.254 15.6035H276.402V22.8428C276.402 23.3304 276.325 23.7633 276.17 24.1416C276.02 24.5199 275.805 24.8411 275.527 25.1055C275.254 25.3698 274.926 25.5703 274.543 25.707C274.16 25.8438 273.736 25.9121 273.271 25.9121C273.08 25.9121 272.861 25.8893 272.615 25.8438C272.369 25.8027 272.118 25.7321 271.863 25.6318C271.613 25.5361 271.369 25.4062 271.132 25.2422C270.899 25.0781 270.699 24.8753 270.53 24.6338L271.187 23.875C271.341 24.0618 271.501 24.2191 271.665 24.3467C271.829 24.4788 271.995 24.5837 272.164 24.6611C272.333 24.7386 272.501 24.7933 272.67 24.8252C272.839 24.8617 273.007 24.8799 273.176 24.8799C273.477 24.8799 273.748 24.8366 273.989 24.75C274.231 24.6634 274.436 24.5358 274.604 24.3672C274.778 24.2031 274.91 23.998 275.001 23.752C275.092 23.5059 275.138 23.2233 275.138 22.9043V22.2686C274.892 22.5511 274.6 22.7676 274.263 22.918C273.93 23.0638 273.543 23.1367 273.101 23.1367C272.649 23.1367 272.242 23.041 271.877 22.8496C271.512 22.6582 271.202 22.3939 270.947 22.0566C270.697 21.7194 270.503 21.3229 270.366 20.8672C270.229 20.4069 270.161 19.9124 270.161 19.3838V19.2402ZM271.426 19.3838C271.426 19.7438 271.462 20.0856 271.535 20.4092C271.613 20.7327 271.731 21.0176 271.891 21.2637C272.055 21.5098 272.262 21.7057 272.513 21.8516C272.763 21.9928 273.064 22.0635 273.415 22.0635C273.634 22.0635 273.83 22.0384 274.003 21.9883C274.181 21.9336 274.338 21.8584 274.475 21.7627C274.616 21.667 274.741 21.5531 274.851 21.4209C274.96 21.2887 275.056 21.1429 275.138 20.9834V17.5928C275.056 17.4378 274.96 17.2965 274.851 17.1689C274.741 17.0413 274.616 16.932 274.475 16.8408C274.333 16.7451 274.176 16.6722 274.003 16.6221C273.83 16.5674 273.638 16.54 273.429 16.54C273.073 16.54 272.768 16.613 272.513 16.7588C272.262 16.9046 272.055 17.1029 271.891 17.3535C271.731 17.5996 271.613 17.8867 271.535 18.2148C271.462 18.5384 271.426 18.8802 271.426 19.2402V19.3838ZM282.069 23.1367C281.55 23.1367 281.071 23.0479 280.634 22.8701C280.201 22.6924 279.829 22.444 279.52 22.125C279.21 21.806 278.968 21.4277 278.795 20.9902C278.622 20.5527 278.535 20.0765 278.535 19.5615V19.2744C278.535 18.6774 278.631 18.1442 278.822 17.6748C279.014 17.2008 279.267 16.8021 279.581 16.4785C279.9 16.1504 280.26 15.8997 280.661 15.7266C281.067 15.5534 281.481 15.4668 281.905 15.4668C282.438 15.4668 282.903 15.5602 283.3 15.7471C283.701 15.9294 284.034 16.1846 284.298 16.5127C284.562 16.8363 284.758 17.2191 284.886 17.6611C285.018 18.1032 285.084 18.5817 285.084 19.0967V19.6641H279.8C279.813 20.0013 279.877 20.318 279.991 20.6143C280.11 20.9105 280.269 21.1702 280.47 21.3936C280.675 21.6123 280.919 21.7855 281.201 21.9131C281.484 22.0407 281.796 22.1045 282.138 22.1045C282.589 22.1045 282.99 22.0133 283.341 21.8311C283.692 21.6488 283.983 21.4072 284.216 21.1064L284.988 21.708C284.865 21.8949 284.71 22.0749 284.523 22.248C284.341 22.4167 284.129 22.5671 283.888 22.6992C283.646 22.8314 283.373 22.9362 283.067 23.0137C282.762 23.0957 282.429 23.1367 282.069 23.1367ZM281.905 16.5059C281.65 16.5059 281.409 16.5537 281.181 16.6494C280.953 16.7406 280.748 16.8773 280.565 17.0596C280.383 17.2373 280.228 17.4583 280.101 17.7227C279.978 17.9824 279.891 18.2832 279.841 18.625H283.819V18.5293C283.806 18.2832 283.758 18.0394 283.676 17.7979C283.598 17.5563 283.482 17.3398 283.327 17.1484C283.172 16.957 282.976 16.8021 282.739 16.6836C282.507 16.5651 282.229 16.5059 281.905 16.5059ZM288.345 15.6035L288.434 16.6973C288.702 16.3145 289.033 16.016 289.425 15.8018C289.817 15.583 290.254 15.4714 290.737 15.4668C291.125 15.4668 291.476 15.5215 291.79 15.6309C292.109 15.7402 292.38 15.9111 292.604 16.1436C292.827 16.376 292.998 16.6722 293.116 17.0322C293.239 17.3877 293.301 17.8115 293.301 18.3037V23H292.036V18.3311C292.036 18.0029 292 17.7249 291.927 17.4971C291.854 17.2692 291.744 17.0846 291.599 16.9434C291.457 16.8021 291.282 16.6995 291.072 16.6357C290.867 16.5719 290.63 16.54 290.361 16.54C289.938 16.54 289.564 16.6471 289.24 16.8613C288.921 17.071 288.666 17.349 288.475 17.6953V23H287.21V15.6035H288.345ZM298.886 23.1367C298.366 23.1367 297.888 23.0479 297.45 22.8701C297.017 22.6924 296.646 22.444 296.336 22.125C296.026 21.806 295.785 21.4277 295.611 20.9902C295.438 20.5527 295.352 20.0765 295.352 19.5615V19.2744C295.352 18.6774 295.447 18.1442 295.639 17.6748C295.83 17.2008 296.083 16.8021 296.397 16.4785C296.716 16.1504 297.076 15.8997 297.478 15.7266C297.883 15.5534 298.298 15.4668 298.722 15.4668C299.255 15.4668 299.72 15.5602 300.116 15.7471C300.517 15.9294 300.85 16.1846 301.114 16.5127C301.379 16.8363 301.575 17.2191 301.702 17.6611C301.834 18.1032 301.9 18.5817 301.9 19.0967V19.6641H296.616C296.63 20.0013 296.694 20.318 296.808 20.6143C296.926 20.9105 297.086 21.1702 297.286 21.3936C297.491 21.6123 297.735 21.7855 298.018 21.9131C298.3 22.0407 298.612 22.1045 298.954 22.1045C299.405 22.1045 299.806 22.0133 300.157 21.8311C300.508 21.6488 300.8 21.4072 301.032 21.1064L301.805 21.708C301.682 21.8949 301.527 22.0749 301.34 22.248C301.158 22.4167 300.946 22.5671 300.704 22.6992C300.463 22.8314 300.189 22.9362 299.884 23.0137C299.578 23.0957 299.246 23.1367 298.886 23.1367ZM298.722 16.5059C298.466 16.5059 298.225 16.5537 297.997 16.6494C297.769 16.7406 297.564 16.8773 297.382 17.0596C297.2 17.2373 297.045 17.4583 296.917 17.7227C296.794 17.9824 296.707 18.2832 296.657 18.625H300.636V18.5293C300.622 18.2832 300.574 18.0394 300.492 17.7979C300.415 17.5563 300.299 17.3398 300.144 17.1484C299.989 16.957 299.793 16.8021 299.556 16.6836C299.323 16.5651 299.045 16.5059 298.722 16.5059ZM308.873 15.4668C308.992 15.4668 309.115 15.4714 309.242 15.4805C309.37 15.485 309.491 15.4964 309.604 15.5146C309.723 15.5283 309.83 15.5465 309.926 15.5693C310.026 15.5921 310.108 15.6172 310.172 15.6445L310.001 16.8818C309.755 16.8271 309.52 16.7884 309.297 16.7656C309.078 16.7383 308.848 16.7246 308.606 16.7246C308.014 16.7246 307.533 16.859 307.164 17.1279C306.799 17.3968 306.531 17.7728 306.357 18.2559V23H305.086V15.6035H306.289L306.351 16.7793C306.651 16.3737 307.011 16.0547 307.431 15.8223C307.854 15.5853 308.335 15.4668 308.873 15.4668ZM317.295 23C317.245 22.9043 317.204 22.7858 317.172 22.6445C317.145 22.4987 317.124 22.3483 317.11 22.1934C316.983 22.321 316.839 22.4417 316.68 22.5557C316.525 22.6696 316.352 22.7699 316.16 22.8564C315.973 22.943 315.773 23.0114 315.559 23.0615C315.344 23.1117 315.117 23.1367 314.875 23.1367C314.483 23.1367 314.128 23.0798 313.809 22.9658C313.494 22.8519 313.225 22.6992 313.002 22.5078C312.783 22.3118 312.612 22.0817 312.489 21.8174C312.371 21.5485 312.312 21.2591 312.312 20.9492C312.312 20.5436 312.391 20.1882 312.551 19.8828C312.715 19.5775 312.945 19.3245 313.241 19.124C313.537 18.9189 313.893 18.7663 314.308 18.666C314.727 18.5658 315.194 18.5156 315.709 18.5156H317.09V17.9346C317.09 17.7113 317.049 17.5107 316.967 17.333C316.885 17.1553 316.769 17.0049 316.618 16.8818C316.468 16.7542 316.283 16.6562 316.064 16.5879C315.85 16.5195 315.609 16.4854 315.34 16.4854C315.089 16.4854 314.864 16.5173 314.663 16.5811C314.467 16.6449 314.301 16.7292 314.164 16.834C314.027 16.9388 313.92 17.0641 313.843 17.21C313.77 17.3512 313.733 17.4993 313.733 17.6543H312.462C312.466 17.3854 312.535 17.1211 312.667 16.8613C312.804 16.6016 312.997 16.3691 313.248 16.1641C313.503 15.9544 313.811 15.7858 314.171 15.6582C314.535 15.5306 314.948 15.4668 315.408 15.4668C315.827 15.4668 316.217 15.5192 316.577 15.624C316.937 15.7243 317.247 15.8792 317.507 16.0889C317.771 16.2939 317.979 16.5514 318.129 16.8613C318.279 17.1712 318.354 17.5335 318.354 17.9482V21.3867C318.354 21.6328 318.377 21.8949 318.423 22.1729C318.468 22.4463 318.532 22.6855 318.614 22.8906V23H317.295ZM315.06 22.0361C315.306 22.0361 315.536 22.0042 315.75 21.9404C315.964 21.8766 316.158 21.7923 316.331 21.6875C316.509 21.5827 316.661 21.4642 316.789 21.332C316.917 21.1953 317.017 21.054 317.09 20.9082V19.4111H315.914C315.176 19.4111 314.602 19.5205 314.191 19.7393C313.781 19.958 313.576 20.3021 313.576 20.7715C313.576 20.9538 313.606 21.1224 313.665 21.2773C313.729 21.4323 313.822 21.5667 313.945 21.6807C314.068 21.79 314.223 21.8766 314.41 21.9404C314.597 22.0042 314.813 22.0361 315.06 22.0361ZM323.837 13.8125V15.6035H326.653V16.5811H323.837V20.6006C323.837 20.8877 323.873 21.1247 323.946 21.3115C324.019 21.4984 324.119 21.6488 324.247 21.7627C324.375 21.8721 324.521 21.9495 324.685 21.9951C324.853 22.0407 325.031 22.0635 325.218 22.0635C325.354 22.0635 325.496 22.0566 325.642 22.043C325.787 22.0247 325.929 22.0042 326.065 21.9814C326.207 21.9587 326.337 21.9359 326.455 21.9131C326.578 21.8857 326.678 21.863 326.756 21.8447L326.934 22.7402C326.829 22.804 326.701 22.861 326.551 22.9111C326.4 22.9567 326.236 22.9954 326.059 23.0273C325.881 23.0638 325.692 23.0911 325.491 23.1094C325.295 23.1276 325.099 23.1367 324.903 23.1367C324.575 23.1367 324.268 23.0911 323.98 23C323.698 22.9043 323.452 22.7562 323.242 22.5557C323.033 22.3506 322.866 22.0885 322.743 21.7695C322.625 21.446 322.565 21.0563 322.565 20.6006V16.5811H320.624V15.6035H322.565V13.8125H323.837ZM328.896 19.2334C328.896 18.7002 328.973 18.2057 329.128 17.75C329.283 17.2897 329.504 16.891 329.791 16.5537C330.083 16.2165 330.436 15.9521 330.851 15.7607C331.265 15.5648 331.732 15.4668 332.252 15.4668C332.776 15.4668 333.245 15.5648 333.66 15.7607C334.079 15.9521 334.433 16.2165 334.72 16.5537C335.011 16.891 335.235 17.2897 335.39 17.75C335.545 18.2057 335.622 18.7002 335.622 19.2334V19.3838C335.622 19.917 335.545 20.4115 335.39 20.8672C335.235 21.3229 335.011 21.7194 334.72 22.0566C334.433 22.3939 334.082 22.6582 333.667 22.8496C333.252 23.041 332.785 23.1367 332.266 23.1367C331.742 23.1367 331.27 23.041 330.851 22.8496C330.436 22.6582 330.083 22.3939 329.791 22.0566C329.504 21.7194 329.283 21.3229 329.128 20.8672C328.973 20.4115 328.896 19.917 328.896 19.3838V19.2334ZM330.16 19.3838C330.16 19.7484 330.203 20.097 330.29 20.4297C330.377 20.7578 330.507 21.0472 330.68 21.2979C330.857 21.5485 331.078 21.7467 331.343 21.8926C331.607 22.0384 331.915 22.1113 332.266 22.1113C332.612 22.1113 332.915 22.0384 333.175 21.8926C333.439 21.7467 333.658 21.5485 333.831 21.2979C334.009 21.0472 334.141 20.7578 334.228 20.4297C334.314 20.097 334.357 19.7484 334.357 19.3838V19.2334C334.357 18.8734 334.312 18.5293 334.221 18.2012C334.134 17.8685 334.002 17.5768 333.824 17.3262C333.651 17.0755 333.432 16.8773 333.168 16.7314C332.908 16.5811 332.603 16.5059 332.252 16.5059C331.901 16.5059 331.596 16.5811 331.336 16.7314C331.076 16.8773 330.857 17.0755 330.68 17.3262C330.507 17.5768 330.377 17.8685 330.29 18.2012C330.203 18.5293 330.16 18.8734 330.16 19.2334V19.3838ZM342.506 15.4668C342.624 15.4668 342.747 15.4714 342.875 15.4805C343.003 15.485 343.123 15.4964 343.237 15.5146C343.356 15.5283 343.463 15.5465 343.559 15.5693C343.659 15.5921 343.741 15.6172 343.805 15.6445L343.634 16.8818C343.388 16.8271 343.153 16.7884 342.93 16.7656C342.711 16.7383 342.481 16.7246 342.239 16.7246C341.647 16.7246 341.166 16.859 340.797 17.1279C340.432 17.3968 340.163 17.7728 339.99 18.2559V23H338.719V15.6035H339.922L339.983 16.7793C340.284 16.3737 340.644 16.0547 341.063 15.8223C341.487 15.5853 341.968 15.4668 342.506 15.4668ZM239.74 29.1797V34.4971C239.736 35.2347 239.503 35.8381 239.042 36.3071C238.583 36.7762 237.96 37.0394 237.172 37.0967L236.898 37.1074C236.043 37.1074 235.361 36.8765 234.852 36.4146C234.344 35.9526 234.086 35.3171 234.079 34.5078V29.1797H235.099V34.4756C235.099 35.0413 235.255 35.4818 235.566 35.7969C235.878 36.1084 236.322 36.2642 236.898 36.2642C237.482 36.2642 237.928 36.1084 238.236 35.7969C238.547 35.4854 238.703 35.0467 238.703 34.481V29.1797H239.74ZM244.595 35.4585C244.595 35.1899 244.493 34.9823 244.289 34.8354C244.089 34.6851 243.736 34.5562 243.231 34.4487C242.73 34.3413 242.33 34.2124 242.033 34.062C241.74 33.9116 241.521 33.7326 241.378 33.5249C241.238 33.3172 241.168 33.0701 241.168 32.7837C241.168 32.3075 241.369 31.9046 241.77 31.5752C242.175 31.2458 242.69 31.0811 243.317 31.0811C243.976 31.0811 244.509 31.2511 244.917 31.5913C245.329 31.9315 245.535 32.3665 245.535 32.8965H244.536C244.536 32.6243 244.42 32.3898 244.187 32.1929C243.958 31.9959 243.668 31.8975 243.317 31.8975C242.955 31.8975 242.672 31.9762 242.468 32.1338C242.264 32.2913 242.162 32.4972 242.162 32.7515C242.162 32.9914 242.257 33.1722 242.447 33.2939C242.637 33.4157 242.979 33.5321 243.473 33.6431C243.97 33.7541 244.373 33.8866 244.681 34.0405C244.989 34.1945 245.216 34.3807 245.363 34.5991C245.514 34.814 245.589 35.0771 245.589 35.3887C245.589 35.9079 245.381 36.325 244.966 36.6401C244.55 36.9517 244.012 37.1074 243.349 37.1074C242.884 37.1074 242.472 37.0251 242.114 36.8604C241.756 36.6956 241.475 36.4665 241.271 36.1729C241.07 35.8757 240.97 35.5552 240.97 35.2114H241.963C241.981 35.5444 242.114 35.8094 242.361 36.0063C242.611 36.1997 242.941 36.2964 243.349 36.2964C243.725 36.2964 244.026 36.2212 244.251 36.0708C244.481 35.9168 244.595 35.7127 244.595 35.4585ZM249.295 37.1074C248.507 37.1074 247.866 36.8496 247.372 36.334C246.878 35.8148 246.631 35.1219 246.631 34.2554V34.0728C246.631 33.4963 246.74 32.9824 246.958 32.5312C247.181 32.0765 247.488 31.722 247.882 31.4678C248.28 31.21 248.709 31.0811 249.171 31.0811C249.927 31.0811 250.514 31.3299 250.933 31.8276C251.352 32.3254 251.562 33.0379 251.562 33.9653V34.3789H247.625C247.639 34.9518 247.805 35.4155 248.124 35.77C248.446 36.1209 248.854 36.2964 249.349 36.2964C249.7 36.2964 249.997 36.2248 250.24 36.0815C250.484 35.9383 250.697 35.7485 250.879 35.5122L251.486 35.9849C250.999 36.7332 250.269 37.1074 249.295 37.1074ZM249.171 31.8975C248.77 31.8975 248.434 32.0443 248.162 32.3379C247.889 32.6279 247.721 33.0361 247.657 33.5625H250.568V33.4873C250.539 32.9824 250.403 32.5921 250.16 32.3164C249.916 32.0371 249.587 31.8975 249.171 31.8975ZM256.1 35.4585C256.1 35.1899 255.998 34.9823 255.794 34.8354C255.593 34.6851 255.241 34.5562 254.736 34.4487C254.235 34.3413 253.835 34.2124 253.538 34.062C253.244 33.9116 253.026 33.7326 252.883 33.5249C252.743 33.3172 252.673 33.0701 252.673 32.7837C252.673 32.3075 252.874 31.9046 253.275 31.5752C253.68 31.2458 254.195 31.0811 254.822 31.0811C255.481 31.0811 256.014 31.2511 256.422 31.5913C256.834 31.9315 257.04 32.3665 257.04 32.8965H256.041C256.041 32.6243 255.925 32.3898 255.692 32.1929C255.463 31.9959 255.173 31.8975 254.822 31.8975C254.46 31.8975 254.177 31.9762 253.973 32.1338C253.769 32.2913 253.667 32.4972 253.667 32.7515C253.667 32.9914 253.762 33.1722 253.952 33.2939C254.141 33.4157 254.483 33.5321 254.978 33.6431C255.475 33.7541 255.878 33.8866 256.186 34.0405C256.494 34.1945 256.721 34.3807 256.868 34.5991C257.019 34.814 257.094 35.0771 257.094 35.3887C257.094 35.9079 256.886 36.325 256.471 36.6401C256.055 36.9517 255.516 37.1074 254.854 37.1074C254.389 37.1074 253.977 37.0251 253.619 36.8604C253.261 36.6956 252.979 36.4665 252.775 36.1729C252.575 35.8757 252.475 35.5552 252.475 35.2114H253.468C253.486 35.5444 253.619 35.8094 253.866 36.0063C254.116 36.1997 254.446 36.2964 254.854 36.2964C255.23 36.2964 255.531 36.2212 255.756 36.0708C255.986 35.9168 256.1 35.7127 256.1 35.4585ZM262.051 31.1885L262.078 31.833C262.504 31.3317 263.079 31.0811 263.802 31.0811C264.615 31.0811 265.168 31.3926 265.462 32.0156C265.655 31.7363 265.906 31.5107 266.214 31.3389C266.525 31.167 266.892 31.0811 267.315 31.0811C268.59 31.0811 269.238 31.756 269.259 33.106V37H268.266V33.165C268.266 32.7497 268.171 32.4399 267.981 32.2358C267.791 32.0282 267.472 31.9243 267.025 31.9243C266.656 31.9243 266.35 32.0353 266.106 32.2573C265.863 32.4757 265.722 32.7712 265.682 33.1436V37H264.683V33.1919C264.683 32.3468 264.27 31.9243 263.442 31.9243C262.791 31.9243 262.345 32.2018 262.105 32.7568V37H261.111V31.1885H262.051ZM270.5 34.0405C270.5 33.4712 270.611 32.9591 270.833 32.5044C271.059 32.0496 271.37 31.6987 271.768 31.4517C272.169 31.2046 272.625 31.0811 273.137 31.0811C273.929 31.0811 274.568 31.355 275.055 31.9028C275.545 32.4507 275.791 33.1794 275.791 34.0889V34.1587C275.791 34.7244 275.681 35.2329 275.463 35.6841C275.248 36.1317 274.938 36.4808 274.534 36.7314C274.133 36.9821 273.671 37.1074 273.148 37.1074C272.36 37.1074 271.721 36.8335 271.23 36.2856C270.743 35.7378 270.5 35.0127 270.5 34.1104V34.0405ZM271.499 34.1587C271.499 34.8032 271.648 35.3206 271.945 35.7109C272.246 36.1012 272.647 36.2964 273.148 36.2964C273.653 36.2964 274.054 36.0994 274.351 35.7056C274.648 35.3081 274.797 34.7531 274.797 34.0405C274.797 33.4032 274.645 32.8875 274.34 32.4937C274.04 32.0962 273.639 31.8975 273.137 31.8975C272.647 31.8975 272.251 32.0926 271.95 32.4829C271.649 32.8732 271.499 33.4318 271.499 34.1587ZM276.795 34.0459C276.795 33.1543 277.006 32.4382 277.429 31.8975C277.851 31.3532 278.404 31.0811 279.088 31.0811C279.769 31.0811 280.308 31.3138 280.705 31.7793V28.75H281.699V37H280.786L280.737 36.377C280.34 36.8639 279.787 37.1074 279.078 37.1074C278.404 37.1074 277.855 36.8317 277.429 36.2803C277.006 35.7288 276.795 35.0091 276.795 34.1211V34.0459ZM277.789 34.1587C277.789 34.8175 277.925 35.3332 278.197 35.7056C278.469 36.078 278.845 36.2642 279.325 36.2642C279.955 36.2642 280.415 35.9813 280.705 35.4155V32.7461C280.408 32.1982 279.951 31.9243 279.335 31.9243C278.848 31.9243 278.469 32.1123 278.197 32.4883C277.925 32.8643 277.789 33.4211 277.789 34.1587ZM285.657 37.1074C284.869 37.1074 284.229 36.8496 283.734 36.334C283.24 35.8148 282.993 35.1219 282.993 34.2554V34.0728C282.993 33.4963 283.102 32.9824 283.321 32.5312C283.543 32.0765 283.851 31.722 284.245 31.4678C284.642 31.21 285.072 31.0811 285.534 31.0811C286.289 31.0811 286.876 31.3299 287.295 31.8276C287.714 32.3254 287.924 33.0379 287.924 33.9653V34.3789H283.987C284.001 34.9518 284.168 35.4155 284.486 35.77C284.809 36.1209 285.217 36.2964 285.711 36.2964C286.062 36.2964 286.359 36.2248 286.603 36.0815C286.846 35.9383 287.059 35.7485 287.242 35.5122L287.849 35.9849C287.362 36.7332 286.631 37.1074 285.657 37.1074ZM285.534 31.8975C285.133 31.8975 284.796 32.0443 284.524 32.3379C284.252 32.6279 284.083 33.0361 284.019 33.5625H286.93V33.4873C286.902 32.9824 286.765 32.5921 286.522 32.3164C286.278 32.0371 285.949 31.8975 285.534 31.8975ZM290.158 37H289.165V28.75H290.158V37ZM295.137 35.4585C295.137 35.1899 295.035 34.9823 294.831 34.8354C294.631 34.6851 294.278 34.5562 293.773 34.4487C293.272 34.3413 292.872 34.2124 292.575 34.062C292.282 33.9116 292.063 33.7326 291.92 33.5249C291.78 33.3172 291.71 33.0701 291.71 32.7837C291.71 32.3075 291.911 31.9046 292.312 31.5752C292.717 31.2458 293.232 31.0811 293.859 31.0811C294.518 31.0811 295.051 31.2511 295.459 31.5913C295.871 31.9315 296.077 32.3665 296.077 32.8965H295.078C295.078 32.6243 294.962 32.3898 294.729 32.1929C294.5 31.9959 294.21 31.8975 293.859 31.8975C293.497 31.8975 293.214 31.9762 293.01 32.1338C292.806 32.2913 292.704 32.4972 292.704 32.7515C292.704 32.9914 292.799 33.1722 292.989 33.2939C293.179 33.4157 293.521 33.5321 294.015 33.6431C294.512 33.7541 294.915 33.8866 295.223 34.0405C295.531 34.1945 295.758 34.3807 295.905 34.5991C296.056 34.814 296.131 35.0771 296.131 35.3887C296.131 35.9079 295.923 36.325 295.508 36.6401C295.092 36.9517 294.554 37.1074 293.891 37.1074C293.426 37.1074 293.014 37.0251 292.656 36.8604C292.298 36.6956 292.017 36.4665 291.812 36.1729C291.612 35.8757 291.512 35.5552 291.512 35.2114H292.505C292.523 35.5444 292.656 35.8094 292.903 36.0063C293.153 36.1997 293.483 36.2964 293.891 36.2964C294.267 36.2964 294.568 36.2212 294.793 36.0708C295.023 35.9168 295.137 35.7127 295.137 35.4585Z" fill="white"/>
</svg>
