<svg width="472" height="140" viewBox="0 0 472 140" fill="none" xmlns="http://www.w3.org/2000/svg">
<rect x="210" y="100" width="170" height="40" rx="5" fill="#C42C2D"/>
<path d="M261.335 120.399H257.021V123.927H262.032V125H255.709V115.047H261.964V116.127H257.021V119.326H261.335V120.399ZM266.298 124.104C266.749 124.104 267.143 123.968 267.48 123.694C267.818 123.421 268.005 123.079 268.041 122.669H269.237C269.215 123.093 269.069 123.496 268.8 123.879C268.531 124.262 268.171 124.567 267.72 124.795C267.273 125.023 266.799 125.137 266.298 125.137C265.291 125.137 264.489 124.802 263.892 124.132C263.299 123.457 263.003 122.537 263.003 121.37V121.158C263.003 120.438 263.135 119.798 263.399 119.237C263.664 118.677 264.042 118.242 264.534 117.932C265.031 117.622 265.617 117.467 266.291 117.467C267.12 117.467 267.809 117.715 268.355 118.212C268.907 118.709 269.201 119.354 269.237 120.146H268.041C268.005 119.668 267.822 119.276 267.494 118.971C267.171 118.661 266.77 118.506 266.291 118.506C265.648 118.506 265.149 118.738 264.794 119.203C264.443 119.663 264.268 120.331 264.268 121.206V121.445C264.268 122.298 264.443 122.954 264.794 123.414C265.145 123.874 265.646 124.104 266.298 124.104ZM270.324 121.233C270.324 120.509 270.465 119.857 270.748 119.278C271.035 118.7 271.432 118.253 271.938 117.938C272.448 117.624 273.029 117.467 273.681 117.467C274.688 117.467 275.501 117.815 276.121 118.513C276.745 119.21 277.058 120.137 277.058 121.295V121.384C277.058 122.104 276.919 122.751 276.641 123.325C276.367 123.895 275.973 124.339 275.458 124.658C274.948 124.977 274.36 125.137 273.694 125.137C272.692 125.137 271.878 124.788 271.254 124.091C270.634 123.394 270.324 122.471 270.324 121.322V121.233ZM271.596 121.384C271.596 122.204 271.785 122.863 272.163 123.359C272.546 123.856 273.056 124.104 273.694 124.104C274.337 124.104 274.847 123.854 275.226 123.353C275.604 122.847 275.793 122.14 275.793 121.233C275.793 120.422 275.599 119.766 275.212 119.265C274.829 118.759 274.319 118.506 273.681 118.506C273.056 118.506 272.553 118.754 272.17 119.251C271.787 119.748 271.596 120.459 271.596 121.384ZM282.95 123.038C282.95 122.696 282.82 122.432 282.561 122.245C282.305 122.054 281.856 121.89 281.214 121.753C280.576 121.616 280.068 121.452 279.689 121.261C279.316 121.069 279.038 120.841 278.855 120.577C278.678 120.313 278.589 119.998 278.589 119.634C278.589 119.028 278.844 118.515 279.354 118.096C279.869 117.676 280.526 117.467 281.323 117.467C282.162 117.467 282.841 117.683 283.36 118.116C283.884 118.549 284.146 119.103 284.146 119.777H282.875C282.875 119.431 282.727 119.132 282.431 118.882C282.139 118.631 281.77 118.506 281.323 118.506C280.863 118.506 280.503 118.606 280.243 118.807C279.983 119.007 279.854 119.269 279.854 119.593C279.854 119.898 279.974 120.128 280.216 120.283C280.457 120.438 280.893 120.586 281.521 120.728C282.155 120.869 282.668 121.037 283.06 121.233C283.451 121.429 283.741 121.666 283.928 121.944C284.119 122.218 284.215 122.553 284.215 122.949C284.215 123.61 283.951 124.141 283.422 124.542C282.893 124.938 282.207 125.137 281.364 125.137C280.772 125.137 280.248 125.032 279.792 124.822C279.336 124.613 278.979 124.321 278.719 123.947C278.464 123.569 278.336 123.161 278.336 122.724H279.601C279.623 123.147 279.792 123.485 280.106 123.735C280.425 123.981 280.845 124.104 281.364 124.104C281.843 124.104 282.226 124.009 282.513 123.817C282.804 123.621 282.95 123.362 282.95 123.038ZM288.282 123.147L290.005 117.604H291.358L288.385 126.142C287.924 127.372 287.193 127.987 286.19 127.987L285.951 127.967L285.479 127.878V126.853L285.821 126.88C286.25 126.88 286.582 126.793 286.819 126.62C287.061 126.447 287.259 126.13 287.414 125.67L287.694 124.918L285.056 117.604H286.437L288.282 123.147ZM296.8 123.038C296.8 122.696 296.67 122.432 296.41 122.245C296.155 122.054 295.706 121.89 295.063 121.753C294.425 121.616 293.917 121.452 293.539 121.261C293.165 121.069 292.887 120.841 292.705 120.577C292.527 120.313 292.438 119.998 292.438 119.634C292.438 119.028 292.694 118.515 293.204 118.096C293.719 117.676 294.375 117.467 295.173 117.467C296.011 117.467 296.69 117.683 297.21 118.116C297.734 118.549 297.996 119.103 297.996 119.777H296.725C296.725 119.431 296.576 119.132 296.28 118.882C295.989 118.631 295.619 118.506 295.173 118.506C294.713 118.506 294.353 118.606 294.093 118.807C293.833 119.007 293.703 119.269 293.703 119.593C293.703 119.898 293.824 120.128 294.065 120.283C294.307 120.438 294.742 120.586 295.371 120.728C296.005 120.869 296.517 121.037 296.909 121.233C297.301 121.429 297.59 121.666 297.777 121.944C297.969 122.218 298.064 122.553 298.064 122.949C298.064 123.61 297.8 124.141 297.271 124.542C296.743 124.938 296.057 125.137 295.214 125.137C294.621 125.137 294.097 125.032 293.642 124.822C293.186 124.613 292.828 124.321 292.568 123.947C292.313 123.569 292.186 123.161 292.186 122.724H293.45C293.473 123.147 293.642 123.485 293.956 123.735C294.275 123.981 294.694 124.104 295.214 124.104C295.692 124.104 296.075 124.009 296.362 123.817C296.654 123.621 296.8 123.362 296.8 123.038ZM301.428 115.812V117.604H302.809V118.581H301.428V123.168C301.428 123.464 301.489 123.688 301.612 123.838C301.735 123.984 301.945 124.057 302.241 124.057C302.387 124.057 302.588 124.029 302.843 123.975V125C302.51 125.091 302.187 125.137 301.872 125.137C301.307 125.137 300.881 124.966 300.594 124.624C300.307 124.282 300.163 123.797 300.163 123.168V118.581H298.816V117.604H300.163V115.812H301.428ZM307.361 125.137C306.359 125.137 305.543 124.809 304.914 124.152C304.285 123.492 303.971 122.61 303.971 121.507V121.274C303.971 120.541 304.11 119.887 304.388 119.312C304.67 118.734 305.062 118.283 305.563 117.959C306.069 117.631 306.616 117.467 307.204 117.467C308.166 117.467 308.913 117.784 309.446 118.417C309.979 119.05 310.246 119.957 310.246 121.138V121.664H305.235C305.254 122.393 305.465 122.983 305.871 123.435C306.281 123.881 306.801 124.104 307.43 124.104C307.876 124.104 308.255 124.013 308.564 123.831C308.874 123.649 309.146 123.407 309.378 123.106L310.15 123.708C309.531 124.66 308.601 125.137 307.361 125.137ZM307.204 118.506C306.694 118.506 306.265 118.693 305.919 119.066C305.573 119.436 305.358 119.955 305.276 120.625H308.981V120.529C308.945 119.887 308.772 119.39 308.462 119.039C308.152 118.684 307.733 118.506 307.204 118.506ZM312.905 117.604L312.939 118.424C313.482 117.786 314.213 117.467 315.134 117.467C316.168 117.467 316.872 117.863 317.246 118.656C317.492 118.301 317.811 118.014 318.203 117.795C318.6 117.576 319.067 117.467 319.604 117.467C321.227 117.467 322.052 118.326 322.079 120.044V125H320.814V120.119C320.814 119.59 320.694 119.196 320.452 118.937C320.211 118.672 319.805 118.54 319.235 118.54C318.766 118.54 318.376 118.681 318.066 118.964C317.757 119.242 317.576 119.618 317.526 120.092V125H316.255V120.153C316.255 119.078 315.729 118.54 314.676 118.54C313.846 118.54 313.279 118.893 312.974 119.6V125H311.709V117.604H312.905ZM329.359 115.047L332.613 123.168L335.867 115.047H337.569V125H336.257V121.124L336.38 116.94L333.112 125H332.107L328.847 116.961L328.977 121.124V125H327.664V115.047H329.359ZM339.354 121.233C339.354 120.509 339.495 119.857 339.777 119.278C340.064 118.7 340.461 118.253 340.967 117.938C341.477 117.624 342.058 117.467 342.71 117.467C343.717 117.467 344.531 117.815 345.15 118.513C345.775 119.21 346.087 120.137 346.087 121.295V121.384C346.087 122.104 345.948 122.751 345.67 123.325C345.396 123.895 345.002 124.339 344.487 124.658C343.977 124.977 343.389 125.137 342.724 125.137C341.721 125.137 340.908 124.788 340.283 124.091C339.663 123.394 339.354 122.471 339.354 121.322V121.233ZM340.625 121.384C340.625 122.204 340.814 122.863 341.192 123.359C341.575 123.856 342.086 124.104 342.724 124.104C343.366 124.104 343.877 123.854 344.255 123.353C344.633 122.847 344.822 122.14 344.822 121.233C344.822 120.422 344.629 119.766 344.241 119.265C343.858 118.759 343.348 118.506 342.71 118.506C342.086 118.506 341.582 118.754 341.199 119.251C340.816 119.748 340.625 120.459 340.625 121.384ZM347.365 121.24C347.365 120.105 347.634 119.194 348.172 118.506C348.71 117.813 349.414 117.467 350.284 117.467C351.15 117.467 351.836 117.763 352.342 118.355V114.5H353.606V125H352.444L352.383 124.207C351.877 124.827 351.173 125.137 350.271 125.137C349.414 125.137 348.714 124.786 348.172 124.084C347.634 123.382 347.365 122.466 347.365 121.336V121.24ZM348.63 121.384C348.63 122.222 348.803 122.879 349.149 123.353C349.496 123.826 349.974 124.063 350.585 124.063C351.387 124.063 351.973 123.703 352.342 122.983V119.586C351.964 118.889 351.382 118.54 350.599 118.54C349.979 118.54 349.496 118.779 349.149 119.258C348.803 119.736 348.63 120.445 348.63 121.384ZM358.645 125.137C357.642 125.137 356.826 124.809 356.197 124.152C355.568 123.492 355.254 122.61 355.254 121.507V121.274C355.254 120.541 355.393 119.887 355.671 119.312C355.953 118.734 356.345 118.283 356.847 117.959C357.353 117.631 357.899 117.467 358.487 117.467C359.449 117.467 360.196 117.784 360.729 118.417C361.263 119.05 361.529 119.957 361.529 121.138V121.664H356.519C356.537 122.393 356.749 122.983 357.154 123.435C357.564 123.881 358.084 124.104 358.713 124.104C359.16 124.104 359.538 124.013 359.848 123.831C360.158 123.649 360.429 123.407 360.661 123.106L361.434 123.708C360.814 124.66 359.884 125.137 358.645 125.137ZM358.487 118.506C357.977 118.506 357.549 118.693 357.202 119.066C356.856 119.436 356.642 119.955 356.56 120.625H360.265V120.529C360.228 119.887 360.055 119.39 359.745 119.039C359.435 118.684 359.016 118.506 358.487 118.506ZM364.373 125H363.108V114.5H364.373V125Z" fill="white"/>
<path d="M229.914 110.07C229.107 110.073 228.335 110.142 227.656 110.262C225.657 110.616 225.294 111.355 225.294 112.719V114.519H230.019V115.12H225.294H223.521C222.147 115.12 220.945 115.945 220.569 117.515C220.135 119.315 220.116 120.438 220.569 122.318C220.905 123.716 221.707 124.713 223.08 124.713H224.705V122.554C224.705 120.995 226.054 119.619 227.656 119.619H232.376C233.69 119.619 234.738 118.537 234.738 117.218V112.719C234.738 111.438 233.658 110.476 232.376 110.262C231.564 110.127 230.722 110.066 229.914 110.07ZM227.359 111.518C227.847 111.518 228.246 111.923 228.246 112.421C228.246 112.917 227.847 113.319 227.359 113.319C226.869 113.319 226.472 112.917 226.472 112.421C226.472 111.923 226.869 111.518 227.359 111.518Z" fill="white"/>
<path d="M235.328 115.12V117.218C235.328 118.845 233.949 120.214 232.376 120.214H227.656C226.364 120.214 225.294 121.32 225.294 122.615V127.114C225.294 128.394 226.407 129.148 227.656 129.515C229.152 129.955 230.586 130.035 232.376 129.515C233.565 129.171 234.738 128.477 234.738 127.114V125.313H230.019V124.713H234.738H237.101C238.474 124.713 238.986 123.755 239.463 122.318C239.957 120.837 239.936 119.414 239.463 117.515C239.124 116.148 238.476 115.12 237.101 115.12H235.328V115.12ZM232.673 126.514C233.163 126.514 233.56 126.915 233.56 127.411C233.56 127.909 233.163 128.314 232.673 128.314C232.185 128.314 231.787 127.909 231.787 127.411C231.787 126.915 232.185 126.514 232.673 126.514Z" fill="white"/>
<path d="M295.707 80.2929C295.317 79.9024 294.683 79.9024 294.293 80.2929L287.929 86.6569C287.538 87.0474 287.538 87.6805 287.929 88.0711C288.319 88.4616 288.953 88.4616 289.343 88.0711L295 82.4142L300.657 88.0711C301.047 88.4616 301.681 88.4616 302.071 88.0711C302.462 87.6805 302.462 87.0474 302.071 86.6569L295.707 80.2929ZM296 100L296 81L294 81L294 100L296 100Z" fill="black"/>
<rect width="170" height="40" rx="5" fill="#54C42C"/>
<path d="M51.2871 20.5635C50.1615 20.2399 49.3411 19.8434 48.8262 19.374C48.3158 18.9001 48.0605 18.3167 48.0605 17.624C48.0605 16.8402 48.3727 16.193 48.9971 15.6826C49.626 15.1676 50.4417 14.9102 51.4443 14.9102C52.1279 14.9102 52.7363 15.0423 53.2695 15.3066C53.8073 15.571 54.222 15.9355 54.5137 16.4004C54.8099 16.8652 54.958 17.3734 54.958 17.9248H53.6387C53.6387 17.3232 53.4473 16.8516 53.0645 16.5098C52.6816 16.1634 52.1416 15.9902 51.4443 15.9902C50.7972 15.9902 50.2913 16.1338 49.9268 16.4209C49.5667 16.7035 49.3867 17.0977 49.3867 17.6035C49.3867 18.0091 49.5576 18.3532 49.8994 18.6357C50.2458 18.9137 50.8314 19.1689 51.6562 19.4014C52.4857 19.6338 53.1328 19.8913 53.5977 20.1738C54.0671 20.4518 54.4134 20.7777 54.6367 21.1514C54.8646 21.5251 54.9785 21.9648 54.9785 22.4707C54.9785 23.2773 54.6641 23.9245 54.0352 24.4121C53.4062 24.8952 52.5654 25.1367 51.5127 25.1367C50.8291 25.1367 50.1911 25.0068 49.5986 24.7471C49.0062 24.4827 48.5482 24.1227 48.2246 23.667C47.9056 23.2113 47.7461 22.694 47.7461 22.1152H49.0654C49.0654 22.7168 49.2865 23.193 49.7285 23.5439C50.1751 23.8903 50.7699 24.0635 51.5127 24.0635C52.2054 24.0635 52.7363 23.9222 53.1055 23.6396C53.4746 23.3571 53.6592 22.972 53.6592 22.4844C53.6592 21.9967 53.4883 21.6208 53.1465 21.3564C52.8047 21.0876 52.1849 20.8232 51.2871 20.5635ZM59.4355 24.1045C59.8867 24.1045 60.2809 23.9678 60.6182 23.6943C60.9554 23.4209 61.1423 23.0791 61.1787 22.6689H62.375C62.3522 23.0928 62.2064 23.4961 61.9375 23.8789C61.6686 24.2617 61.3086 24.5671 60.8574 24.7949C60.4108 25.0228 59.9368 25.1367 59.4355 25.1367C58.4284 25.1367 57.6263 24.8018 57.0293 24.1318C56.4368 23.4574 56.1406 22.5368 56.1406 21.3701V21.1582C56.1406 20.4382 56.2728 19.7979 56.5371 19.2373C56.8014 18.6768 57.1797 18.2415 57.6719 17.9316C58.1686 17.6217 58.7542 17.4668 59.4287 17.4668C60.2581 17.4668 60.9463 17.7152 61.4932 18.2119C62.0446 18.7087 62.3385 19.3535 62.375 20.1465H61.1787C61.1423 19.668 60.96 19.276 60.6318 18.9707C60.3083 18.6608 59.9072 18.5059 59.4287 18.5059C58.7861 18.5059 58.2871 18.7383 57.9316 19.2031C57.5807 19.6634 57.4053 20.3311 57.4053 21.2061V21.4453C57.4053 22.2975 57.5807 22.9538 57.9316 23.4141C58.2826 23.8743 58.7839 24.1045 59.4355 24.1045ZM67.3721 18.7383C67.1807 18.7064 66.9733 18.6904 66.75 18.6904C65.9206 18.6904 65.3577 19.0436 65.0615 19.75V25H63.7969V17.6035H65.0273L65.0479 18.458C65.4626 17.7972 66.0505 17.4668 66.8115 17.4668C67.0576 17.4668 67.2445 17.4987 67.3721 17.5625V18.7383ZM72.834 25C72.7611 24.8542 72.7018 24.5944 72.6562 24.2207C72.0684 24.8314 71.3665 25.1367 70.5508 25.1367C69.8216 25.1367 69.2223 24.9316 68.7529 24.5215C68.2881 24.1068 68.0557 23.5827 68.0557 22.9492C68.0557 22.179 68.3473 21.582 68.9307 21.1582C69.5186 20.7298 70.3434 20.5156 71.4053 20.5156H72.6357V19.9346C72.6357 19.4925 72.5036 19.1416 72.2393 18.8818C71.9749 18.6175 71.5853 18.4854 71.0703 18.4854C70.6191 18.4854 70.2409 18.5993 69.9355 18.8271C69.6302 19.055 69.4775 19.3307 69.4775 19.6543H68.2061C68.2061 19.2852 68.3359 18.9297 68.5957 18.5879C68.86 18.2415 69.2155 17.9681 69.6621 17.7676C70.1133 17.5671 70.6077 17.4668 71.1455 17.4668C71.9977 17.4668 72.6654 17.681 73.1484 18.1094C73.6315 18.5332 73.8822 19.1188 73.9004 19.8662V23.2705C73.9004 23.9495 73.987 24.4896 74.1602 24.8906V25H72.834ZM70.7354 24.0361C71.1318 24.0361 71.5078 23.9336 71.8633 23.7285C72.2188 23.5234 72.4762 23.2568 72.6357 22.9287V21.4111H71.6445C70.0951 21.4111 69.3203 21.8646 69.3203 22.7715C69.3203 23.168 69.4525 23.4779 69.7168 23.7012C69.9811 23.9245 70.3206 24.0361 70.7354 24.0361ZM82.1309 21.3838C82.1309 22.5094 81.8734 23.4163 81.3584 24.1045C80.8434 24.7926 80.1462 25.1367 79.2666 25.1367C78.3688 25.1367 77.6624 24.8519 77.1475 24.2822V27.8438H75.8828V17.6035H77.0381L77.0996 18.4238C77.6146 17.7858 78.3301 17.4668 79.2461 17.4668C80.1348 17.4668 80.8366 17.8018 81.3516 18.4717C81.8711 19.1416 82.1309 20.0736 82.1309 21.2676V21.3838ZM80.8662 21.2402C80.8662 20.4062 80.6885 19.7477 80.333 19.2646C79.9775 18.7816 79.4899 18.54 78.8701 18.54C78.1045 18.54 77.5303 18.8796 77.1475 19.5586V23.0928C77.5257 23.7673 78.1045 24.1045 78.8838 24.1045C79.4899 24.1045 79.9707 23.8652 80.3262 23.3867C80.6862 22.9036 80.8662 22.1882 80.8662 21.2402ZM86.8135 25.1367C85.8109 25.1367 84.9951 24.8086 84.3662 24.1523C83.7373 23.4915 83.4229 22.6097 83.4229 21.5068V21.2744C83.4229 20.5407 83.5618 19.8867 83.8398 19.3125C84.1224 18.7337 84.5143 18.2826 85.0156 17.959C85.5215 17.6309 86.0684 17.4668 86.6562 17.4668C87.6178 17.4668 88.3652 17.7835 88.8984 18.417C89.4316 19.0505 89.6982 19.9574 89.6982 21.1377V21.6641H84.6875C84.7057 22.3932 84.9176 22.9834 85.3232 23.4346C85.7334 23.8812 86.2529 24.1045 86.8818 24.1045C87.3285 24.1045 87.7067 24.0133 88.0166 23.8311C88.3265 23.6488 88.5977 23.4072 88.8301 23.1064L89.6025 23.708C88.9827 24.6605 88.0531 25.1367 86.8135 25.1367ZM86.6562 18.5059C86.1458 18.5059 85.7174 18.6927 85.3711 19.0664C85.0247 19.4355 84.8105 19.9551 84.7285 20.625H88.4336V20.5293C88.3971 19.8867 88.224 19.39 87.9141 19.0391C87.6042 18.6836 87.1849 18.5059 86.6562 18.5059ZM94.8389 25V15.0469H97.6484C98.5143 15.0469 99.2799 15.2383 99.9453 15.6211C100.611 16.0039 101.123 16.5485 101.483 17.2549C101.848 17.9613 102.033 18.7725 102.037 19.6885V20.3242C102.037 21.263 101.855 22.0856 101.49 22.792C101.13 23.4984 100.613 24.0407 99.9385 24.4189C99.2686 24.7972 98.487 24.9909 97.5938 25H94.8389ZM96.1514 16.127V23.9268H97.5322C98.5439 23.9268 99.3301 23.6123 99.8906 22.9834C100.456 22.3545 100.738 21.459 100.738 20.2969V19.7158C100.738 18.5856 100.472 17.7083 99.9385 17.084C99.4098 16.4551 98.6579 16.1361 97.6826 16.127H96.1514ZM108.395 25C108.322 24.8542 108.262 24.5944 108.217 24.2207C107.629 24.8314 106.927 25.1367 106.111 25.1367C105.382 25.1367 104.783 24.9316 104.313 24.5215C103.849 24.1068 103.616 23.5827 103.616 22.9492C103.616 22.179 103.908 21.582 104.491 21.1582C105.079 20.7298 105.904 20.5156 106.966 20.5156H108.196V19.9346C108.196 19.4925 108.064 19.1416 107.8 18.8818C107.535 18.6175 107.146 18.4854 106.631 18.4854C106.18 18.4854 105.801 18.5993 105.496 18.8271C105.191 19.055 105.038 19.3307 105.038 19.6543H103.767C103.767 19.2852 103.896 18.9297 104.156 18.5879C104.421 18.2415 104.776 17.9681 105.223 17.7676C105.674 17.5671 106.168 17.4668 106.706 17.4668C107.558 17.4668 108.226 17.681 108.709 18.1094C109.192 18.5332 109.443 19.1188 109.461 19.8662V23.2705C109.461 23.9495 109.548 24.4896 109.721 24.8906V25H108.395ZM106.296 24.0361C106.692 24.0361 107.068 23.9336 107.424 23.7285C107.779 23.5234 108.037 23.2568 108.196 22.9287V21.4111H107.205C105.656 21.4111 104.881 21.8646 104.881 22.7715C104.881 23.168 105.013 23.4779 105.277 23.7012C105.542 23.9245 105.881 24.0361 106.296 24.0361ZM113.159 15.8125V17.6035H114.54V18.5811H113.159V23.168C113.159 23.4642 113.221 23.6875 113.344 23.8379C113.467 23.9837 113.676 24.0566 113.973 24.0566C114.118 24.0566 114.319 24.0293 114.574 23.9746V25C114.242 25.0911 113.918 25.1367 113.604 25.1367C113.038 25.1367 112.612 24.9658 112.325 24.624C112.038 24.2822 111.895 23.7969 111.895 23.168V18.5811H110.548V17.6035H111.895V15.8125H113.159ZM120.59 25C120.517 24.8542 120.458 24.5944 120.412 24.2207C119.824 24.8314 119.122 25.1367 118.307 25.1367C117.577 25.1367 116.978 24.9316 116.509 24.5215C116.044 24.1068 115.812 23.5827 115.812 22.9492C115.812 22.179 116.103 21.582 116.687 21.1582C117.274 20.7298 118.099 20.5156 119.161 20.5156H120.392V19.9346C120.392 19.4925 120.259 19.1416 119.995 18.8818C119.731 18.6175 119.341 18.4854 118.826 18.4854C118.375 18.4854 117.997 18.5993 117.691 18.8271C117.386 19.055 117.233 19.3307 117.233 19.6543H115.962C115.962 19.2852 116.092 18.9297 116.352 18.5879C116.616 18.2415 116.971 17.9681 117.418 17.7676C117.869 17.5671 118.364 17.4668 118.901 17.4668C119.754 17.4668 120.421 17.681 120.904 18.1094C121.387 18.5332 121.638 19.1188 121.656 19.8662V23.2705C121.656 23.9495 121.743 24.4896 121.916 24.8906V25H120.59ZM118.491 24.0361C118.888 24.0361 119.264 23.9336 119.619 23.7285C119.975 23.5234 120.232 23.2568 120.392 22.9287V21.4111H119.4C117.851 21.4111 117.076 21.8646 117.076 22.7715C117.076 23.168 117.208 23.4779 117.473 23.7012C117.737 23.9245 118.076 24.0361 118.491 24.0361ZM129.9 21.3838C129.9 22.514 129.641 23.4232 129.121 24.1113C128.602 24.7949 127.904 25.1367 127.029 25.1367C126.095 25.1367 125.373 24.8063 124.862 24.1455L124.801 25H123.639V14.5H124.903V18.417C125.414 17.7835 126.118 17.4668 127.016 17.4668C127.913 17.4668 128.618 17.8063 129.128 18.4854C129.643 19.1644 129.9 20.0941 129.9 21.2744V21.3838ZM128.636 21.2402C128.636 20.3789 128.469 19.7135 128.137 19.2441C127.804 18.7747 127.326 18.54 126.701 18.54C125.867 18.54 125.268 18.9274 124.903 19.7021V22.9014C125.291 23.6761 125.895 24.0635 126.715 24.0635C127.321 24.0635 127.793 23.8288 128.13 23.3594C128.467 22.89 128.636 22.1836 128.636 21.2402ZM136.066 25C135.993 24.8542 135.934 24.5944 135.889 24.2207C135.301 24.8314 134.599 25.1367 133.783 25.1367C133.054 25.1367 132.455 24.9316 131.985 24.5215C131.521 24.1068 131.288 23.5827 131.288 22.9492C131.288 22.179 131.58 21.582 132.163 21.1582C132.751 20.7298 133.576 20.5156 134.638 20.5156H135.868V19.9346C135.868 19.4925 135.736 19.1416 135.472 18.8818C135.207 18.6175 134.818 18.4854 134.303 18.4854C133.852 18.4854 133.473 18.5993 133.168 18.8271C132.863 19.055 132.71 19.3307 132.71 19.6543H131.438C131.438 19.2852 131.568 18.9297 131.828 18.5879C132.092 18.2415 132.448 17.9681 132.895 17.7676C133.346 17.5671 133.84 17.4668 134.378 17.4668C135.23 17.4668 135.898 17.681 136.381 18.1094C136.864 18.5332 137.115 19.1188 137.133 19.8662V23.2705C137.133 23.9495 137.219 24.4896 137.393 24.8906V25H136.066ZM133.968 24.0361C134.364 24.0361 134.74 23.9336 135.096 23.7285C135.451 23.5234 135.709 23.2568 135.868 22.9287V21.4111H134.877C133.327 21.4111 132.553 21.8646 132.553 22.7715C132.553 23.168 132.685 23.4779 132.949 23.7012C133.214 23.9245 133.553 24.0361 133.968 24.0361ZM143.422 23.0381C143.422 22.6963 143.292 22.432 143.032 22.2451C142.777 22.0537 142.328 21.8896 141.686 21.7529C141.048 21.6162 140.539 21.4521 140.161 21.2607C139.787 21.0693 139.509 20.8415 139.327 20.5771C139.149 20.3128 139.061 19.9984 139.061 19.6338C139.061 19.0277 139.316 18.515 139.826 18.0957C140.341 17.6764 140.997 17.4668 141.795 17.4668C142.633 17.4668 143.312 17.6833 143.832 18.1162C144.356 18.5492 144.618 19.1029 144.618 19.7773H143.347C143.347 19.431 143.199 19.1325 142.902 18.8818C142.611 18.6312 142.242 18.5059 141.795 18.5059C141.335 18.5059 140.975 18.6061 140.715 18.8066C140.455 19.0072 140.325 19.2692 140.325 19.5928C140.325 19.8981 140.446 20.1283 140.688 20.2832C140.929 20.4382 141.364 20.5863 141.993 20.7275C142.627 20.8688 143.139 21.0374 143.531 21.2334C143.923 21.4294 144.213 21.6663 144.399 21.9443C144.591 22.2178 144.687 22.5527 144.687 22.9492C144.687 23.61 144.422 24.141 143.894 24.542C143.365 24.9385 142.679 25.1367 141.836 25.1367C141.243 25.1367 140.719 25.0319 140.264 24.8223C139.808 24.6126 139.45 24.321 139.19 23.9473C138.935 23.569 138.808 23.1611 138.808 22.7236H140.072C140.095 23.1475 140.264 23.4847 140.578 23.7354C140.897 23.9814 141.316 24.1045 141.836 24.1045C142.314 24.1045 142.697 24.0088 142.984 23.8174C143.276 23.6214 143.422 23.3617 143.422 23.0381ZM149.403 25.1367C148.401 25.1367 147.585 24.8086 146.956 24.1523C146.327 23.4915 146.013 22.6097 146.013 21.5068V21.2744C146.013 20.5407 146.152 19.8867 146.43 19.3125C146.712 18.7337 147.104 18.2826 147.605 17.959C148.111 17.6309 148.658 17.4668 149.246 17.4668C150.208 17.4668 150.955 17.7835 151.488 18.417C152.021 19.0505 152.288 19.9574 152.288 21.1377V21.6641H147.277C147.296 22.3932 147.507 22.9834 147.913 23.4346C148.323 23.8812 148.843 24.1045 149.472 24.1045C149.918 24.1045 150.297 24.0133 150.606 23.8311C150.916 23.6488 151.188 23.4072 151.42 23.1064L152.192 23.708C151.573 24.6605 150.643 25.1367 149.403 25.1367ZM149.246 18.5059C148.736 18.5059 148.307 18.6927 147.961 19.0664C147.615 19.4355 147.4 19.9551 147.318 20.625H151.023V20.5293C150.987 19.8867 150.814 19.39 150.504 19.0391C150.194 18.6836 149.775 18.5059 149.246 18.5059Z" fill="white"/>
<path d="M17.5182 28.75C13.3669 28.75 10 27.6294 10 26.25C10 25.4956 10 24.6704 10 23.75C10 23.5327 10.1089 23.3264 10.2655 23.125C11.1038 24.2017 14.0185 25 17.5182 25C21.018 25 23.9327 24.2017 24.771 23.125C24.9276 23.3264 25.0365 23.5327 25.0365 23.75C25.0365 24.4739 25.0365 25.2417 25.0365 26.25C25.0365 27.6294 21.6689 28.75 17.5182 28.75ZM17.5182 23.75C13.3669 23.75 10 22.6294 10 21.25C10 20.495 10 19.671 10 18.75C10 18.6176 10.0502 18.4888 10.1175 18.3612C10.1554 18.2812 10.2056 18.2025 10.2655 18.125C11.1038 19.2011 14.0185 20 17.5182 20C21.018 20 23.9327 19.2011 24.771 18.125C24.8309 18.2025 24.8811 18.2812 24.919 18.3612C24.9863 18.4888 25.0365 18.6176 25.0365 18.75C25.0365 19.4739 25.0365 20.2411 25.0365 21.25C25.0365 22.6294 21.6689 23.75 17.5182 23.75ZM17.5182 18.75C13.3669 18.75 10 17.63 10 16.25C10 15.8551 10 15.4376 10 15C10 14.6027 10 14.1901 10 13.75C10 12.37 13.3669 11.25 17.5182 11.25C21.6689 11.25 25.0365 12.37 25.0365 13.75C25.0365 14.14 25.0365 14.5538 25.0365 15C25.0365 15.3827 25.0365 15.7861 25.0365 16.25C25.0365 17.63 21.6689 18.75 17.5182 18.75ZM17.5182 12.5C14.7503 12.5 12.5061 13.0585 12.5061 13.75C12.5061 14.4415 14.7503 15 17.5182 15C20.2862 15 22.5304 14.4415 22.5304 13.75C22.5304 13.0585 20.2862 12.5 17.5182 12.5Z" fill="white"/>
<rect y="80" width="170" height="40" rx="5" fill="#54C42C"/>
<path d="M48.9971 95.0469V101.814C48.9925 102.753 48.6963 103.521 48.1084 104.118C47.5251 104.715 46.7321 105.05 45.7295 105.123L45.3809 105.137C44.2917 105.137 43.4235 104.843 42.7764 104.255C42.1292 103.667 41.8011 102.858 41.792 101.828V95.0469H43.0908V101.787C43.0908 102.507 43.2891 103.068 43.6855 103.469C44.082 103.865 44.6471 104.063 45.3809 104.063C46.1237 104.063 46.6911 103.865 47.083 103.469C47.4795 103.072 47.6777 102.514 47.6777 101.794V95.0469H48.9971ZM55.1768 103.038C55.1768 102.696 55.0469 102.432 54.7871 102.245C54.5319 102.054 54.083 101.89 53.4404 101.753C52.8024 101.616 52.2943 101.452 51.916 101.261C51.5423 101.069 51.2643 100.841 51.082 100.577C50.9043 100.313 50.8154 99.9984 50.8154 99.6338C50.8154 99.0277 51.0706 98.515 51.5811 98.0957C52.096 97.6764 52.7523 97.4668 53.5498 97.4668C54.3883 97.4668 55.0674 97.6833 55.5869 98.1162C56.111 98.5492 56.373 99.1029 56.373 99.7773H55.1016C55.1016 99.431 54.9535 99.1325 54.6572 98.8818C54.3656 98.6312 53.9964 98.5059 53.5498 98.5059C53.0895 98.5059 52.7295 98.6061 52.4697 98.8066C52.21 99.0072 52.0801 99.2692 52.0801 99.5928C52.0801 99.8981 52.2008 100.128 52.4424 100.283C52.6839 100.438 53.1191 100.586 53.748 100.728C54.3815 100.869 54.8942 101.037 55.2861 101.233C55.6781 101.429 55.9674 101.666 56.1543 101.944C56.3457 102.218 56.4414 102.553 56.4414 102.949C56.4414 103.61 56.1771 104.141 55.6484 104.542C55.1198 104.938 54.4339 105.137 53.5908 105.137C52.9984 105.137 52.4743 105.032 52.0186 104.822C51.5628 104.613 51.2051 104.321 50.9453 103.947C50.6901 103.569 50.5625 103.161 50.5625 102.724H51.8271C51.8499 103.147 52.0186 103.485 52.333 103.735C52.652 103.981 53.0713 104.104 53.5908 104.104C54.0693 104.104 54.4521 104.009 54.7393 103.817C55.0309 103.621 55.1768 103.362 55.1768 103.038ZM61.1582 105.137C60.1556 105.137 59.3398 104.809 58.7109 104.152C58.082 103.492 57.7676 102.61 57.7676 101.507V101.274C57.7676 100.541 57.9066 99.8867 58.1846 99.3125C58.4671 98.7337 58.859 98.2826 59.3604 97.959C59.8662 97.6309 60.4131 97.4668 61.001 97.4668C61.9626 97.4668 62.71 97.7835 63.2432 98.417C63.7764 99.0505 64.043 99.9574 64.043 101.138V101.664H59.0322C59.0505 102.393 59.2624 102.983 59.668 103.435C60.0781 103.881 60.5977 104.104 61.2266 104.104C61.6732 104.104 62.0514 104.013 62.3613 103.831C62.6712 103.649 62.9424 103.407 63.1748 103.106L63.9473 103.708C63.3275 104.66 62.3978 105.137 61.1582 105.137ZM61.001 98.5059C60.4906 98.5059 60.0622 98.6927 59.7158 99.0664C59.3695 99.4355 59.1553 99.9551 59.0732 100.625H62.7783V100.529C62.7419 99.8867 62.5687 99.39 62.2588 99.0391C61.9489 98.6836 61.5296 98.5059 61.001 98.5059ZM69.0879 98.7383C68.8965 98.7064 68.6891 98.6904 68.4658 98.6904C67.6364 98.6904 67.0736 99.0436 66.7773 99.75V105H65.5127V97.6035H66.7432L66.7637 98.458C67.1784 97.7972 67.7663 97.4668 68.5273 97.4668C68.7734 97.4668 68.9603 97.4987 69.0879 97.5625V98.7383ZM77.5781 100.974H75.2402V105H73.9209V95.0469H77.2158C78.3369 95.0469 79.1982 95.3021 79.7998 95.8125C80.4059 96.3229 80.709 97.0658 80.709 98.041C80.709 98.6608 80.5404 99.2008 80.2031 99.6611C79.8704 100.121 79.4056 100.465 78.8086 100.693L81.1465 104.918V105H79.7383L77.5781 100.974ZM75.2402 99.9004H77.2568C77.9085 99.9004 78.4258 99.7318 78.8086 99.3945C79.196 99.0573 79.3896 98.6061 79.3896 98.041C79.3896 97.4258 79.2051 96.9541 78.8359 96.626C78.4714 96.2979 77.9427 96.1315 77.25 96.127H75.2402V99.9004ZM85.4258 105.137C84.4232 105.137 83.6074 104.809 82.9785 104.152C82.3496 103.492 82.0352 102.61 82.0352 101.507V101.274C82.0352 100.541 82.1742 99.8867 82.4521 99.3125C82.7347 98.7337 83.1266 98.2826 83.6279 97.959C84.1338 97.6309 84.6807 97.4668 85.2686 97.4668C86.2301 97.4668 86.9775 97.7835 87.5107 98.417C88.0439 99.0505 88.3105 99.9574 88.3105 101.138V101.664H83.2998C83.318 102.393 83.5299 102.983 83.9355 103.435C84.3457 103.881 84.8652 104.104 85.4941 104.104C85.9408 104.104 86.319 104.013 86.6289 103.831C86.9388 103.649 87.21 103.407 87.4424 103.106L88.2148 103.708C87.5951 104.66 86.6654 105.137 85.4258 105.137ZM85.2686 98.5059C84.7581 98.5059 84.3298 98.6927 83.9834 99.0664C83.637 99.4355 83.4229 99.9551 83.3408 100.625H87.0459V100.529C87.0094 99.8867 86.8363 99.39 86.5264 99.0391C86.2165 98.6836 85.7972 98.5059 85.2686 98.5059ZM89.4727 101.24C89.4727 100.078 89.7393 99.1598 90.2725 98.4854C90.8057 97.8063 91.5212 97.4668 92.4189 97.4668C93.2939 97.4668 93.9844 97.7607 94.4902 98.3486L94.5449 97.6035H95.707V107.844H94.4424V104.316C93.932 104.863 93.2529 105.137 92.4053 105.137C91.512 105.137 90.7988 104.79 90.2656 104.098C89.737 103.4 89.4727 102.478 89.4727 101.329V101.24ZM90.7373 101.384C90.7373 102.231 90.915 102.897 91.2705 103.38C91.6305 103.863 92.1136 104.104 92.7197 104.104C93.4717 104.104 94.0459 103.772 94.4424 103.106V99.4834C94.0413 98.8317 93.4717 98.5059 92.7334 98.5059C92.1227 98.5059 91.6374 98.7497 91.2773 99.2373C90.9173 99.7204 90.7373 100.436 90.7373 101.384ZM102.304 104.269C101.812 104.847 101.089 105.137 100.137 105.137C99.3483 105.137 98.7467 104.909 98.332 104.453C97.9219 103.993 97.7145 103.314 97.71 102.416V97.6035H98.9746V102.382C98.9746 103.503 99.4303 104.063 100.342 104.063C101.308 104.063 101.951 103.703 102.27 102.983V97.6035H103.534V105H102.331L102.304 104.269ZM106.836 105H105.571V97.6035H106.836V105ZM105.469 95.6416C105.469 95.4365 105.53 95.2633 105.653 95.1221C105.781 94.9808 105.968 94.9102 106.214 94.9102C106.46 94.9102 106.647 94.9808 106.774 95.1221C106.902 95.2633 106.966 95.4365 106.966 95.6416C106.966 95.8467 106.902 96.0176 106.774 96.1543C106.647 96.291 106.46 96.3594 106.214 96.3594C105.968 96.3594 105.781 96.291 105.653 96.1543C105.53 96.0176 105.469 95.8467 105.469 95.6416ZM112.441 98.7383C112.25 98.7064 112.043 98.6904 111.819 98.6904C110.99 98.6904 110.427 99.0436 110.131 99.75V105H108.866V97.6035H110.097L110.117 98.458C110.532 97.7972 111.12 97.4668 111.881 97.4668C112.127 97.4668 112.314 97.4987 112.441 97.5625V98.7383ZM116.543 105.137C115.54 105.137 114.725 104.809 114.096 104.152C113.467 103.492 113.152 102.61 113.152 101.507V101.274C113.152 100.541 113.291 99.8867 113.569 99.3125C113.852 98.7337 114.244 98.2826 114.745 97.959C115.251 97.6309 115.798 97.4668 116.386 97.4668C117.347 97.4668 118.095 97.7835 118.628 98.417C119.161 99.0505 119.428 99.9574 119.428 101.138V101.664H114.417C114.435 102.393 114.647 102.983 115.053 103.435C115.463 103.881 115.982 104.104 116.611 104.104C117.058 104.104 117.436 104.013 117.746 103.831C118.056 103.649 118.327 103.407 118.56 103.106L119.332 103.708C118.712 104.66 117.783 105.137 116.543 105.137ZM116.386 98.5059C115.875 98.5059 115.447 98.6927 115.101 99.0664C114.754 99.4355 114.54 99.9551 114.458 100.625H118.163V100.529C118.127 99.8867 117.953 99.39 117.644 99.0391C117.334 98.6836 116.914 98.5059 116.386 98.5059ZM122.087 97.6035L122.121 98.4238C122.663 97.7858 123.395 97.4668 124.315 97.4668C125.35 97.4668 126.054 97.8633 126.428 98.6562C126.674 98.3008 126.993 98.0137 127.385 97.7949C127.781 97.5762 128.248 97.4668 128.786 97.4668C130.409 97.4668 131.233 98.3258 131.261 100.044V105H129.996V100.119C129.996 99.5905 129.875 99.1963 129.634 98.9365C129.392 98.6722 128.987 98.54 128.417 98.54C127.948 98.54 127.558 98.6813 127.248 98.9639C126.938 99.2419 126.758 99.6178 126.708 100.092V105H125.437V100.153C125.437 99.0778 124.91 98.54 123.857 98.54C123.028 98.54 122.461 98.8932 122.155 99.5996V105H120.891V97.6035H122.087ZM136.244 105.137C135.242 105.137 134.426 104.809 133.797 104.152C133.168 103.492 132.854 102.61 132.854 101.507V101.274C132.854 100.541 132.993 99.8867 133.271 99.3125C133.553 98.7337 133.945 98.2826 134.446 97.959C134.952 97.6309 135.499 97.4668 136.087 97.4668C137.049 97.4668 137.796 97.7835 138.329 98.417C138.862 99.0505 139.129 99.9574 139.129 101.138V101.664H134.118C134.136 102.393 134.348 102.983 134.754 103.435C135.164 103.881 135.684 104.104 136.312 104.104C136.759 104.104 137.137 104.013 137.447 103.831C137.757 103.649 138.028 103.407 138.261 103.106L139.033 103.708C138.413 104.66 137.484 105.137 136.244 105.137ZM136.087 98.5059C135.576 98.5059 135.148 98.6927 134.802 99.0664C134.455 99.4355 134.241 99.9551 134.159 100.625H137.864V100.529C137.828 99.8867 137.655 99.39 137.345 99.0391C137.035 98.6836 136.616 98.5059 136.087 98.5059ZM141.795 97.6035L141.836 98.5332C142.401 97.8223 143.139 97.4668 144.051 97.4668C145.614 97.4668 146.402 98.3486 146.416 100.112V105H145.151V100.105C145.147 99.5723 145.024 99.1781 144.782 98.9229C144.545 98.6676 144.174 98.54 143.668 98.54C143.258 98.54 142.898 98.6494 142.588 98.8682C142.278 99.0869 142.036 99.374 141.863 99.7295V105H140.599V97.6035H141.795ZM150.039 95.8125V97.6035H151.42V98.5811H150.039V103.168C150.039 103.464 150.101 103.688 150.224 103.838C150.347 103.984 150.556 104.057 150.853 104.057C150.998 104.057 151.199 104.029 151.454 103.975V105C151.121 105.091 150.798 105.137 150.483 105.137C149.918 105.137 149.492 104.966 149.205 104.624C148.918 104.282 148.774 103.797 148.774 103.168V98.5811H147.428V97.6035H148.774V95.8125H150.039ZM157.21 103.038C157.21 102.696 157.08 102.432 156.82 102.245C156.565 102.054 156.116 101.89 155.474 101.753C154.836 101.616 154.327 101.452 153.949 101.261C153.576 101.069 153.298 100.841 153.115 100.577C152.938 100.313 152.849 99.9984 152.849 99.6338C152.849 99.0277 153.104 98.515 153.614 98.0957C154.129 97.6764 154.785 97.4668 155.583 97.4668C156.422 97.4668 157.101 97.6833 157.62 98.1162C158.144 98.5492 158.406 99.1029 158.406 99.7773H157.135C157.135 99.431 156.987 99.1325 156.69 98.8818C156.399 98.6312 156.03 98.5059 155.583 98.5059C155.123 98.5059 154.763 98.6061 154.503 98.8066C154.243 99.0072 154.113 99.2692 154.113 99.5928C154.113 99.8981 154.234 100.128 154.476 100.283C154.717 100.438 155.152 100.586 155.781 100.728C156.415 100.869 156.927 101.037 157.319 101.233C157.711 101.429 158.001 101.666 158.188 101.944C158.379 102.218 158.475 102.553 158.475 102.949C158.475 103.61 158.21 104.141 157.682 104.542C157.153 104.938 156.467 105.137 155.624 105.137C155.032 105.137 154.507 105.032 154.052 104.822C153.596 104.613 153.238 104.321 152.979 103.947C152.723 103.569 152.596 103.161 152.596 102.724H153.86C153.883 103.147 154.052 103.485 154.366 103.735C154.685 103.981 155.104 104.104 155.624 104.104C156.103 104.104 156.485 104.009 156.772 103.817C157.064 103.621 157.21 103.362 157.21 103.038Z" fill="white"/>
<path fill-rule="evenodd" clip-rule="evenodd" d="M23.6343 94.25C23.6343 95.6424 23.0812 96.9777 22.0966 97.9623C21.7613 98.2977 21.3853 98.5829 20.9801 98.8134C21.3847 98.9292 21.778 99.0713 22.1581 99.2375C25.1873 100.563 27.385 103.434 27.7693 106.85C27.7693 107.041 27.7456 107.226 27.7009 107.402C27.7278 107.566 27.7507 107.732 27.7693 107.9C27.7693 109.055 26.8946 110 25.7344 110H11.0344C9.87455 110 9 109.055 9 107.9C9.01858 107.732 9.0414 107.566 9.06836 107.401C9.02366 107.226 9 107.041 9 106.85C9.38388 103.434 11.581 100.563 14.6109 99.2375C14.9908 99.0713 15.384 98.9292 15.7885 98.8134C15.3834 98.5829 15.0074 98.2977 14.672 97.9623C13.6875 96.9777 13.1343 95.6424 13.1343 94.25C13.1343 92.8576 13.6875 91.5223 14.672 90.5377C15.6566 89.5531 16.992 89 18.3843 89C19.7767 89 21.1121 89.5531 22.0966 90.5377C23.0812 91.5223 23.6343 92.8576 23.6343 94.25Z" fill="white"/>
<path d="M209.707 50.7071C210.098 50.3166 210.098 49.6834 209.707 49.2929L203.343 42.9289C202.953 42.5384 202.319 42.5384 201.929 42.9289C201.538 43.3195 201.538 43.9526 201.929 44.3431L207.586 50L201.929 55.6569C201.538 56.0474 201.538 56.6805 201.929 57.0711C202.319 57.4616 202.953 57.4616 203.343 57.0711L209.707 50.7071ZM140 50H139V51H140V50ZM139 40V50H141V40H139ZM140 51H209V49H140V51Z" fill="black"/>
<path d="M209.707 69.2929C210.098 69.6834 210.098 70.3166 209.707 70.7071L203.343 77.0711C202.953 77.4616 202.319 77.4616 201.929 77.0711C201.538 76.6805 201.538 76.0474 201.929 75.6569L207.586 70L201.929 64.3431C201.538 63.9526 201.538 63.3195 201.929 62.9289C202.319 62.5384 202.953 62.5384 203.343 62.9289L209.707 69.2929ZM140 70H139V69H140V70ZM139 80V70H141V80H139ZM140 69H209V71H140V69Z" fill="black"/>
<rect x="210" y="40" width="170" height="40" rx="5" fill="#2CB2C4"/>
<path d="M269.436 61.6846C269.358 62.7555 268.962 63.5986 268.246 64.2139C267.535 64.8291 266.596 65.1367 265.43 65.1367C264.154 65.1367 263.149 64.7083 262.415 63.8516C261.686 62.9902 261.321 61.8099 261.321 60.3105V59.7021C261.321 58.7451 261.49 57.902 261.827 57.1729C262.164 56.4437 262.645 55.8854 263.27 55.498C263.898 55.1061 264.628 54.9102 265.457 54.9102C266.605 54.9102 267.531 55.2178 268.232 55.833C268.934 56.4482 269.34 57.3118 269.449 58.4238H267.398C267.348 57.7812 267.168 57.3164 266.858 57.0293C266.553 56.7376 266.086 56.5918 265.457 56.5918C264.773 56.5918 264.261 56.8379 263.919 57.3301C263.582 57.8177 263.409 58.5765 263.399 59.6064V60.3584C263.399 61.4339 263.561 62.2201 263.885 62.7168C264.213 63.2135 264.728 63.4619 265.43 63.4619C266.063 63.4619 266.535 63.3184 266.845 63.0312C267.159 62.7396 267.339 62.2907 267.385 61.6846H269.436ZM270.345 61.2334C270.345 60.4997 270.486 59.8457 270.769 59.2715C271.051 58.6973 271.457 58.2529 271.985 57.9385C272.519 57.624 273.136 57.4668 273.838 57.4668C274.836 57.4668 275.649 57.7721 276.278 58.3828C276.912 58.9935 277.265 59.8229 277.338 60.8711L277.352 61.377C277.352 62.5117 277.035 63.4232 276.401 64.1113C275.768 64.7949 274.918 65.1367 273.852 65.1367C272.785 65.1367 271.933 64.7949 271.295 64.1113C270.661 63.4277 270.345 62.498 270.345 61.3223V61.2334ZM272.32 61.377C272.32 62.0788 272.452 62.6165 272.717 62.9902C272.981 63.3594 273.359 63.5439 273.852 63.5439C274.33 63.5439 274.704 63.3617 274.973 62.9971C275.242 62.6279 275.376 62.04 275.376 61.2334C275.376 60.5452 275.242 60.012 274.973 59.6338C274.704 59.2555 274.326 59.0664 273.838 59.0664C273.355 59.0664 272.981 59.2555 272.717 59.6338C272.452 60.0075 272.32 60.5885 272.32 61.377ZM278.261 61.2471C278.261 60.0941 278.518 59.1758 279.033 58.4922C279.553 57.8086 280.261 57.4668 281.159 57.4668C281.879 57.4668 282.474 57.7357 282.943 58.2734V54.5H284.926V65H283.142L283.046 64.2139C282.554 64.8291 281.92 65.1367 281.146 65.1367C280.275 65.1367 279.576 64.7949 279.047 64.1113C278.523 63.4232 278.261 62.4684 278.261 61.2471ZM280.236 61.3906C280.236 62.0833 280.357 62.6143 280.599 62.9834C280.84 63.3525 281.191 63.5371 281.651 63.5371C282.262 63.5371 282.693 63.2796 282.943 62.7646V59.8457C282.697 59.3307 282.271 59.0732 281.665 59.0732C280.713 59.0732 280.236 59.8457 280.236 61.3906ZM289.861 65.1367C288.777 65.1367 287.893 64.804 287.209 64.1387C286.53 63.4733 286.19 62.5869 286.19 61.4795V61.2881C286.19 60.5452 286.334 59.8822 286.621 59.2988C286.908 58.7109 287.314 58.2598 287.838 57.9453C288.367 57.6263 288.968 57.4668 289.643 57.4668C290.654 57.4668 291.45 57.7858 292.028 58.4238C292.612 59.0618 292.903 59.9665 292.903 61.1377V61.9443H288.193C288.257 62.4274 288.449 62.8148 288.768 63.1064C289.091 63.3981 289.499 63.5439 289.991 63.5439C290.752 63.5439 291.347 63.2682 291.775 62.7168L292.746 63.8037C292.45 64.223 292.049 64.5511 291.543 64.7881C291.037 65.0205 290.477 65.1367 289.861 65.1367ZM289.636 59.0664C289.244 59.0664 288.925 59.1986 288.679 59.4629C288.437 59.7272 288.282 60.1055 288.214 60.5977H290.962V60.4404C290.953 60.0029 290.834 59.6657 290.606 59.4287C290.379 59.1872 290.055 59.0664 289.636 59.0664ZM305.522 63.7422C305.153 64.1842 304.632 64.5283 303.957 64.7744C303.283 65.016 302.535 65.1367 301.715 65.1367C300.854 65.1367 300.097 64.9499 299.445 64.5762C298.798 64.1979 298.297 63.651 297.941 62.9355C297.59 62.2201 297.41 61.3792 297.401 60.4131V59.7363C297.401 58.7428 297.568 57.8838 297.9 57.1592C298.238 56.43 298.721 55.874 299.35 55.4912C299.983 55.1038 300.724 54.9102 301.571 54.9102C302.752 54.9102 303.674 55.1927 304.34 55.7578C305.005 56.3184 305.399 57.1364 305.522 58.2119H303.526C303.435 57.6423 303.232 57.2253 302.918 56.9609C302.608 56.6966 302.18 56.5645 301.633 56.5645C300.936 56.5645 300.405 56.8265 300.04 57.3506C299.675 57.8747 299.491 58.654 299.486 59.6885V60.3242C299.486 61.3678 299.685 62.1562 300.081 62.6895C300.478 63.2227 301.059 63.4893 301.824 63.4893C302.594 63.4893 303.144 63.3252 303.472 62.9971V61.2812H301.605V59.7705H305.522V63.7422ZM310.465 65.1367C309.38 65.1367 308.496 64.804 307.812 64.1387C307.133 63.4733 306.794 62.5869 306.794 61.4795V61.2881C306.794 60.5452 306.938 59.8822 307.225 59.2988C307.512 58.7109 307.917 58.2598 308.441 57.9453C308.97 57.6263 309.572 57.4668 310.246 57.4668C311.258 57.4668 312.053 57.7858 312.632 58.4238C313.215 59.0618 313.507 59.9665 313.507 61.1377V61.9443H308.797C308.861 62.4274 309.052 62.8148 309.371 63.1064C309.695 63.3981 310.103 63.5439 310.595 63.5439C311.356 63.5439 311.951 63.2682 312.379 62.7168L313.35 63.8037C313.053 64.223 312.652 64.5511 312.146 64.7881C311.641 65.0205 311.08 65.1367 310.465 65.1367ZM310.239 59.0664C309.847 59.0664 309.528 59.1986 309.282 59.4629C309.041 59.7272 308.886 60.1055 308.817 60.5977H311.565V60.4404C311.556 60.0029 311.438 59.6657 311.21 59.4287C310.982 59.1872 310.659 59.0664 310.239 59.0664ZM316.453 57.6035L316.515 58.458C317.043 57.7972 317.752 57.4668 318.641 57.4668C319.424 57.4668 320.008 57.6969 320.391 58.1572C320.773 58.6175 320.969 59.3057 320.979 60.2217V65H319.003V60.2695C319.003 59.8503 318.912 59.5472 318.729 59.3604C318.547 59.1689 318.244 59.0732 317.82 59.0732C317.264 59.0732 316.847 59.3102 316.569 59.7842V65H314.594V57.6035H316.453ZM325.887 65.1367C324.802 65.1367 323.918 64.804 323.234 64.1387C322.555 63.4733 322.216 62.5869 322.216 61.4795V61.2881C322.216 60.5452 322.359 59.8822 322.646 59.2988C322.934 58.7109 323.339 58.2598 323.863 57.9453C324.392 57.6263 324.993 57.4668 325.668 57.4668C326.68 57.4668 327.475 57.7858 328.054 58.4238C328.637 59.0618 328.929 59.9665 328.929 61.1377V61.9443H324.219C324.283 62.4274 324.474 62.8148 324.793 63.1064C325.117 63.3981 325.524 63.5439 326.017 63.5439C326.778 63.5439 327.372 63.2682 327.801 62.7168L328.771 63.8037C328.475 64.223 328.074 64.5511 327.568 64.7881C327.062 65.0205 326.502 65.1367 325.887 65.1367ZM325.661 59.0664C325.269 59.0664 324.95 59.1986 324.704 59.4629C324.463 59.7272 324.308 60.1055 324.239 60.5977H326.987V60.4404C326.978 60.0029 326.86 59.6657 326.632 59.4287C326.404 59.1872 326.08 59.0664 325.661 59.0664ZM334.213 59.4561C333.944 59.4196 333.707 59.4014 333.502 59.4014C332.755 59.4014 332.265 59.6543 332.032 60.1602V65H330.057V57.6035H331.923L331.978 58.4854C332.374 57.8063 332.923 57.4668 333.625 57.4668C333.844 57.4668 334.049 57.4964 334.24 57.5557L334.213 59.4561ZM339.251 65C339.16 64.8223 339.094 64.6012 339.053 64.3369C338.574 64.8701 337.952 65.1367 337.187 65.1367C336.462 65.1367 335.86 64.9271 335.382 64.5078C334.908 64.0885 334.671 63.5599 334.671 62.9219C334.671 62.138 334.96 61.5365 335.539 61.1172C336.122 60.6979 336.963 60.486 338.062 60.4814H338.971V60.0576C338.971 59.7158 338.882 59.4424 338.704 59.2373C338.531 59.0322 338.255 58.9297 337.877 58.9297C337.544 58.9297 337.282 59.0094 337.091 59.1689C336.904 59.3285 336.811 59.5472 336.811 59.8252H334.835C334.835 59.3968 334.967 59.0003 335.231 58.6357C335.496 58.2712 335.869 57.9863 336.353 57.7812C336.836 57.5716 337.378 57.4668 337.979 57.4668C338.891 57.4668 339.613 57.6969 340.146 58.1572C340.684 58.613 340.953 59.2555 340.953 60.085V63.291C340.958 63.9928 341.056 64.5238 341.247 64.8838V65H339.251ZM337.617 63.626C337.909 63.626 338.178 63.5622 338.424 63.4346C338.67 63.3024 338.852 63.127 338.971 62.9082V61.6367H338.232C337.243 61.6367 336.717 61.9785 336.653 62.6621L336.646 62.7783C336.646 63.0244 336.733 63.2272 336.906 63.3867C337.079 63.5462 337.316 63.626 337.617 63.626ZM344.836 55.7852V57.6035H346.101V59.0527H344.836V62.7441C344.836 63.0176 344.888 63.2135 344.993 63.332C345.098 63.4505 345.299 63.5098 345.595 63.5098C345.813 63.5098 346.007 63.4938 346.176 63.4619V64.959C345.788 65.0775 345.39 65.1367 344.979 65.1367C343.594 65.1367 342.888 64.4372 342.86 63.0381V59.0527H341.78V57.6035H342.86V55.7852H344.836ZM346.688 61.2334C346.688 60.4997 346.83 59.8457 347.112 59.2715C347.395 58.6973 347.8 58.2529 348.329 57.9385C348.862 57.624 349.48 57.4668 350.182 57.4668C351.18 57.4668 351.993 57.7721 352.622 58.3828C353.256 58.9935 353.609 59.8229 353.682 60.8711L353.695 61.377C353.695 62.5117 353.379 63.4232 352.745 64.1113C352.112 64.7949 351.262 65.1367 350.195 65.1367C349.129 65.1367 348.277 64.7949 347.639 64.1113C347.005 63.4277 346.688 62.498 346.688 61.3223V61.2334ZM348.664 61.377C348.664 62.0788 348.796 62.6165 349.061 62.9902C349.325 63.3594 349.703 63.5439 350.195 63.5439C350.674 63.5439 351.048 63.3617 351.316 62.9971C351.585 62.6279 351.72 62.04 351.72 61.2334C351.72 60.5452 351.585 60.012 351.316 59.6338C351.048 59.2555 350.669 59.0664 350.182 59.0664C349.699 59.0664 349.325 59.2555 349.061 59.6338C348.796 60.0075 348.664 60.5885 348.664 61.377ZM359.068 59.4561C358.799 59.4196 358.562 59.4014 358.357 59.4014C357.61 59.4014 357.12 59.6543 356.888 60.1602V65H354.912V57.6035H356.778L356.833 58.4854C357.229 57.8063 357.779 57.4668 358.48 57.4668C358.699 57.4668 358.904 57.4964 359.096 57.5557L359.068 59.4561Z" fill="white"/>
<path d="M222.104 69.5833H237.896C238.241 69.5833 238.521 69.3034 238.521 68.9583V54.1008C238.521 53.9347 238.455 53.7752 238.337 53.658L235.266 50.599C235.149 50.4822 234.991 50.4167 234.825 50.4167H222.104C221.759 50.4167 221.479 50.6966 221.479 51.0417V68.9583C221.479 69.3034 221.759 69.5833 222.104 69.5833ZM237.261 54.3498H235.012V52.1093L237.261 54.3498ZM222.729 51.6667H233.762V54.9748C233.762 55.3198 234.042 55.5998 234.387 55.5998H237.271V68.3333H222.729V51.6667Z" fill="white"/>
<path d="M227.292 58.5417H228.75C229.095 58.5417 229.375 58.2617 229.375 57.9167C229.375 57.5716 229.095 57.2917 228.75 57.2917H226.667C226.322 57.2917 226.042 57.5716 226.042 57.9167V60.2083H225C224.655 60.2083 224.375 60.4883 224.375 60.8333C224.375 61.1784 224.655 61.4583 225 61.4583H226.042V63.75C226.042 64.0951 226.322 64.375 226.667 64.375H228.75C229.095 64.375 229.375 64.0951 229.375 63.75C229.375 63.4049 229.095 63.125 228.75 63.125H227.292V58.5417Z" fill="white"/>
<path d="M235.417 60.2083H234.375V57.9167C234.375 57.5716 234.095 57.2917 233.75 57.2917H231.667C231.322 57.2917 231.042 57.5716 231.042 57.9167C231.042 58.2617 231.322 58.5417 231.667 58.5417H233.125V63.125H231.667C231.322 63.125 231.042 63.4049 231.042 63.75C231.042 64.0951 231.322 64.375 231.667 64.375H233.75C234.095 64.375 234.375 64.0951 234.375 63.75V61.4583H235.417C235.762 61.4583 236.042 61.1784 236.042 60.8333C236.042 60.4883 235.762 60.2083 235.417 60.2083Z" fill="white"/>
<path d="M427.259 85.9583H466.741C467.603 85.9583 468.303 85.2585 468.303 84.3958V47.2519C468.303 46.8368 468.137 46.4381 467.843 46.1451L460.166 38.4974C459.873 38.2054 459.477 38.0417 459.064 38.0417H427.259C426.397 38.0417 425.697 38.7415 425.697 39.6042V84.3958C425.697 85.2585 426.397 85.9583 427.259 85.9583ZM465.152 47.8744H459.529V42.2733L465.152 47.8744ZM428.822 41.1667H456.404V49.4369C456.404 50.2996 457.104 50.9994 457.967 50.9994H465.178V82.8333H428.822V41.1667Z" fill="#54C42C"/>
<path d="M440.229 58.3542H443.875C444.738 58.3542 445.438 57.6543 445.438 56.7917C445.438 55.929 444.738 55.2292 443.875 55.2292H438.667C437.804 55.2292 437.104 55.929 437.104 56.7917V62.5208H434.5C433.637 62.5208 432.938 63.2207 432.938 64.0833C432.938 64.946 433.637 65.6458 434.5 65.6458H437.104V71.375C437.104 72.2376 437.804 72.9375 438.667 72.9375H443.875C444.738 72.9375 445.438 72.2376 445.438 71.375C445.438 70.5124 444.738 69.8125 443.875 69.8125H440.229V58.3542Z" fill="#54C42C"/>
<path d="M460.542 62.5208H457.937V56.7917C457.937 55.929 457.238 55.2292 456.375 55.2292H451.167C450.304 55.2292 449.604 55.929 449.604 56.7917C449.604 57.6543 450.304 58.3542 451.167 58.3542H454.812V69.8125H451.167C450.304 69.8125 449.604 70.5124 449.604 71.375C449.604 72.2376 450.304 72.9375 451.167 72.9375H456.375C457.238 72.9375 457.937 72.2376 457.937 71.375V65.6458H460.542C461.404 65.6458 462.104 64.946 462.104 64.0833C462.104 63.2207 461.404 62.5208 460.542 62.5208Z" fill="#54C42C"/>
<path d="M420.707 62.7071C421.098 62.3166 421.098 61.6834 420.707 61.2929L414.343 54.9289C413.953 54.5384 413.319 54.5384 412.929 54.9289C412.538 55.3195 412.538 55.9526 412.929 56.3431L418.586 62L412.929 67.6569C412.538 68.0474 412.538 68.6805 412.929 69.0711C413.319 69.4616 413.953 69.4616 414.343 69.0711L420.707 62.7071ZM380 63H420V61H380V63Z" fill="black"/>
</svg>
