<svg width="980" height="160" viewBox="0 0 980 160" fill="none" xmlns="http://www.w3.org/2000/svg">
<rect x="210.5" y="0.5" width="589" height="159" rx="4.5" stroke="black" stroke-dasharray="5 5"/>
<path d="M462.909 24.6201H468.974V26H461.213V13.2031H462.909V24.6201ZM472.41 26H470.784V16.4902H472.41V26ZM470.652 13.9678C470.652 13.7041 470.731 13.4814 470.89 13.2998C471.054 13.1182 471.294 13.0273 471.61 13.0273C471.927 13.0273 472.167 13.1182 472.331 13.2998C472.495 13.4814 472.577 13.7041 472.577 13.9678C472.577 14.2314 472.495 14.4512 472.331 14.627C472.167 14.8027 471.927 14.8906 471.61 14.8906C471.294 14.8906 471.054 14.8027 470.89 14.627C470.731 14.4512 470.652 14.2314 470.652 13.9678ZM483.071 21.3506C483.071 22.8037 482.737 23.9727 482.069 24.8574C481.401 25.7363 480.505 26.1758 479.38 26.1758C478.179 26.1758 477.25 25.751 476.594 24.9014L476.515 26H475.021V12.5H476.646V17.5361C477.303 16.7217 478.208 16.3145 479.362 16.3145C480.517 16.3145 481.422 16.751 482.078 17.624C482.74 18.4971 483.071 19.6924 483.071 21.21V21.3506ZM481.445 21.166C481.445 20.0586 481.231 19.2031 480.804 18.5996C480.376 17.9961 479.761 17.6943 478.958 17.6943C477.886 17.6943 477.115 18.1924 476.646 19.1885V23.3018C477.145 24.2979 477.921 24.7959 478.976 24.7959C479.755 24.7959 480.361 24.4941 480.795 23.8906C481.229 23.2871 481.445 22.3789 481.445 21.166ZM488.512 21.2275H484.223V19.9004H488.512V21.2275ZM494.128 20.2959C492.681 19.8799 491.626 19.3701 490.964 18.7666C490.308 18.1572 489.979 17.4072 489.979 16.5166C489.979 15.5088 490.381 14.6768 491.184 14.0205C491.992 13.3584 493.041 13.0273 494.33 13.0273C495.209 13.0273 495.991 13.1973 496.677 13.5371C497.368 13.877 497.901 14.3457 498.276 14.9434C498.657 15.541 498.848 16.1943 498.848 16.9033H497.151C497.151 16.1299 496.905 15.5234 496.413 15.084C495.921 14.6387 495.227 14.416 494.33 14.416C493.498 14.416 492.848 14.6006 492.379 14.9697C491.916 15.333 491.685 15.8398 491.685 16.4902C491.685 17.0117 491.904 17.4541 492.344 17.8174C492.789 18.1748 493.542 18.5029 494.603 18.8018C495.669 19.1006 496.501 19.4316 497.099 19.7949C497.702 20.1523 498.147 20.5713 498.435 21.0518C498.728 21.5322 498.874 22.0977 498.874 22.748C498.874 23.7852 498.47 24.6172 497.661 25.2441C496.853 25.8652 495.771 26.1758 494.418 26.1758C493.539 26.1758 492.719 26.0088 491.957 25.6748C491.195 25.335 490.606 24.8721 490.19 24.2861C489.78 23.7002 489.575 23.0352 489.575 22.291H491.271C491.271 23.0645 491.556 23.6768 492.124 24.1279C492.698 24.5732 493.463 24.7959 494.418 24.7959C495.309 24.7959 495.991 24.6143 496.466 24.251C496.94 23.8877 497.178 23.3926 497.178 22.7656C497.178 22.1387 496.958 21.6553 496.519 21.3154C496.079 20.9697 495.282 20.6299 494.128 20.2959ZM504.604 24.8486C505.185 24.8486 505.691 24.6729 506.125 24.3213C506.559 23.9697 506.799 23.5303 506.846 23.0029H508.384C508.354 23.5479 508.167 24.0664 507.821 24.5586C507.476 25.0508 507.013 25.4434 506.433 25.7363C505.858 26.0293 505.249 26.1758 504.604 26.1758C503.31 26.1758 502.278 25.7451 501.511 24.8838C500.749 24.0166 500.368 22.833 500.368 21.333V21.0605C500.368 20.1348 500.538 19.3115 500.878 18.5908C501.218 17.8701 501.704 17.3105 502.337 16.9121C502.976 16.5137 503.729 16.3145 504.596 16.3145C505.662 16.3145 506.547 16.6338 507.25 17.2725C507.959 17.9111 508.337 18.7402 508.384 19.7598H506.846C506.799 19.1445 506.564 18.6406 506.143 18.248C505.727 17.8496 505.211 17.6504 504.596 17.6504C503.77 17.6504 503.128 17.9492 502.671 18.5469C502.22 19.1387 501.994 19.9971 501.994 21.1221V21.4297C501.994 22.5254 502.22 23.3691 502.671 23.9609C503.122 24.5527 503.767 24.8486 504.604 24.8486ZM514.809 17.9492C514.562 17.9082 514.296 17.8877 514.009 17.8877C512.942 17.8877 512.219 18.3418 511.838 19.25V26H510.212V16.4902H511.794L511.82 17.5889C512.354 16.7393 513.109 16.3145 514.088 16.3145C514.404 16.3145 514.645 16.3555 514.809 16.4375V17.9492ZM521.831 26C521.737 25.8125 521.661 25.4785 521.603 24.998C520.847 25.7832 519.944 26.1758 518.896 26.1758C517.958 26.1758 517.188 25.9121 516.584 25.3848C515.986 24.8516 515.688 24.1777 515.688 23.3633C515.688 22.373 516.062 21.6055 516.812 21.0605C517.568 20.5098 518.629 20.2344 519.994 20.2344H521.576V19.4873C521.576 18.9189 521.406 18.4678 521.066 18.1338C520.727 17.7939 520.226 17.624 519.563 17.624C518.983 17.624 518.497 17.7705 518.104 18.0635C517.712 18.3564 517.516 18.7109 517.516 19.127H515.881C515.881 18.6523 516.048 18.1953 516.382 17.7559C516.722 17.3105 517.179 16.959 517.753 16.7012C518.333 16.4434 518.969 16.3145 519.66 16.3145C520.756 16.3145 521.614 16.5898 522.235 17.1406C522.856 17.6855 523.179 18.4385 523.202 19.3994V23.7764C523.202 24.6494 523.313 25.3438 523.536 25.8594V26H521.831ZM519.133 24.7607C519.643 24.7607 520.126 24.6289 520.583 24.3652C521.04 24.1016 521.371 23.7588 521.576 23.3369V21.3857H520.302C518.31 21.3857 517.313 21.9688 517.313 23.1348C517.313 23.6445 517.483 24.043 517.823 24.3301C518.163 24.6172 518.6 24.7607 519.133 24.7607ZM533.784 21.3506C533.784 22.7979 533.453 23.9639 532.791 24.8486C532.129 25.7334 531.232 26.1758 530.102 26.1758C528.947 26.1758 528.039 25.8096 527.377 25.0771V29.6562H525.751V16.4902H527.236L527.315 17.5449C527.978 16.7246 528.897 16.3145 530.075 16.3145C531.218 16.3145 532.12 16.7451 532.782 17.6064C533.45 18.4678 533.784 19.666 533.784 21.2012V21.3506ZM532.158 21.166C532.158 20.0938 531.93 19.2471 531.473 18.626C531.016 18.0049 530.389 17.6943 529.592 17.6943C528.607 17.6943 527.869 18.1309 527.377 19.0039V23.5479C527.863 24.415 528.607 24.8486 529.609 24.8486C530.389 24.8486 531.007 24.541 531.464 23.9258C531.927 23.3047 532.158 22.3848 532.158 21.166ZM539.805 26.1758C538.516 26.1758 537.467 25.7539 536.658 24.9102C535.85 24.0605 535.445 22.9268 535.445 21.5088V21.21C535.445 20.2666 535.624 19.4258 535.981 18.6875C536.345 17.9434 536.849 17.3633 537.493 16.9473C538.144 16.5254 538.847 16.3145 539.603 16.3145C540.839 16.3145 541.8 16.7217 542.485 17.5361C543.171 18.3506 543.514 19.5166 543.514 21.0342V21.7109H537.071C537.095 22.6484 537.367 23.4072 537.889 23.9873C538.416 24.5615 539.084 24.8486 539.893 24.8486C540.467 24.8486 540.953 24.7314 541.352 24.4971C541.75 24.2627 542.099 23.9521 542.397 23.5654L543.391 24.3389C542.594 25.5635 541.398 26.1758 539.805 26.1758ZM539.603 17.6504C538.946 17.6504 538.396 17.8906 537.95 18.3711C537.505 18.8457 537.229 19.5137 537.124 20.375H541.888V20.252C541.841 19.4258 541.618 18.7871 541.22 18.3359C540.821 17.8789 540.282 17.6504 539.603 17.6504ZM550 17.9492C549.754 17.9082 549.487 17.8877 549.2 17.8877C548.134 17.8877 547.41 18.3418 547.029 19.25V26H545.403V16.4902H546.985L547.012 17.5889C547.545 16.7393 548.301 16.3145 549.279 16.3145C549.596 16.3145 549.836 16.3555 550 16.4375V17.9492Z" fill="black"/>
<rect x="230" y="40" width="170" height="40" rx="5" fill="#2CB2C4"/>
<path d="M312.582 60.5635C311.456 60.2399 310.636 59.8434 310.121 59.374C309.611 58.9001 309.355 58.3167 309.355 57.624C309.355 56.8402 309.668 56.193 310.292 55.6826C310.921 55.1676 311.737 54.9102 312.739 54.9102C313.423 54.9102 314.031 55.0423 314.564 55.3066C315.102 55.571 315.517 55.9355 315.809 56.4004C316.105 56.8652 316.253 57.3734 316.253 57.9248H314.934C314.934 57.3232 314.742 56.8516 314.359 56.5098C313.977 56.1634 313.437 55.9902 312.739 55.9902C312.092 55.9902 311.586 56.1338 311.222 56.4209C310.862 56.7035 310.682 57.0977 310.682 57.6035C310.682 58.0091 310.853 58.3532 311.194 58.6357C311.541 58.9137 312.126 59.1689 312.951 59.4014C313.781 59.6338 314.428 59.8913 314.893 60.1738C315.362 60.4518 315.708 60.7777 315.932 61.1514C316.16 61.5251 316.273 61.9648 316.273 62.4707C316.273 63.2773 315.959 63.9245 315.33 64.4121C314.701 64.8952 313.86 65.1367 312.808 65.1367C312.124 65.1367 311.486 65.0068 310.894 64.7471C310.301 64.4827 309.843 64.1227 309.52 63.667C309.201 63.2113 309.041 62.694 309.041 62.1152H310.36C310.36 62.7168 310.581 63.193 311.023 63.5439C311.47 63.8903 312.065 64.0635 312.808 64.0635C313.5 64.0635 314.031 63.9222 314.4 63.6396C314.77 63.3571 314.954 62.972 314.954 62.4844C314.954 61.9967 314.783 61.6208 314.441 61.3564C314.1 61.0876 313.48 60.8232 312.582 60.5635ZM320.73 64.1045C321.182 64.1045 321.576 63.9678 321.913 63.6943C322.25 63.4209 322.437 63.0791 322.474 62.6689H323.67C323.647 63.0928 323.501 63.4961 323.232 63.8789C322.964 64.2617 322.604 64.5671 322.152 64.7949C321.706 65.0228 321.232 65.1367 320.73 65.1367C319.723 65.1367 318.921 64.8018 318.324 64.1318C317.732 63.4574 317.436 62.5368 317.436 61.3701V61.1582C317.436 60.4382 317.568 59.7979 317.832 59.2373C318.096 58.6768 318.475 58.2415 318.967 57.9316C319.464 57.6217 320.049 57.4668 320.724 57.4668C321.553 57.4668 322.241 57.7152 322.788 58.2119C323.34 58.7087 323.633 59.3535 323.67 60.1465H322.474C322.437 59.668 322.255 59.276 321.927 58.9707C321.603 58.6608 321.202 58.5059 320.724 58.5059C320.081 58.5059 319.582 58.7383 319.227 59.2031C318.876 59.6634 318.7 60.3311 318.7 61.2061V61.4453C318.7 62.2975 318.876 62.9538 319.227 63.4141C319.577 63.8743 320.079 64.1045 320.73 64.1045ZM328.667 58.7383C328.476 58.7064 328.268 58.6904 328.045 58.6904C327.215 58.6904 326.653 59.0436 326.356 59.75V65H325.092V57.6035H326.322L326.343 58.458C326.757 57.7972 327.345 57.4668 328.106 57.4668C328.353 57.4668 328.539 57.4987 328.667 57.5625V58.7383ZM334.129 65C334.056 64.8542 333.997 64.5944 333.951 64.2207C333.363 64.8314 332.661 65.1367 331.846 65.1367C331.117 65.1367 330.517 64.9316 330.048 64.5215C329.583 64.1068 329.351 63.5827 329.351 62.9492C329.351 62.179 329.642 61.582 330.226 61.1582C330.813 60.7298 331.638 60.5156 332.7 60.5156H333.931V59.9346C333.931 59.4925 333.799 59.1416 333.534 58.8818C333.27 58.6175 332.88 58.4854 332.365 58.4854C331.914 58.4854 331.536 58.5993 331.23 58.8271C330.925 59.055 330.772 59.3307 330.772 59.6543H329.501C329.501 59.2852 329.631 58.9297 329.891 58.5879C330.155 58.2415 330.51 57.9681 330.957 57.7676C331.408 57.5671 331.903 57.4668 332.44 57.4668C333.293 57.4668 333.96 57.681 334.443 58.1094C334.926 58.5332 335.177 59.1188 335.195 59.8662V63.2705C335.195 63.9495 335.282 64.4896 335.455 64.8906V65H334.129ZM332.03 64.0361C332.427 64.0361 332.803 63.9336 333.158 63.7285C333.514 63.5234 333.771 63.2568 333.931 62.9287V61.4111H332.939C331.39 61.4111 330.615 61.8646 330.615 62.7715C330.615 63.168 330.747 63.4779 331.012 63.7012C331.276 63.9245 331.616 64.0361 332.03 64.0361ZM343.426 61.3838C343.426 62.5094 343.168 63.4163 342.653 64.1045C342.138 64.7926 341.441 65.1367 340.562 65.1367C339.664 65.1367 338.957 64.8519 338.442 64.2822V67.8438H337.178V57.6035H338.333L338.395 58.4238C338.91 57.7858 339.625 57.4668 340.541 57.4668C341.43 57.4668 342.132 57.8018 342.646 58.4717C343.166 59.1416 343.426 60.0736 343.426 61.2676V61.3838ZM342.161 61.2402C342.161 60.4062 341.983 59.7477 341.628 59.2646C341.272 58.7816 340.785 58.54 340.165 58.54C339.399 58.54 338.825 58.8796 338.442 59.5586V63.0928C338.821 63.7673 339.399 64.1045 340.179 64.1045C340.785 64.1045 341.266 63.8652 341.621 63.3867C341.981 62.9036 342.161 62.1882 342.161 61.2402ZM348.108 65.1367C347.106 65.1367 346.29 64.8086 345.661 64.1523C345.032 63.4915 344.718 62.6097 344.718 61.5068V61.2744C344.718 60.5407 344.857 59.8867 345.135 59.3125C345.417 58.7337 345.809 58.2826 346.311 57.959C346.816 57.6309 347.363 57.4668 347.951 57.4668C348.913 57.4668 349.66 57.7835 350.193 58.417C350.727 59.0505 350.993 59.9574 350.993 61.1377V61.6641H345.982C346.001 62.3932 346.213 62.9834 346.618 63.4346C347.028 63.8812 347.548 64.1045 348.177 64.1045C348.623 64.1045 349.002 64.0133 349.312 63.8311C349.621 63.6488 349.893 63.4072 350.125 63.1064L350.897 63.708C350.278 64.6605 349.348 65.1367 348.108 65.1367ZM347.951 58.5059C347.441 58.5059 347.012 58.6927 346.666 59.0664C346.32 59.4355 346.105 59.9551 346.023 60.625H349.729V60.5293C349.692 59.8867 349.519 59.39 349.209 59.0391C348.899 58.6836 348.48 58.5059 347.951 58.5059Z" fill="white"/>
<path d="M259.5 55C260.881 55 262 53.8812 262 52.5C262 51.1187 260.881 50 259.5 50C258.119 50 257 51.1187 257 52.5C257 53.2025 257.291 53.835 257.757 54.2888L255.785 57.74C255.382 57.5925 254.954 57.5 254.5 57.5C253.5 57.5 252.596 57.8975 251.924 58.5363L246.81 54.7013C246.931 54.4075 247 54.0875 247 53.75C247 52.3688 245.881 51.25 244.5 51.25C243.119 51.25 242 52.3688 242 53.75C242 55.1312 243.119 56.25 244.5 56.25C245.09 56.25 245.625 56.0375 246.053 55.6962L251.18 59.5425C250.914 60.0562 250.75 60.6313 250.75 61.25C250.75 61.6412 250.828 62.0125 250.939 62.3675L245.575 65.2513C245.247 65.095 244.886 65 244.5 65C243.119 65 242 66.1187 242 67.5C242 68.8813 243.119 70 244.5 70C245.881 70 247 68.8813 247 67.5C247 66.9925 246.846 66.5212 246.586 66.1262L251.503 63.4825C252.186 64.3988 253.269 65 254.5 65C255.123 65 255.701 64.8338 256.219 64.565L257.44 66.0863C257.164 66.4888 257 66.975 257 67.5C257 68.8813 258.119 70 259.5 70C260.881 70 262 68.8813 262 67.5C262 66.1187 260.881 65 259.5 65C259.099 65 258.725 65.1038 258.389 65.2712L257.221 63.8163C257.855 63.145 258.25 62.2463 258.25 61.25C258.25 60.0825 257.705 59.0525 256.869 58.365L258.847 54.9025C259.056 54.96 259.272 55 259.5 55Z" fill="white"/>
<rect x="610" y="40" width="170" height="40" rx="5" fill="#2CB2C4"/>
<path d="M662.812 55.0469L666.065 63.168L669.319 55.0469H671.021V65H669.709V61.124L669.832 56.9404L666.564 65H665.56L662.299 56.9609L662.429 61.124V65H661.116V55.0469H662.812ZM672.806 61.2334C672.806 60.5088 672.947 59.8571 673.229 59.2783C673.517 58.6995 673.913 58.2529 674.419 57.9385C674.929 57.624 675.51 57.4668 676.162 57.4668C677.169 57.4668 677.983 57.8154 678.603 58.5127C679.227 59.21 679.539 60.1374 679.539 61.2949V61.3838C679.539 62.1038 679.4 62.751 679.122 63.3252C678.849 63.8949 678.454 64.3392 677.939 64.6582C677.429 64.9772 676.841 65.1367 676.176 65.1367C675.173 65.1367 674.36 64.7881 673.735 64.0908C673.116 63.3936 672.806 62.4707 672.806 61.3223V61.2334ZM674.077 61.3838C674.077 62.2041 674.266 62.8626 674.645 63.3594C675.027 63.8561 675.538 64.1045 676.176 64.1045C676.818 64.1045 677.329 63.8538 677.707 63.3525C678.085 62.8467 678.274 62.1403 678.274 61.2334C678.274 60.4222 678.081 59.766 677.693 59.2646C677.311 58.7588 676.8 58.5059 676.162 58.5059C675.538 58.5059 675.034 58.7542 674.651 59.251C674.269 59.7477 674.077 60.4587 674.077 61.3838ZM680.817 61.2402C680.817 60.1055 681.086 59.194 681.624 58.5059C682.162 57.8132 682.866 57.4668 683.736 57.4668C684.602 57.4668 685.288 57.763 685.794 58.3555V54.5H687.059V65H685.896L685.835 64.207C685.329 64.8268 684.625 65.1367 683.723 65.1367C682.866 65.1367 682.166 64.7858 681.624 64.084C681.086 63.3822 680.817 62.4661 680.817 61.3359V61.2402ZM682.082 61.3838C682.082 62.2223 682.255 62.8786 682.602 63.3525C682.948 63.8265 683.426 64.0635 684.037 64.0635C684.839 64.0635 685.425 63.7035 685.794 62.9834V59.5859C685.416 58.8887 684.835 58.54 684.051 58.54C683.431 58.54 682.948 58.7793 682.602 59.2578C682.255 59.7363 682.082 60.445 682.082 61.3838ZM692.097 65.1367C691.094 65.1367 690.278 64.8086 689.649 64.1523C689.021 63.4915 688.706 62.6097 688.706 61.5068V61.2744C688.706 60.5407 688.845 59.8867 689.123 59.3125C689.406 58.7337 689.798 58.2826 690.299 57.959C690.805 57.6309 691.352 57.4668 691.939 57.4668C692.901 57.4668 693.648 57.7835 694.182 58.417C694.715 59.0505 694.981 59.9574 694.981 61.1377V61.6641H689.971C689.989 62.3932 690.201 62.9834 690.606 63.4346C691.017 63.8812 691.536 64.1045 692.165 64.1045C692.612 64.1045 692.99 64.0133 693.3 63.8311C693.61 63.6488 693.881 63.4072 694.113 63.1064L694.886 63.708C694.266 64.6605 693.336 65.1367 692.097 65.1367ZM691.939 58.5059C691.429 58.5059 691.001 58.6927 690.654 59.0664C690.308 59.4355 690.094 59.9551 690.012 60.625H693.717V60.5293C693.68 59.8867 693.507 59.39 693.197 59.0391C692.887 58.6836 692.468 58.5059 691.939 58.5059ZM697.825 65H696.561V54.5H697.825V65ZM710.848 61.8418C710.725 62.8945 710.335 63.708 709.679 64.2822C709.027 64.8519 708.159 65.1367 707.074 65.1367C705.898 65.1367 704.955 64.7152 704.244 63.8721C703.538 63.029 703.185 61.901 703.185 60.4883V59.5312C703.185 58.6061 703.349 57.7926 703.677 57.0908C704.009 56.389 704.479 55.8512 705.085 55.4775C705.691 55.0993 706.393 54.9102 707.19 54.9102C708.248 54.9102 709.095 55.2064 709.733 55.7988C710.371 56.3867 710.743 57.2025 710.848 58.2461H709.528C709.414 57.4531 709.166 56.8789 708.783 56.5234C708.405 56.168 707.874 55.9902 707.19 55.9902C706.352 55.9902 705.693 56.3001 705.215 56.9199C704.741 57.5397 704.504 58.4215 704.504 59.5654V60.5293C704.504 61.6094 704.729 62.4684 705.181 63.1064C705.632 63.7445 706.263 64.0635 707.074 64.0635C707.803 64.0635 708.362 63.8994 708.749 63.5713C709.141 63.2386 709.401 62.6621 709.528 61.8418H710.848ZM713.712 58.499C714.272 57.8109 715.002 57.4668 715.899 57.4668C717.463 57.4668 718.251 58.3486 718.265 60.1123V65H717V60.1055C716.995 59.5723 716.872 59.1781 716.631 58.9229C716.394 58.6676 716.022 58.54 715.517 58.54C715.106 58.54 714.746 58.6494 714.437 58.8682C714.127 59.0869 713.885 59.374 713.712 59.7295V65H712.447V54.5H713.712V58.499ZM723.228 65.1367C722.225 65.1367 721.409 64.8086 720.78 64.1523C720.151 63.4915 719.837 62.6097 719.837 61.5068V61.2744C719.837 60.5407 719.976 59.8867 720.254 59.3125C720.536 58.7337 720.928 58.2826 721.43 57.959C721.936 57.6309 722.482 57.4668 723.07 57.4668C724.032 57.4668 724.779 57.7835 725.312 58.417C725.846 59.0505 726.112 59.9574 726.112 61.1377V61.6641H721.102C721.12 62.3932 721.332 62.9834 721.737 63.4346C722.147 63.8812 722.667 64.1045 723.296 64.1045C723.743 64.1045 724.121 64.0133 724.431 63.8311C724.741 63.6488 725.012 63.4072 725.244 63.1064L726.017 63.708C725.397 64.6605 724.467 65.1367 723.228 65.1367ZM723.07 58.5059C722.56 58.5059 722.132 58.6927 721.785 59.0664C721.439 59.4355 721.225 59.9551 721.143 60.625H724.848V60.5293C724.811 59.8867 724.638 59.39 724.328 59.0391C724.018 58.6836 723.599 58.5059 723.07 58.5059ZM730.549 64.1045C731 64.1045 731.394 63.9678 731.731 63.6943C732.069 63.4209 732.256 63.0791 732.292 62.6689H733.488C733.465 63.0928 733.32 63.4961 733.051 63.8789C732.782 64.2617 732.422 64.5671 731.971 64.7949C731.524 65.0228 731.05 65.1367 730.549 65.1367C729.542 65.1367 728.74 64.8018 728.143 64.1318C727.55 63.4574 727.254 62.5368 727.254 61.3701V61.1582C727.254 60.4382 727.386 59.7979 727.65 59.2373C727.915 58.6768 728.293 58.2415 728.785 57.9316C729.282 57.6217 729.868 57.4668 730.542 57.4668C731.371 57.4668 732.06 57.7152 732.606 58.2119C733.158 58.7087 733.452 59.3535 733.488 60.1465H732.292C732.256 59.668 732.073 59.276 731.745 58.9707C731.422 58.6608 731.021 58.5059 730.542 58.5059C729.899 58.5059 729.4 58.7383 729.045 59.2031C728.694 59.6634 728.519 60.3311 728.519 61.2061V61.4453C728.519 62.2975 728.694 62.9538 729.045 63.4141C729.396 63.8743 729.897 64.1045 730.549 64.1045ZM736.975 61.5752L736.182 62.4023V65H734.917V54.5H736.182V60.8506L736.858 60.0371L739.162 57.6035H740.7L737.822 60.6934L741.035 65H739.552L736.975 61.5752ZM743.38 65H742.115V57.6035H743.38V65ZM742.013 55.6416C742.013 55.4365 742.074 55.2633 742.197 55.1221C742.325 54.9808 742.512 54.9102 742.758 54.9102C743.004 54.9102 743.191 54.9808 743.318 55.1221C743.446 55.2633 743.51 55.4365 743.51 55.6416C743.51 55.8467 743.446 56.0176 743.318 56.1543C743.191 56.291 743.004 56.3594 742.758 56.3594C742.512 56.3594 742.325 56.291 742.197 56.1543C742.074 56.0176 742.013 55.8467 742.013 55.6416ZM746.606 57.6035L746.647 58.5332C747.213 57.8223 747.951 57.4668 748.862 57.4668C750.425 57.4668 751.214 58.3486 751.228 60.1123V65H749.963V60.1055C749.958 59.5723 749.835 59.1781 749.594 58.9229C749.357 58.6676 748.985 58.54 748.479 58.54C748.069 58.54 747.709 58.6494 747.399 58.8682C747.09 59.0869 746.848 59.374 746.675 59.7295V65H745.41V57.6035H746.606ZM752.834 61.2402C752.834 60.0872 753.101 59.1712 753.634 58.4922C754.167 57.8086 754.873 57.4668 755.753 57.4668C756.655 57.4668 757.359 57.7858 757.865 58.4238L757.927 57.6035H759.082V64.8223C759.082 65.7793 758.797 66.5335 758.228 67.085C757.662 67.6364 756.901 67.9121 755.944 67.9121C755.411 67.9121 754.889 67.7982 754.379 67.5703C753.868 67.3424 753.479 67.0303 753.21 66.6338L753.866 65.875C754.409 66.5449 755.072 66.8799 755.855 66.8799C756.471 66.8799 756.949 66.7067 757.291 66.3604C757.637 66.014 757.811 65.5264 757.811 64.8975V64.2617C757.305 64.8451 756.614 65.1367 755.739 65.1367C754.873 65.1367 754.172 64.7881 753.634 64.0908C753.101 63.3936 752.834 62.4434 752.834 61.2402ZM754.105 61.3838C754.105 62.2178 754.276 62.874 754.618 63.3525C754.96 63.8265 755.438 64.0635 756.054 64.0635C756.851 64.0635 757.437 63.7012 757.811 62.9766V59.5996C757.423 58.8932 756.842 58.54 756.067 58.54C755.452 58.54 754.971 58.7793 754.625 59.2578C754.279 59.7363 754.105 60.445 754.105 61.3838Z" fill="white"/>
<path d="M626 59L629 62L640 51" stroke="white" stroke-width="2" stroke-linecap="round" stroke-linejoin="round"/>
<path d="M638 60V67C638 67.5304 637.789 68.0391 637.414 68.4142C637.039 68.7893 636.53 69 636 69H622C621.47 69 620.961 68.7893 620.586 68.4142C620.211 68.0391 620 67.5304 620 67V53C620 52.4696 620.211 51.9609 620.586 51.5858C620.961 51.2107 621.47 51 622 51H633" stroke="white" stroke-width="2" stroke-linecap="round" stroke-linejoin="round"/>
<rect x="420" y="100" width="170" height="40" rx="5" fill="#C42C2D"/>
<path d="M471.335 120.399H467.021V123.927H472.032V125H465.709V115.047H471.964V116.127H467.021V119.326H471.335V120.399ZM476.298 124.104C476.749 124.104 477.143 123.968 477.48 123.694C477.818 123.421 478.005 123.079 478.041 122.669H479.237C479.215 123.093 479.069 123.496 478.8 123.879C478.531 124.262 478.171 124.567 477.72 124.795C477.273 125.023 476.799 125.137 476.298 125.137C475.291 125.137 474.489 124.802 473.892 124.132C473.299 123.457 473.003 122.537 473.003 121.37V121.158C473.003 120.438 473.135 119.798 473.399 119.237C473.664 118.677 474.042 118.242 474.534 117.932C475.031 117.622 475.617 117.467 476.291 117.467C477.12 117.467 477.809 117.715 478.355 118.212C478.907 118.709 479.201 119.354 479.237 120.146H478.041C478.005 119.668 477.822 119.276 477.494 118.971C477.171 118.661 476.77 118.506 476.291 118.506C475.648 118.506 475.149 118.738 474.794 119.203C474.443 119.663 474.268 120.331 474.268 121.206V121.445C474.268 122.298 474.443 122.954 474.794 123.414C475.145 123.874 475.646 124.104 476.298 124.104ZM480.324 121.233C480.324 120.509 480.465 119.857 480.748 119.278C481.035 118.7 481.432 118.253 481.938 117.938C482.448 117.624 483.029 117.467 483.681 117.467C484.688 117.467 485.501 117.815 486.121 118.513C486.745 119.21 487.058 120.137 487.058 121.295V121.384C487.058 122.104 486.919 122.751 486.641 123.325C486.367 123.895 485.973 124.339 485.458 124.658C484.948 124.977 484.36 125.137 483.694 125.137C482.692 125.137 481.878 124.788 481.254 124.091C480.634 123.394 480.324 122.471 480.324 121.322V121.233ZM481.596 121.384C481.596 122.204 481.785 122.863 482.163 123.359C482.546 123.856 483.056 124.104 483.694 124.104C484.337 124.104 484.847 123.854 485.226 123.353C485.604 122.847 485.793 122.14 485.793 121.233C485.793 120.422 485.599 119.766 485.212 119.265C484.829 118.759 484.319 118.506 483.681 118.506C483.056 118.506 482.553 118.754 482.17 119.251C481.787 119.748 481.596 120.459 481.596 121.384ZM492.95 123.038C492.95 122.696 492.82 122.432 492.561 122.245C492.305 122.054 491.856 121.89 491.214 121.753C490.576 121.616 490.068 121.452 489.689 121.261C489.316 121.069 489.038 120.841 488.855 120.577C488.678 120.313 488.589 119.998 488.589 119.634C488.589 119.028 488.844 118.515 489.354 118.096C489.869 117.676 490.526 117.467 491.323 117.467C492.162 117.467 492.841 117.683 493.36 118.116C493.884 118.549 494.146 119.103 494.146 119.777H492.875C492.875 119.431 492.727 119.132 492.431 118.882C492.139 118.631 491.77 118.506 491.323 118.506C490.863 118.506 490.503 118.606 490.243 118.807C489.983 119.007 489.854 119.269 489.854 119.593C489.854 119.898 489.974 120.128 490.216 120.283C490.457 120.438 490.893 120.586 491.521 120.728C492.155 120.869 492.668 121.037 493.06 121.233C493.451 121.429 493.741 121.666 493.928 121.944C494.119 122.218 494.215 122.553 494.215 122.949C494.215 123.61 493.951 124.141 493.422 124.542C492.893 124.938 492.207 125.137 491.364 125.137C490.772 125.137 490.248 125.032 489.792 124.822C489.336 124.613 488.979 124.321 488.719 123.947C488.464 123.569 488.336 123.161 488.336 122.724H489.601C489.623 123.147 489.792 123.485 490.106 123.735C490.425 123.981 490.845 124.104 491.364 124.104C491.843 124.104 492.226 124.009 492.513 123.817C492.804 123.621 492.95 123.362 492.95 123.038ZM498.282 123.147L500.005 117.604H501.358L498.385 126.142C497.924 127.372 497.193 127.987 496.19 127.987L495.951 127.967L495.479 127.878V126.853L495.821 126.88C496.25 126.88 496.582 126.793 496.819 126.62C497.061 126.447 497.259 126.13 497.414 125.67L497.694 124.918L495.056 117.604H496.437L498.282 123.147ZM506.8 123.038C506.8 122.696 506.67 122.432 506.41 122.245C506.155 122.054 505.706 121.89 505.063 121.753C504.425 121.616 503.917 121.452 503.539 121.261C503.165 121.069 502.887 120.841 502.705 120.577C502.527 120.313 502.438 119.998 502.438 119.634C502.438 119.028 502.694 118.515 503.204 118.096C503.719 117.676 504.375 117.467 505.173 117.467C506.011 117.467 506.69 117.683 507.21 118.116C507.734 118.549 507.996 119.103 507.996 119.777H506.725C506.725 119.431 506.576 119.132 506.28 118.882C505.989 118.631 505.619 118.506 505.173 118.506C504.713 118.506 504.353 118.606 504.093 118.807C503.833 119.007 503.703 119.269 503.703 119.593C503.703 119.898 503.824 120.128 504.065 120.283C504.307 120.438 504.742 120.586 505.371 120.728C506.005 120.869 506.517 121.037 506.909 121.233C507.301 121.429 507.59 121.666 507.777 121.944C507.969 122.218 508.064 122.553 508.064 122.949C508.064 123.61 507.8 124.141 507.271 124.542C506.743 124.938 506.057 125.137 505.214 125.137C504.621 125.137 504.097 125.032 503.642 124.822C503.186 124.613 502.828 124.321 502.568 123.947C502.313 123.569 502.186 123.161 502.186 122.724H503.45C503.473 123.147 503.642 123.485 503.956 123.735C504.275 123.981 504.694 124.104 505.214 124.104C505.692 124.104 506.075 124.009 506.362 123.817C506.654 123.621 506.8 123.362 506.8 123.038ZM511.428 115.812V117.604H512.809V118.581H511.428V123.168C511.428 123.464 511.489 123.688 511.612 123.838C511.735 123.984 511.945 124.057 512.241 124.057C512.387 124.057 512.588 124.029 512.843 123.975V125C512.51 125.091 512.187 125.137 511.872 125.137C511.307 125.137 510.881 124.966 510.594 124.624C510.307 124.282 510.163 123.797 510.163 123.168V118.581H508.816V117.604H510.163V115.812H511.428ZM517.361 125.137C516.359 125.137 515.543 124.809 514.914 124.152C514.285 123.492 513.971 122.61 513.971 121.507V121.274C513.971 120.541 514.11 119.887 514.388 119.312C514.67 118.734 515.062 118.283 515.563 117.959C516.069 117.631 516.616 117.467 517.204 117.467C518.166 117.467 518.913 117.784 519.446 118.417C519.979 119.05 520.246 119.957 520.246 121.138V121.664H515.235C515.254 122.393 515.465 122.983 515.871 123.435C516.281 123.881 516.801 124.104 517.43 124.104C517.876 124.104 518.255 124.013 518.564 123.831C518.874 123.649 519.146 123.407 519.378 123.106L520.15 123.708C519.531 124.66 518.601 125.137 517.361 125.137ZM517.204 118.506C516.694 118.506 516.265 118.693 515.919 119.066C515.573 119.436 515.358 119.955 515.276 120.625H518.981V120.529C518.945 119.887 518.772 119.39 518.462 119.039C518.152 118.684 517.733 118.506 517.204 118.506ZM522.905 117.604L522.939 118.424C523.482 117.786 524.213 117.467 525.134 117.467C526.168 117.467 526.872 117.863 527.246 118.656C527.492 118.301 527.811 118.014 528.203 117.795C528.6 117.576 529.067 117.467 529.604 117.467C531.227 117.467 532.052 118.326 532.079 120.044V125H530.814V120.119C530.814 119.59 530.694 119.196 530.452 118.937C530.211 118.672 529.805 118.54 529.235 118.54C528.766 118.54 528.376 118.681 528.066 118.964C527.757 119.242 527.576 119.618 527.526 120.092V125H526.255V120.153C526.255 119.078 525.729 118.54 524.676 118.54C523.846 118.54 523.279 118.893 522.974 119.6V125H521.709V117.604H522.905ZM539.359 115.047L542.613 123.168L545.867 115.047H547.569V125H546.257V121.124L546.38 116.94L543.112 125H542.107L538.847 116.961L538.977 121.124V125H537.664V115.047H539.359ZM549.354 121.233C549.354 120.509 549.495 119.857 549.777 119.278C550.064 118.7 550.461 118.253 550.967 117.938C551.477 117.624 552.058 117.467 552.71 117.467C553.717 117.467 554.531 117.815 555.15 118.513C555.775 119.21 556.087 120.137 556.087 121.295V121.384C556.087 122.104 555.948 122.751 555.67 123.325C555.396 123.895 555.002 124.339 554.487 124.658C553.977 124.977 553.389 125.137 552.724 125.137C551.721 125.137 550.908 124.788 550.283 124.091C549.663 123.394 549.354 122.471 549.354 121.322V121.233ZM550.625 121.384C550.625 122.204 550.814 122.863 551.192 123.359C551.575 123.856 552.086 124.104 552.724 124.104C553.366 124.104 553.877 123.854 554.255 123.353C554.633 122.847 554.822 122.14 554.822 121.233C554.822 120.422 554.629 119.766 554.241 119.265C553.858 118.759 553.348 118.506 552.71 118.506C552.086 118.506 551.582 118.754 551.199 119.251C550.816 119.748 550.625 120.459 550.625 121.384ZM557.365 121.24C557.365 120.105 557.634 119.194 558.172 118.506C558.71 117.813 559.414 117.467 560.284 117.467C561.15 117.467 561.836 117.763 562.342 118.355V114.5H563.606V125H562.444L562.383 124.207C561.877 124.827 561.173 125.137 560.271 125.137C559.414 125.137 558.714 124.786 558.172 124.084C557.634 123.382 557.365 122.466 557.365 121.336V121.24ZM558.63 121.384C558.63 122.222 558.803 122.879 559.149 123.353C559.496 123.826 559.974 124.063 560.585 124.063C561.387 124.063 561.973 123.703 562.342 122.983V119.586C561.964 118.889 561.382 118.54 560.599 118.54C559.979 118.54 559.496 118.779 559.149 119.258C558.803 119.736 558.63 120.445 558.63 121.384ZM568.645 125.137C567.642 125.137 566.826 124.809 566.197 124.152C565.568 123.492 565.254 122.61 565.254 121.507V121.274C565.254 120.541 565.393 119.887 565.671 119.312C565.953 118.734 566.345 118.283 566.847 117.959C567.353 117.631 567.899 117.467 568.487 117.467C569.449 117.467 570.196 117.784 570.729 118.417C571.263 119.05 571.529 119.957 571.529 121.138V121.664H566.519C566.537 122.393 566.749 122.983 567.154 123.435C567.564 123.881 568.084 124.104 568.713 124.104C569.16 124.104 569.538 124.013 569.848 123.831C570.158 123.649 570.429 123.407 570.661 123.106L571.434 123.708C570.814 124.66 569.884 125.137 568.645 125.137ZM568.487 118.506C567.977 118.506 567.549 118.693 567.202 119.066C566.856 119.436 566.642 119.955 566.56 120.625H570.265V120.529C570.228 119.887 570.055 119.39 569.745 119.039C569.435 118.684 569.016 118.506 568.487 118.506ZM574.373 125H573.108V114.5H574.373V125Z" fill="white"/>
<path d="M439.914 110.07C439.107 110.073 438.335 110.142 437.656 110.262C435.657 110.616 435.294 111.355 435.294 112.719V114.519H440.019V115.12H435.294H433.521C432.147 115.12 430.945 115.945 430.569 117.515C430.135 119.315 430.116 120.438 430.569 122.318C430.905 123.716 431.707 124.713 433.08 124.713H434.705V122.554C434.705 120.995 436.054 119.619 437.656 119.619H442.376C443.69 119.619 444.738 118.537 444.738 117.218V112.719C444.738 111.438 443.658 110.476 442.376 110.262C441.564 110.127 440.722 110.066 439.914 110.07ZM437.359 111.518C437.847 111.518 438.246 111.923 438.246 112.421C438.246 112.917 437.847 113.319 437.359 113.319C436.869 113.319 436.472 112.917 436.472 112.421C436.472 111.923 436.869 111.518 437.359 111.518Z" fill="white"/>
<path d="M445.328 115.12V117.218C445.328 118.845 443.949 120.214 442.376 120.214H437.656C436.364 120.214 435.294 121.32 435.294 122.615V127.114C435.294 128.394 436.407 129.148 437.656 129.515C439.152 129.955 440.586 130.035 442.376 129.515C443.565 129.171 444.738 128.477 444.738 127.114V125.313H440.019V124.713H444.738H447.101C448.474 124.713 448.986 123.755 449.463 122.318C449.957 120.837 449.936 119.414 449.463 117.515C449.124 116.148 448.476 115.12 447.101 115.12H445.328V115.12ZM442.673 126.514C443.163 126.514 443.56 126.915 443.56 127.411C443.56 127.909 443.163 128.314 442.673 128.314C442.185 128.314 441.787 127.909 441.787 127.411C441.787 126.915 442.185 126.514 442.673 126.514Z" fill="white"/>
<rect x="420" y="40" width="170" height="40" rx="5" fill="#2CB2C4"/>
<path d="M493.477 65H492.164V55.0469H493.477V65ZM496.881 57.6035L496.922 58.5332C497.487 57.8223 498.225 57.4668 499.137 57.4668C500.7 57.4668 501.488 58.3486 501.502 60.1123V65H500.237V60.1055C500.233 59.5723 500.11 59.1781 499.868 58.9229C499.631 58.6676 499.26 58.54 498.754 58.54C498.344 58.54 497.984 58.6494 497.674 58.8682C497.364 59.0869 497.122 59.374 496.949 59.7295V65H495.685V57.6035H496.881ZM504.031 65V58.5811H502.862V57.6035H504.031V56.8447C504.031 56.0518 504.243 55.4388 504.667 55.0059C505.091 54.5729 505.69 54.3564 506.465 54.3564C506.757 54.3564 507.046 54.3952 507.333 54.4727L507.265 55.498C507.05 55.457 506.823 55.4365 506.581 55.4365C506.171 55.4365 505.854 55.5573 505.631 55.7988C505.408 56.0358 505.296 56.3776 505.296 56.8242V57.6035H506.875V58.5811H505.296V65H504.031ZM511.182 65.1367C510.179 65.1367 509.363 64.8086 508.734 64.1523C508.105 63.4915 507.791 62.6097 507.791 61.5068V61.2744C507.791 60.5407 507.93 59.8867 508.208 59.3125C508.491 58.7337 508.882 58.2826 509.384 57.959C509.89 57.6309 510.437 57.4668 511.024 57.4668C511.986 57.4668 512.733 57.7835 513.267 58.417C513.8 59.0505 514.066 59.9574 514.066 61.1377V61.6641H509.056C509.074 62.3932 509.286 62.9834 509.691 63.4346C510.102 63.8812 510.621 64.1045 511.25 64.1045C511.697 64.1045 512.075 64.0133 512.385 63.8311C512.695 63.6488 512.966 63.4072 513.198 63.1064L513.971 63.708C513.351 64.6605 512.421 65.1367 511.182 65.1367ZM511.024 58.5059C510.514 58.5059 510.086 58.6927 509.739 59.0664C509.393 59.4355 509.179 59.9551 509.097 60.625H512.802V60.5293C512.765 59.8867 512.592 59.39 512.282 59.0391C511.972 58.6836 511.553 58.5059 511.024 58.5059ZM519.111 58.7383C518.92 58.7064 518.713 58.6904 518.489 58.6904C517.66 58.6904 517.097 59.0436 516.801 59.75V65H515.536V57.6035H516.767L516.787 58.458C517.202 57.7972 517.79 57.4668 518.551 57.4668C518.797 57.4668 518.984 57.4987 519.111 57.5625V58.7383ZM523.213 65.1367C522.21 65.1367 521.395 64.8086 520.766 64.1523C520.137 63.4915 519.822 62.6097 519.822 61.5068V61.2744C519.822 60.5407 519.961 59.8867 520.239 59.3125C520.522 58.7337 520.914 58.2826 521.415 57.959C521.921 57.6309 522.468 57.4668 523.056 57.4668C524.017 57.4668 524.765 57.7835 525.298 58.417C525.831 59.0505 526.098 59.9574 526.098 61.1377V61.6641H521.087C521.105 62.3932 521.317 62.9834 521.723 63.4346C522.133 63.8812 522.652 64.1045 523.281 64.1045C523.728 64.1045 524.106 64.0133 524.416 63.8311C524.726 63.6488 524.997 63.4072 525.229 63.1064L526.002 63.708C525.382 64.6605 524.452 65.1367 523.213 65.1367ZM523.056 58.5059C522.545 58.5059 522.117 58.6927 521.771 59.0664C521.424 59.4355 521.21 59.9551 521.128 60.625H524.833V60.5293C524.797 59.8867 524.623 59.39 524.313 59.0391C524.004 58.6836 523.584 58.5059 523.056 58.5059ZM528.764 57.6035L528.805 58.5332C529.37 57.8223 530.108 57.4668 531.02 57.4668C532.583 57.4668 533.371 58.3486 533.385 60.1123V65H532.12V60.1055C532.116 59.5723 531.993 59.1781 531.751 58.9229C531.514 58.6676 531.143 58.54 530.637 58.54C530.227 58.54 529.867 58.6494 529.557 58.8682C529.247 59.0869 529.005 59.374 528.832 59.7295V65H527.567V57.6035H528.764ZM538.259 64.1045C538.71 64.1045 539.104 63.9678 539.441 63.6943C539.779 63.4209 539.965 63.0791 540.002 62.6689H541.198C541.175 63.0928 541.03 63.4961 540.761 63.8789C540.492 64.2617 540.132 64.5671 539.681 64.7949C539.234 65.0228 538.76 65.1367 538.259 65.1367C537.252 65.1367 536.45 64.8018 535.853 64.1318C535.26 63.4574 534.964 62.5368 534.964 61.3701V61.1582C534.964 60.4382 535.096 59.7979 535.36 59.2373C535.625 58.6768 536.003 58.2415 536.495 57.9316C536.992 57.6217 537.577 57.4668 538.252 57.4668C539.081 57.4668 539.77 57.7152 540.316 58.2119C540.868 58.7087 541.162 59.3535 541.198 60.1465H540.002C539.965 59.668 539.783 59.276 539.455 58.9707C539.132 58.6608 538.73 58.5059 538.252 58.5059C537.609 58.5059 537.11 58.7383 536.755 59.2031C536.404 59.6634 536.229 60.3311 536.229 61.2061V61.4453C536.229 62.2975 536.404 62.9538 536.755 63.4141C537.106 63.8743 537.607 64.1045 538.259 64.1045ZM545.689 65.1367C544.687 65.1367 543.871 64.8086 543.242 64.1523C542.613 63.4915 542.299 62.6097 542.299 61.5068V61.2744C542.299 60.5407 542.438 59.8867 542.716 59.3125C542.998 58.7337 543.39 58.2826 543.892 57.959C544.397 57.6309 544.944 57.4668 545.532 57.4668C546.494 57.4668 547.241 57.7835 547.774 58.417C548.308 59.0505 548.574 59.9574 548.574 61.1377V61.6641H543.563C543.582 62.3932 543.794 62.9834 544.199 63.4346C544.609 63.8812 545.129 64.1045 545.758 64.1045C546.204 64.1045 546.583 64.0133 546.893 63.8311C547.202 63.6488 547.474 63.4072 547.706 63.1064L548.479 63.708C547.859 64.6605 546.929 65.1367 545.689 65.1367ZM545.532 58.5059C545.022 58.5059 544.593 58.6927 544.247 59.0664C543.901 59.4355 543.687 59.9551 543.604 60.625H547.31V60.5293C547.273 59.8867 547.1 59.39 546.79 59.0391C546.48 58.6836 546.061 58.5059 545.532 58.5059Z" fill="white"/>
<path fill-rule="evenodd" clip-rule="evenodd" d="M439.676 51.9438C439.366 52.2522 439.211 52.625 439.21 53.0622C439.211 53.4992 439.366 53.872 439.676 54.1804C439.984 54.4889 440.357 54.6429 440.794 54.6426C441.231 54.643 441.604 54.489 441.913 54.1804C441.953 54.1399 441.99 54.0989 442.024 54.0572L443.173 54.5839C443.156 54.6748 443.147 54.7693 443.145 54.8674V54.8706C443.146 55.3075 443.302 55.6802 443.611 55.9889C443.918 56.2959 444.29 56.4489 444.726 56.4478C445.163 56.4489 445.536 56.2959 445.845 55.9889C445.884 55.9487 445.921 55.9076 445.956 55.8656L447.105 56.3955C447.091 56.486 447.083 56.5795 447.083 56.6758C447.083 57.114 447.237 57.4878 447.546 57.7972C447.801 58.0514 448.1 58.2002 448.442 58.244L448.615 59.772C448.411 59.8483 448.225 59.9706 448.057 60.1386C447.747 60.4469 447.592 60.8197 447.592 61.2569C447.593 61.488 447.637 61.7016 447.724 61.8977L446.036 63.21L445.783 60.9334C445.993 60.8563 446.183 60.732 446.353 60.5606C446.664 60.2522 446.82 59.8794 446.822 59.4424C446.82 59.0042 446.664 58.6304 446.353 58.321C446.045 58.0114 445.672 57.8564 445.235 57.8558C444.797 57.8564 444.425 58.0114 444.116 58.321C444.075 58.3625 444.037 58.4057 444.002 58.4503L442.862 57.9266C442.879 57.8326 442.887 57.735 442.887 57.6339C442.887 57.1968 442.733 56.824 442.424 56.5157C442.115 56.2061 441.741 56.0511 441.303 56.0505C440.865 56.0511 440.491 56.2061 440.181 56.5157C439.873 56.824 439.719 57.1968 439.719 57.6339C439.719 58.0721 439.873 58.4459 440.181 58.7553C440.491 59.0638 440.865 59.2178 441.303 59.2175C441.741 59.2179 442.115 59.0639 442.424 58.7553C442.464 58.715 442.501 58.6728 442.535 58.629L443.679 59.1558C443.662 59.2474 443.654 59.343 443.654 59.4423C443.654 59.682 443.701 59.9027 443.793 60.1046L442.763 60.9364C442.49 60.7268 442.174 60.622 441.814 60.6222C441.376 60.6228 441.002 60.7778 440.693 61.0874C440.65 61.1291 440.611 61.1723 440.576 61.2168L439.432 60.6899C439.449 60.5954 439.457 60.4979 439.457 60.3973C439.458 59.9602 439.303 59.5875 438.995 59.279C438.685 58.9706 438.312 58.8165 437.873 58.8169C437.436 58.8165 437.063 58.9705 436.755 59.279C436.713 59.3199 436.674 59.3621 436.637 59.4053L435.501 58.8816C435.517 58.787 435.525 58.6884 435.525 58.5859C435.525 58.343 435.478 58.1202 435.383 57.9174L436.413 57.0887C436.688 57.3016 437.007 57.4085 437.371 57.4091C437.809 57.4085 438.183 57.2535 438.493 56.9439C438.801 56.6355 438.955 56.2628 438.955 55.8256C438.955 55.3885 438.801 55.0157 438.493 54.7073C438.183 54.3988 437.809 54.2448 437.371 54.2452C436.933 54.2448 436.559 54.3988 436.249 54.7073C435.941 55.0157 435.787 55.3885 435.787 55.8256C435.787 56.0655 435.834 56.2863 435.929 56.488L434.9 57.3167C434.624 57.1047 434.305 56.9989 433.941 56.9993C433.504 56.9989 433.131 57.153 432.823 57.4615C432.513 57.7719 432.358 58.1467 432.357 58.5859C432.358 59.023 432.513 59.3958 432.823 59.7042C433.131 60.0127 433.504 60.1667 433.941 60.1663C434.38 60.1668 434.753 60.0128 435.063 59.7042C435.101 59.6656 435.137 59.6267 435.171 59.5872L436.314 60.1109C436.297 60.2026 436.289 60.2982 436.289 60.3973C436.29 60.8365 436.445 61.2113 436.755 61.5218C437.063 61.8303 437.436 61.9843 437.873 61.9839C438.311 61.9844 438.685 61.8304 438.995 61.5218C439.035 61.4804 439.072 61.4373 439.106 61.3924L440.255 61.9193C440.237 62.0128 440.228 62.1094 440.227 62.2088C440.228 62.646 440.383 63.0187 440.693 63.3271C441.002 63.6357 441.376 63.7897 441.814 63.7892C442.252 63.7898 442.624 63.6357 442.933 63.3271C443.243 63.0187 443.398 62.646 443.398 62.2088C443.398 61.9648 443.351 61.7408 443.257 61.5372L444.283 60.7054C444.499 60.8741 444.744 60.9758 445.016 61.0104C445.337 63.8971 445.659 66.7836 445.98 69.6702L444.911 70L443.275 65.7794H441.611C441.253 65.7802 440.921 65.6539 440.616 65.4005C440.311 65.1472 440.122 64.8412 440.049 64.4824L440.009 64.2883H438.012C437.657 64.2882 437.328 64.1629 437.026 63.9125C437.023 63.9114 437.02 63.9103 437.017 63.9093C436.712 63.6561 436.523 63.35 436.45 62.9914L436.41 62.8003H434.416C434.056 62.8002 433.722 62.6728 433.415 62.4183C433.109 62.164 432.92 61.857 432.848 61.4972L432.811 61.3092H431.27C431.213 61.3085 431.157 61.3043 431.103 61.297C430.827 61.2573 430.586 61.134 430.379 60.9273C430.126 60.6729 429.999 60.3659 430 60.0061V58.4689C429.999 58.1104 430.126 57.8044 430.379 57.5509C430.633 57.2966 430.939 57.1693 431.297 57.1688H431.353V55.6316C431.352 55.2722 431.479 54.9651 431.732 54.7104C431.987 54.4562 432.296 54.3289 432.656 54.3284H432.826L433.217 52.7911C433.306 52.4306 433.508 52.1226 433.824 51.8669C434.143 51.6148 434.482 51.4895 434.841 51.4911H436.409L436.449 51.3001C436.522 50.9413 436.711 50.6352 437.016 50.382C437.321 50.1274 437.653 50.0002 438.012 50H443.564C443.924 50.0001 444.256 50.1274 444.563 50.382C444.868 50.6352 445.057 50.9413 445.13 51.3001L445.167 51.4911H447.16C447.519 51.4901 447.852 51.6144 448.159 51.8639C448.161 51.8659 448.163 51.868 448.165 51.87C448.469 52.1243 448.657 52.4313 448.729 52.7911H449.524C449.882 52.7918 450.22 52.9181 450.538 53.17C450.854 53.4257 451.058 53.7337 451.148 54.0942L451.539 55.6315H451.708C452.069 55.6309 452.377 55.7572 452.633 56.0104C452.886 56.265 453.012 56.572 453.012 56.9315V58.4688H453.067C453.426 58.4682 453.732 58.5945 453.986 58.8477C454.24 59.1023 454.367 59.4093 454.368 59.7688V61.3091C454.367 61.669 454.24 61.9759 453.986 62.2302C453.779 62.4349 453.537 62.5561 453.261 62.5938C453.207 62.6022 453.152 62.6074 453.095 62.6092H452.454L452.285 63.5365C452.22 63.8973 452.039 64.2054 451.739 64.4607C451.439 64.7131 451.11 64.8385 450.75 64.8366H450.152L450.149 64.8488C450.082 65.6904 449.63 66.2387 448.793 66.494C447.958 66.7475 447.63 67.612 447.81 69.0879L446.726 69.4299L446.137 64.1003L448.192 62.5013C448.473 62.7277 448.8 62.8407 449.175 62.8402C449.614 62.8407 449.987 62.6867 450.297 62.3781C450.606 62.0687 450.76 61.6949 450.759 61.2568C450.76 60.8196 450.606 60.4467 450.297 60.1384C450.037 59.879 449.732 59.7279 449.382 59.6856L449.209 58.1699C449.421 58.0933 449.614 57.9691 449.785 57.7971C450.095 57.4876 450.25 57.1139 450.251 56.6757C450.25 56.2376 450.095 55.8637 449.785 55.5542C449.477 55.2458 449.104 55.0918 448.667 55.0922C448.229 55.0917 447.855 55.2458 447.545 55.5542C447.502 55.5986 447.461 55.6437 447.422 55.6899L446.282 55.1631C446.299 55.0684 446.307 54.9709 446.307 54.8705V54.8673C446.306 54.4617 446.173 54.1115 445.906 53.8168C445.886 53.7949 445.866 53.7734 445.845 53.7521C445.536 53.4451 445.163 53.292 444.726 53.2931C444.29 53.292 443.918 53.4451 443.611 53.7521C443.589 53.7733 443.569 53.7949 443.549 53.8168C443.53 53.8371 443.512 53.8576 443.493 53.8784L442.35 53.3516C442.367 53.2586 442.375 53.1621 442.375 53.0621C442.375 52.6249 442.221 52.2521 441.913 51.9437C441.604 51.6342 441.231 51.4791 440.794 51.4786C440.357 51.4792 439.984 51.6343 439.676 51.9438Z" fill="white"/>
<path fill-rule="evenodd" clip-rule="evenodd" d="M441.324 61.5588C441.467 61.451 441.63 61.3975 441.814 61.3985C441.924 61.3977 442.027 61.4161 442.122 61.454C442.218 61.4944 442.306 61.5549 442.387 61.6358C442.509 61.7571 442.584 61.8968 442.612 62.0547C442.621 62.1039 442.625 62.1553 442.625 62.2087C442.625 62.4296 442.546 62.6197 442.387 62.7787C442.227 62.9386 442.036 63.0188 441.814 63.019C441.592 63.0188 441.401 62.9386 441.241 62.7787C441.096 62.634 441.018 62.4634 441.007 62.2674C441.005 62.2479 441.004 62.2284 441.004 62.2088C441.003 61.9869 441.082 61.7959 441.241 61.6359C441.268 61.6081 441.296 61.5824 441.324 61.5588Z" fill="white"/>
<path fill-rule="evenodd" clip-rule="evenodd" d="M438.683 60.348C438.683 60.3638 438.683 60.3801 438.683 60.3973C438.683 60.6191 438.603 60.8103 438.443 60.9703C438.415 60.9989 438.385 61.0257 438.354 61.0505C438.215 61.156 438.055 61.2084 437.873 61.2075C437.651 61.2083 437.46 61.1292 437.3 60.9704C437.155 60.8245 437.077 60.6532 437.066 60.4559C437.062 60.4367 437.06 60.4172 437.06 60.3973C437.06 60.1765 437.14 59.9865 437.3 59.8274C437.327 59.7995 437.356 59.7738 437.386 59.7504C437.527 59.6416 437.689 59.5872 437.873 59.5872C438.094 59.5874 438.284 59.6676 438.443 59.8274C438.59 59.9741 438.671 60.1477 438.683 60.348Z" fill="white"/>
<path fill-rule="evenodd" clip-rule="evenodd" d="M434.752 58.5366C434.752 58.5528 434.752 58.5691 434.752 58.5859C434.751 58.8067 434.671 58.9967 434.511 59.1558C434.481 59.1865 434.45 59.2143 434.419 59.239C434.279 59.3434 434.12 59.3957 433.941 59.3961C433.719 59.3958 433.528 59.3157 433.368 59.1558C433.208 58.9967 433.128 58.8067 433.128 58.5859C433.128 58.364 433.208 58.173 433.368 58.0129C433.528 57.8529 433.719 57.7729 433.941 57.7726C434.054 57.7725 434.159 57.7931 434.255 57.8341C434.348 57.875 434.434 57.9345 434.511 58.0129C434.634 58.1356 434.71 58.2764 434.739 58.4349C434.745 58.4682 434.749 58.5021 434.752 58.5366Z" fill="white"/>
<path fill-rule="evenodd" clip-rule="evenodd" d="M438.184 55.8256C438.184 56.0474 438.104 56.2385 437.944 56.3985C437.784 56.5585 437.593 56.6386 437.371 56.6389C437.257 56.6381 437.151 56.6155 437.053 56.571C436.962 56.5327 436.878 56.4752 436.801 56.3985C436.676 56.2736 436.6 56.1299 436.573 55.9672C436.565 55.9215 436.561 55.8742 436.56 55.8255C436.561 55.6046 436.641 55.4147 436.801 55.2556C436.96 55.0956 437.15 55.0155 437.371 55.0152C437.593 55.0155 437.784 55.0957 437.944 55.2556C438.104 55.4147 438.184 55.6047 438.184 55.8256Z" fill="white"/>
<path fill-rule="evenodd" clip-rule="evenodd" d="M441.913 57.0979C441.922 57.1081 441.931 57.1184 441.941 57.1287C441.948 57.1383 441.955 57.1486 441.962 57.1595C442.055 57.2839 442.106 57.4245 442.116 57.5815C442.116 57.599 442.116 57.6165 442.116 57.6339C442.116 57.8547 442.036 58.0447 441.876 58.2038C441.847 58.2331 441.817 58.2599 441.786 58.284C441.646 58.3905 441.485 58.444 441.303 58.4441C441.082 58.4438 440.892 58.3637 440.733 58.2038C440.573 58.0447 440.492 57.8547 440.492 57.6339C440.492 57.412 440.573 57.221 440.733 57.0609C440.892 56.901 441.082 56.8209 441.303 56.8206C441.525 56.8209 441.716 56.901 441.876 57.0609C441.883 57.0682 441.89 57.0753 441.897 57.0825C441.903 57.088 441.908 57.0932 441.913 57.0979Z" fill="white"/>
<path fill-rule="evenodd" clip-rule="evenodd" d="M445.235 58.632C445.456 58.6313 445.647 58.7104 445.808 58.8693C445.968 59.0293 446.048 59.2204 446.048 59.4423C446.048 59.6641 445.968 59.8552 445.808 60.0152C445.77 60.0518 445.731 60.0836 445.691 60.1108C445.556 60.2052 445.404 60.2525 445.235 60.2525C445.123 60.2526 445.019 60.232 444.923 60.1909H444.92C444.828 60.1516 444.743 60.0931 444.664 60.0153C444.539 59.89 444.463 59.7453 444.436 59.581C444.432 59.5553 444.429 59.5285 444.427 59.5008C444.425 59.4816 444.424 59.4621 444.424 59.4423C444.424 59.2204 444.504 59.0294 444.664 58.8694C444.692 58.8426 444.72 58.8179 444.751 58.7954C444.89 58.6864 445.051 58.632 445.235 58.632Z" fill="white"/>
<path fill-rule="evenodd" clip-rule="evenodd" d="M440.221 52.4891C440.381 52.3303 440.572 52.2511 440.794 52.2519C441.015 52.2511 441.205 52.3303 441.364 52.4891C441.511 52.6359 441.591 52.8084 441.605 53.0067C441.605 53.0254 441.605 53.0438 441.605 53.0622C441.604 53.283 441.524 53.473 441.364 53.6321C441.336 53.6608 441.306 53.6875 441.275 53.7122C441.136 53.8188 440.976 53.8722 440.794 53.8724C440.572 53.872 440.381 53.7919 440.221 53.6321C440.062 53.473 439.983 53.283 439.984 53.0622C439.983 52.8402 440.062 52.6492 440.221 52.4891Z" fill="white"/>
<path fill-rule="evenodd" clip-rule="evenodd" d="M444.239 54.2236C444.38 54.1169 444.542 54.0636 444.726 54.0635C444.947 54.0631 445.136 54.1401 445.293 54.2945L445.296 54.3037C445.308 54.3127 445.319 54.322 445.33 54.3314L445.333 54.3345C445.457 54.4721 445.524 54.6333 445.533 54.8182C445.534 54.8347 445.534 54.8511 445.533 54.8675V54.8706C445.533 55.0933 445.454 55.2833 445.296 55.4406C445.267 55.4693 445.236 55.495 445.204 55.5176C445.066 55.622 444.907 55.6743 444.726 55.6747C444.502 55.6752 444.311 55.5972 444.153 55.4406C444.01 55.2973 443.933 55.1269 443.922 54.9292C443.92 54.91 443.919 54.8905 443.919 54.8707V54.8675C443.919 54.6619 443.987 54.4843 444.122 54.3346L444.125 54.3315C444.134 54.322 444.143 54.3128 444.153 54.3038L444.156 54.2946C444.183 54.2681 444.211 54.2444 444.239 54.2236Z" fill="white"/>
<path fill-rule="evenodd" clip-rule="evenodd" d="M448.667 55.8657C448.888 55.8659 449.078 55.946 449.237 56.1059C449.397 56.265 449.477 56.4549 449.478 56.6758C449.477 56.8977 449.397 57.0887 449.237 57.2488C449.2 57.2865 449.161 57.3194 449.12 57.3474C448.987 57.4418 448.836 57.4891 448.667 57.4891C448.554 57.4892 448.449 57.4686 448.353 57.4275C448.26 57.3867 448.175 57.3272 448.097 57.2488C447.952 57.1052 447.872 56.9368 447.857 56.7437C447.855 56.7209 447.854 56.6983 447.854 56.6758C447.855 56.4549 447.936 56.265 448.097 56.1059C448.122 56.0809 448.147 56.0584 448.174 56.0382C448.316 55.9237 448.48 55.8663 448.667 55.8657Z" fill="white"/>
<path fill-rule="evenodd" clip-rule="evenodd" d="M449.176 60.4466C449.281 60.4458 449.38 60.4633 449.471 60.4989C449.571 60.539 449.663 60.6006 449.746 60.6837C449.906 60.8439 449.986 61.0349 449.986 61.2568C449.986 61.4776 449.906 61.6675 449.746 61.8268C449.587 61.9867 449.397 62.0667 449.176 62.0671C449.056 62.0674 448.945 62.0449 448.843 61.9992C448.756 61.9581 448.676 61.9005 448.602 61.8268C448.475 61.6994 448.399 61.5525 448.374 61.3862C448.368 61.3441 448.365 61.301 448.365 61.2569C448.364 61.035 448.444 60.844 448.602 60.6838C448.636 60.651 448.671 60.6211 448.707 60.5945C448.844 60.4956 449 60.4463 449.176 60.4466Z" fill="white"/>
<rect x="820" y="40" width="160" height="40" rx="5" fill="#54C42C"/>
<path d="M866.287 60.5635C865.161 60.2399 864.341 59.8434 863.826 59.374C863.316 58.9001 863.061 58.3167 863.061 57.624C863.061 56.8402 863.373 56.193 863.997 55.6826C864.626 55.1676 865.442 54.9102 866.444 54.9102C867.128 54.9102 867.736 55.0423 868.27 55.3066C868.807 55.571 869.222 55.9355 869.514 56.4004C869.81 56.8652 869.958 57.3734 869.958 57.9248H868.639C868.639 57.3232 868.447 56.8516 868.064 56.5098C867.682 56.1634 867.142 55.9902 866.444 55.9902C865.797 55.9902 865.291 56.1338 864.927 56.4209C864.567 56.7035 864.387 57.0977 864.387 57.6035C864.387 58.0091 864.558 58.3532 864.899 58.6357C865.246 58.9137 865.831 59.1689 866.656 59.4014C867.486 59.6338 868.133 59.8913 868.598 60.1738C869.067 60.4518 869.413 60.7777 869.637 61.1514C869.865 61.5251 869.979 61.9648 869.979 62.4707C869.979 63.2773 869.664 63.9245 869.035 64.4121C868.406 64.8952 867.565 65.1367 866.513 65.1367C865.829 65.1367 865.191 65.0068 864.599 64.7471C864.006 64.4827 863.548 64.1227 863.225 63.667C862.906 63.2113 862.746 62.694 862.746 62.1152H864.065C864.065 62.7168 864.286 63.193 864.729 63.5439C865.175 63.8903 865.77 64.0635 866.513 64.0635C867.205 64.0635 867.736 63.9222 868.105 63.6396C868.475 63.3571 868.659 62.972 868.659 62.4844C868.659 61.9967 868.488 61.6208 868.146 61.3564C867.805 61.0876 867.185 60.8232 866.287 60.5635ZM874.436 64.1045C874.887 64.1045 875.281 63.9678 875.618 63.6943C875.955 63.4209 876.142 63.0791 876.179 62.6689H877.375C877.352 63.0928 877.206 63.4961 876.938 63.8789C876.669 64.2617 876.309 64.5671 875.857 64.7949C875.411 65.0228 874.937 65.1367 874.436 65.1367C873.428 65.1367 872.626 64.8018 872.029 64.1318C871.437 63.4574 871.141 62.5368 871.141 61.3701V61.1582C871.141 60.4382 871.273 59.7979 871.537 59.2373C871.801 58.6768 872.18 58.2415 872.672 57.9316C873.169 57.6217 873.754 57.4668 874.429 57.4668C875.258 57.4668 875.946 57.7152 876.493 58.2119C877.045 58.7087 877.339 59.3535 877.375 60.1465H876.179C876.142 59.668 875.96 59.276 875.632 58.9707C875.308 58.6608 874.907 58.5059 874.429 58.5059C873.786 58.5059 873.287 58.7383 872.932 59.2031C872.581 59.6634 872.405 60.3311 872.405 61.2061V61.4453C872.405 62.2975 872.581 62.9538 872.932 63.4141C873.283 63.8743 873.784 64.1045 874.436 64.1045ZM882.372 58.7383C882.181 58.7064 881.973 58.6904 881.75 58.6904C880.921 58.6904 880.358 59.0436 880.062 59.75V65H878.797V57.6035H880.027L880.048 58.458C880.463 57.7972 881.05 57.4668 881.812 57.4668C882.058 57.4668 882.244 57.4987 882.372 57.5625V58.7383ZM887.834 65C887.761 64.8542 887.702 64.5944 887.656 64.2207C887.068 64.8314 886.367 65.1367 885.551 65.1367C884.822 65.1367 884.222 64.9316 883.753 64.5215C883.288 64.1068 883.056 63.5827 883.056 62.9492C883.056 62.179 883.347 61.582 883.931 61.1582C884.519 60.7298 885.343 60.5156 886.405 60.5156H887.636V59.9346C887.636 59.4925 887.504 59.1416 887.239 58.8818C886.975 58.6175 886.585 58.4854 886.07 58.4854C885.619 58.4854 885.241 58.5993 884.936 58.8271C884.63 59.055 884.478 59.3307 884.478 59.6543H883.206C883.206 59.2852 883.336 58.9297 883.596 58.5879C883.86 58.2415 884.215 57.9681 884.662 57.7676C885.113 57.5671 885.608 57.4668 886.146 57.4668C886.998 57.4668 887.665 57.681 888.148 58.1094C888.632 58.5332 888.882 59.1188 888.9 59.8662V63.2705C888.9 63.9495 888.987 64.4896 889.16 64.8906V65H887.834ZM885.735 64.0361C886.132 64.0361 886.508 63.9336 886.863 63.7285C887.219 63.5234 887.476 63.2568 887.636 62.9287V61.4111H886.645C885.095 61.4111 884.32 61.8646 884.32 62.7715C884.32 63.168 884.452 63.4779 884.717 63.7012C884.981 63.9245 885.321 64.0361 885.735 64.0361ZM897.131 61.3838C897.131 62.5094 896.873 63.4163 896.358 64.1045C895.843 64.7926 895.146 65.1367 894.267 65.1367C893.369 65.1367 892.662 64.8519 892.147 64.2822V67.8438H890.883V57.6035H892.038L892.1 58.4238C892.615 57.7858 893.33 57.4668 894.246 57.4668C895.135 57.4668 895.837 57.8018 896.352 58.4717C896.871 59.1416 897.131 60.0736 897.131 61.2676V61.3838ZM895.866 61.2402C895.866 60.4062 895.688 59.7477 895.333 59.2646C894.978 58.7816 894.49 58.54 893.87 58.54C893.104 58.54 892.53 58.8796 892.147 59.5586V63.0928C892.526 63.7673 893.104 64.1045 893.884 64.1045C894.49 64.1045 894.971 63.8652 895.326 63.3867C895.686 62.9036 895.866 62.1882 895.866 61.2402ZM901.813 65.1367C900.811 65.1367 899.995 64.8086 899.366 64.1523C898.737 63.4915 898.423 62.6097 898.423 61.5068V61.2744C898.423 60.5407 898.562 59.8867 898.84 59.3125C899.122 58.7337 899.514 58.2826 900.016 57.959C900.521 57.6309 901.068 57.4668 901.656 57.4668C902.618 57.4668 903.365 57.7835 903.898 58.417C904.432 59.0505 904.698 59.9574 904.698 61.1377V61.6641H899.688C899.706 62.3932 899.918 62.9834 900.323 63.4346C900.733 63.8812 901.253 64.1045 901.882 64.1045C902.328 64.1045 902.707 64.0133 903.017 63.8311C903.326 63.6488 903.598 63.4072 903.83 63.1064L904.603 63.708C903.983 64.6605 903.053 65.1367 901.813 65.1367ZM901.656 58.5059C901.146 58.5059 900.717 58.6927 900.371 59.0664C900.025 59.4355 899.811 59.9551 899.729 60.625H903.434V60.5293C903.397 59.8867 903.224 59.39 902.914 59.0391C902.604 58.6836 902.185 58.5059 901.656 58.5059ZM909.839 65V55.0469H912.648C913.514 55.0469 914.28 55.2383 914.945 55.6211C915.611 56.0039 916.123 56.5485 916.483 57.2549C916.848 57.9613 917.033 58.7725 917.037 59.6885V60.3242C917.037 61.263 916.855 62.0856 916.49 62.792C916.13 63.4984 915.613 64.0407 914.938 64.4189C914.269 64.7972 913.487 64.9909 912.594 65H909.839ZM911.151 56.127V63.9268H912.532C913.544 63.9268 914.33 63.6123 914.891 62.9834C915.456 62.3545 915.738 61.459 915.738 60.2969V59.7158C915.738 58.5856 915.472 57.7083 914.938 57.084C914.41 56.4551 913.658 56.1361 912.683 56.127H911.151ZM923.395 65C923.322 64.8542 923.262 64.5944 923.217 64.2207C922.629 64.8314 921.927 65.1367 921.111 65.1367C920.382 65.1367 919.783 64.9316 919.313 64.5215C918.849 64.1068 918.616 63.5827 918.616 62.9492C918.616 62.179 918.908 61.582 919.491 61.1582C920.079 60.7298 920.904 60.5156 921.966 60.5156H923.196V59.9346C923.196 59.4925 923.064 59.1416 922.8 58.8818C922.535 58.6175 922.146 58.4854 921.631 58.4854C921.18 58.4854 920.801 58.5993 920.496 58.8271C920.191 59.055 920.038 59.3307 920.038 59.6543H918.767C918.767 59.2852 918.896 58.9297 919.156 58.5879C919.421 58.2415 919.776 57.9681 920.223 57.7676C920.674 57.5671 921.168 57.4668 921.706 57.4668C922.558 57.4668 923.226 57.681 923.709 58.1094C924.192 58.5332 924.443 59.1188 924.461 59.8662V63.2705C924.461 63.9495 924.548 64.4896 924.721 64.8906V65H923.395ZM921.296 64.0361C921.692 64.0361 922.068 63.9336 922.424 63.7285C922.779 63.5234 923.037 63.2568 923.196 62.9287V61.4111H922.205C920.656 61.4111 919.881 61.8646 919.881 62.7715C919.881 63.168 920.013 63.4779 920.277 63.7012C920.542 63.9245 920.881 64.0361 921.296 64.0361ZM928.159 55.8125V57.6035H929.54V58.5811H928.159V63.168C928.159 63.4642 928.221 63.6875 928.344 63.8379C928.467 63.9837 928.676 64.0566 928.973 64.0566C929.118 64.0566 929.319 64.0293 929.574 63.9746V65C929.242 65.0911 928.918 65.1367 928.604 65.1367C928.038 65.1367 927.612 64.9658 927.325 64.624C927.038 64.2822 926.895 63.7969 926.895 63.168V58.5811H925.548V57.6035H926.895V55.8125H928.159ZM935.59 65C935.517 64.8542 935.458 64.5944 935.412 64.2207C934.824 64.8314 934.122 65.1367 933.307 65.1367C932.577 65.1367 931.978 64.9316 931.509 64.5215C931.044 64.1068 930.812 63.5827 930.812 62.9492C930.812 62.179 931.103 61.582 931.687 61.1582C932.274 60.7298 933.099 60.5156 934.161 60.5156H935.392V59.9346C935.392 59.4925 935.259 59.1416 934.995 58.8818C934.731 58.6175 934.341 58.4854 933.826 58.4854C933.375 58.4854 932.997 58.5993 932.691 58.8271C932.386 59.055 932.233 59.3307 932.233 59.6543H930.962C930.962 59.2852 931.092 58.9297 931.352 58.5879C931.616 58.2415 931.971 57.9681 932.418 57.7676C932.869 57.5671 933.364 57.4668 933.901 57.4668C934.754 57.4668 935.421 57.681 935.904 58.1094C936.387 58.5332 936.638 59.1188 936.656 59.8662V63.2705C936.656 63.9495 936.743 64.4896 936.916 64.8906V65H935.59ZM933.491 64.0361C933.888 64.0361 934.264 63.9336 934.619 63.7285C934.975 63.5234 935.232 63.2568 935.392 62.9287V61.4111H934.4C932.851 61.4111 932.076 61.8646 932.076 62.7715C932.076 63.168 932.208 63.4779 932.473 63.7012C932.737 63.9245 933.076 64.0361 933.491 64.0361ZM944.9 61.3838C944.9 62.514 944.641 63.4232 944.121 64.1113C943.602 64.7949 942.904 65.1367 942.029 65.1367C941.095 65.1367 940.373 64.8063 939.862 64.1455L939.801 65H938.639V54.5H939.903V58.417C940.414 57.7835 941.118 57.4668 942.016 57.4668C942.913 57.4668 943.618 57.8063 944.128 58.4854C944.643 59.1644 944.9 60.0941 944.9 61.2744V61.3838ZM943.636 61.2402C943.636 60.3789 943.469 59.7135 943.137 59.2441C942.804 58.7747 942.326 58.54 941.701 58.54C940.867 58.54 940.268 58.9274 939.903 59.7021V62.9014C940.291 63.6761 940.895 64.0635 941.715 64.0635C942.321 64.0635 942.793 63.8288 943.13 63.3594C943.467 62.89 943.636 62.1836 943.636 61.2402ZM951.066 65C950.993 64.8542 950.934 64.5944 950.889 64.2207C950.301 64.8314 949.599 65.1367 948.783 65.1367C948.054 65.1367 947.455 64.9316 946.985 64.5215C946.521 64.1068 946.288 63.5827 946.288 62.9492C946.288 62.179 946.58 61.582 947.163 61.1582C947.751 60.7298 948.576 60.5156 949.638 60.5156H950.868V59.9346C950.868 59.4925 950.736 59.1416 950.472 58.8818C950.207 58.6175 949.818 58.4854 949.303 58.4854C948.852 58.4854 948.473 58.5993 948.168 58.8271C947.863 59.055 947.71 59.3307 947.71 59.6543H946.438C946.438 59.2852 946.568 58.9297 946.828 58.5879C947.092 58.2415 947.448 57.9681 947.895 57.7676C948.346 57.5671 948.84 57.4668 949.378 57.4668C950.23 57.4668 950.898 57.681 951.381 58.1094C951.864 58.5332 952.115 59.1188 952.133 59.8662V63.2705C952.133 63.9495 952.219 64.4896 952.393 64.8906V65H951.066ZM948.968 64.0361C949.364 64.0361 949.74 63.9336 950.096 63.7285C950.451 63.5234 950.709 63.2568 950.868 62.9287V61.4111H949.877C948.327 61.4111 947.553 61.8646 947.553 62.7715C947.553 63.168 947.685 63.4779 947.949 63.7012C948.214 63.9245 948.553 64.0361 948.968 64.0361ZM958.422 63.0381C958.422 62.6963 958.292 62.432 958.032 62.2451C957.777 62.0537 957.328 61.8896 956.686 61.7529C956.048 61.6162 955.539 61.4521 955.161 61.2607C954.787 61.0693 954.509 60.8415 954.327 60.5771C954.149 60.3128 954.061 59.9984 954.061 59.6338C954.061 59.0277 954.316 58.515 954.826 58.0957C955.341 57.6764 955.997 57.4668 956.795 57.4668C957.633 57.4668 958.312 57.6833 958.832 58.1162C959.356 58.5492 959.618 59.1029 959.618 59.7773H958.347C958.347 59.431 958.199 59.1325 957.902 58.8818C957.611 58.6312 957.242 58.5059 956.795 58.5059C956.335 58.5059 955.975 58.6061 955.715 58.8066C955.455 59.0072 955.325 59.2692 955.325 59.5928C955.325 59.8981 955.446 60.1283 955.688 60.2832C955.929 60.4382 956.364 60.5863 956.993 60.7275C957.627 60.8688 958.139 61.0374 958.531 61.2334C958.923 61.4294 959.213 61.6663 959.399 61.9443C959.591 62.2178 959.687 62.5527 959.687 62.9492C959.687 63.61 959.422 64.141 958.894 64.542C958.365 64.9385 957.679 65.1367 956.836 65.1367C956.243 65.1367 955.719 65.0319 955.264 64.8223C954.808 64.6126 954.45 64.321 954.19 63.9473C953.935 63.569 953.808 63.1611 953.808 62.7236H955.072C955.095 63.1475 955.264 63.4847 955.578 63.7354C955.897 63.9814 956.316 64.1045 956.836 64.1045C957.314 64.1045 957.697 64.0088 957.984 63.8174C958.276 63.6214 958.422 63.3617 958.422 63.0381ZM964.403 65.1367C963.401 65.1367 962.585 64.8086 961.956 64.1523C961.327 63.4915 961.013 62.6097 961.013 61.5068V61.2744C961.013 60.5407 961.152 59.8867 961.43 59.3125C961.712 58.7337 962.104 58.2826 962.605 57.959C963.111 57.6309 963.658 57.4668 964.246 57.4668C965.208 57.4668 965.955 57.7835 966.488 58.417C967.021 59.0505 967.288 59.9574 967.288 61.1377V61.6641H962.277C962.296 62.3932 962.507 62.9834 962.913 63.4346C963.323 63.8812 963.843 64.1045 964.472 64.1045C964.918 64.1045 965.297 64.0133 965.606 63.8311C965.916 63.6488 966.188 63.4072 966.42 63.1064L967.192 63.708C966.573 64.6605 965.643 65.1367 964.403 65.1367ZM964.246 58.5059C963.736 58.5059 963.307 58.6927 962.961 59.0664C962.615 59.4355 962.4 59.9551 962.318 60.625H966.023V60.5293C965.987 59.8867 965.814 59.39 965.504 59.0391C965.194 58.6836 964.775 58.5059 964.246 58.5059Z" fill="white"/>
<path d="M837.518 68.75C833.367 68.75 830 67.6294 830 66.25C830 65.4956 830 64.6704 830 63.75C830 63.5327 830.109 63.3264 830.266 63.125C831.104 64.2017 834.019 65 837.518 65C841.018 65 843.933 64.2017 844.771 63.125C844.928 63.3264 845.036 63.5327 845.036 63.75C845.036 64.4739 845.036 65.2417 845.036 66.25C845.036 67.6294 841.669 68.75 837.518 68.75ZM837.518 63.75C833.367 63.75 830 62.6294 830 61.25C830 60.495 830 59.671 830 58.75C830 58.6176 830.05 58.4888 830.117 58.3612C830.155 58.2812 830.206 58.2025 830.266 58.125C831.104 59.2011 834.019 60 837.518 60C841.018 60 843.933 59.2011 844.771 58.125C844.831 58.2025 844.881 58.2812 844.919 58.3612C844.986 58.4888 845.036 58.6176 845.036 58.75C845.036 59.4739 845.036 60.2411 845.036 61.25C845.036 62.6294 841.669 63.75 837.518 63.75ZM837.518 58.75C833.367 58.75 830 57.63 830 56.25C830 55.8551 830 55.4376 830 55C830 54.6027 830 54.1901 830 53.75C830 52.37 833.367 51.25 837.518 51.25C841.669 51.25 845.036 52.37 845.036 53.75C845.036 54.14 845.036 54.5538 845.036 55C845.036 55.3827 845.036 55.7861 845.036 56.25C845.036 57.63 841.669 58.75 837.518 58.75ZM837.518 52.5C834.75 52.5 832.506 53.0585 832.506 53.75C832.506 54.4415 834.75 55 837.518 55C840.286 55 842.53 54.4415 842.53 53.75C842.53 53.0585 840.286 52.5 837.518 52.5Z" fill="white"/>
<rect y="40" width="190" height="40" rx="5" fill="#C42C2D"/>
<path d="M48.873 60.5635C47.7474 60.2399 46.9271 59.8434 46.4121 59.374C45.9017 58.9001 45.6465 58.3167 45.6465 57.624C45.6465 56.8402 45.9587 56.193 46.583 55.6826C47.2119 55.1676 48.0277 54.9102 49.0303 54.9102C49.7139 54.9102 50.3223 55.0423 50.8555 55.3066C51.3932 55.571 51.8079 55.9355 52.0996 56.4004C52.3958 56.8652 52.5439 57.3734 52.5439 57.9248H51.2246C51.2246 57.3232 51.0332 56.8516 50.6504 56.5098C50.2676 56.1634 49.7275 55.9902 49.0303 55.9902C48.3831 55.9902 47.8773 56.1338 47.5127 56.4209C47.1527 56.7035 46.9727 57.0977 46.9727 57.6035C46.9727 58.0091 47.1436 58.3532 47.4854 58.6357C47.8317 58.9137 48.4173 59.1689 49.2422 59.4014C50.0716 59.6338 50.7188 59.8913 51.1836 60.1738C51.653 60.4518 51.9993 60.7777 52.2227 61.1514C52.4505 61.5251 52.5645 61.9648 52.5645 62.4707C52.5645 63.2773 52.25 63.9245 51.6211 64.4121C50.9922 64.8952 50.1514 65.1367 49.0986 65.1367C48.415 65.1367 47.777 65.0068 47.1846 64.7471C46.5921 64.4827 46.1341 64.1227 45.8105 63.667C45.4915 63.2113 45.332 62.694 45.332 62.1152H46.6514C46.6514 62.7168 46.8724 63.193 47.3145 63.5439C47.7611 63.8903 48.3558 64.0635 49.0986 64.0635C49.7913 64.0635 50.3223 63.9222 50.6914 63.6396C51.0605 63.3571 51.2451 62.972 51.2451 62.4844C51.2451 61.9967 51.0742 61.6208 50.7324 61.3564C50.3906 61.0876 49.7708 60.8232 48.873 60.5635ZM57.0215 64.1045C57.4727 64.1045 57.8669 63.9678 58.2041 63.6943C58.5413 63.4209 58.7282 63.0791 58.7646 62.6689H59.9609C59.9382 63.0928 59.7923 63.4961 59.5234 63.8789C59.2546 64.2617 58.8945 64.5671 58.4434 64.7949C57.9967 65.0228 57.5228 65.1367 57.0215 65.1367C56.0143 65.1367 55.2122 64.8018 54.6152 64.1318C54.0228 63.4574 53.7266 62.5368 53.7266 61.3701V61.1582C53.7266 60.4382 53.8587 59.7979 54.123 59.2373C54.3874 58.6768 54.7656 58.2415 55.2578 57.9316C55.7546 57.6217 56.3402 57.4668 57.0146 57.4668C57.8441 57.4668 58.5322 57.7152 59.0791 58.2119C59.6305 58.7087 59.9245 59.3535 59.9609 60.1465H58.7646C58.7282 59.668 58.5459 59.276 58.2178 58.9707C57.8942 58.6608 57.4932 58.5059 57.0146 58.5059C56.3721 58.5059 55.873 58.7383 55.5176 59.2031C55.1667 59.6634 54.9912 60.3311 54.9912 61.2061V61.4453C54.9912 62.2975 55.1667 62.9538 55.5176 63.4141C55.8685 63.8743 56.3698 64.1045 57.0215 64.1045ZM64.958 58.7383C64.7666 58.7064 64.5592 58.6904 64.3359 58.6904C63.5065 58.6904 62.9437 59.0436 62.6475 59.75V65H61.3828V57.6035H62.6133L62.6338 58.458C63.0485 57.7972 63.6364 57.4668 64.3975 57.4668C64.6436 57.4668 64.8304 57.4987 64.958 57.5625V58.7383ZM70.4199 65C70.347 64.8542 70.2878 64.5944 70.2422 64.2207C69.6543 64.8314 68.9525 65.1367 68.1367 65.1367C67.4076 65.1367 66.8083 64.9316 66.3389 64.5215C65.874 64.1068 65.6416 63.5827 65.6416 62.9492C65.6416 62.179 65.9333 61.582 66.5166 61.1582C67.1045 60.7298 67.9294 60.5156 68.9912 60.5156H70.2217V59.9346C70.2217 59.4925 70.0895 59.1416 69.8252 58.8818C69.5609 58.6175 69.1712 58.4854 68.6562 58.4854C68.2051 58.4854 67.8268 58.5993 67.5215 58.8271C67.2161 59.055 67.0635 59.3307 67.0635 59.6543H65.792C65.792 59.2852 65.9219 58.9297 66.1816 58.5879C66.446 58.2415 66.8014 57.9681 67.248 57.7676C67.6992 57.5671 68.1937 57.4668 68.7314 57.4668C69.5837 57.4668 70.2513 57.681 70.7344 58.1094C71.2174 58.5332 71.4681 59.1188 71.4863 59.8662V63.2705C71.4863 63.9495 71.5729 64.4896 71.7461 64.8906V65H70.4199ZM68.3213 64.0361C68.7178 64.0361 69.0938 63.9336 69.4492 63.7285C69.8047 63.5234 70.0622 63.2568 70.2217 62.9287V61.4111H69.2305C67.681 61.4111 66.9062 61.8646 66.9062 62.7715C66.9062 63.168 67.0384 63.4779 67.3027 63.7012C67.5671 63.9245 67.9066 64.0361 68.3213 64.0361ZM79.7168 61.3838C79.7168 62.5094 79.4593 63.4163 78.9443 64.1045C78.4294 64.7926 77.7321 65.1367 76.8525 65.1367C75.9548 65.1367 75.2484 64.8519 74.7334 64.2822V67.8438H73.4688V57.6035H74.624L74.6855 58.4238C75.2005 57.7858 75.916 57.4668 76.832 57.4668C77.7207 57.4668 78.4225 57.8018 78.9375 58.4717C79.457 59.1416 79.7168 60.0736 79.7168 61.2676V61.3838ZM78.4521 61.2402C78.4521 60.4062 78.2744 59.7477 77.9189 59.2646C77.5635 58.7816 77.0758 58.54 76.4561 58.54C75.6904 58.54 75.1162 58.8796 74.7334 59.5586V63.0928C75.1117 63.7673 75.6904 64.1045 76.4697 64.1045C77.0758 64.1045 77.5566 63.8652 77.9121 63.3867C78.2721 62.9036 78.4521 62.1882 78.4521 61.2402ZM84.3994 65.1367C83.3968 65.1367 82.5811 64.8086 81.9521 64.1523C81.3232 63.4915 81.0088 62.6097 81.0088 61.5068V61.2744C81.0088 60.5407 81.1478 59.8867 81.4258 59.3125C81.7083 58.7337 82.1003 58.2826 82.6016 57.959C83.1074 57.6309 83.6543 57.4668 84.2422 57.4668C85.2038 57.4668 85.9512 57.7835 86.4844 58.417C87.0176 59.0505 87.2842 59.9574 87.2842 61.1377V61.6641H82.2734C82.2917 62.3932 82.5036 62.9834 82.9092 63.4346C83.3193 63.8812 83.8389 64.1045 84.4678 64.1045C84.9144 64.1045 85.2926 64.0133 85.6025 63.8311C85.9124 63.6488 86.1836 63.4072 86.416 63.1064L87.1885 63.708C86.5687 64.6605 85.639 65.1367 84.3994 65.1367ZM84.2422 58.5059C83.7318 58.5059 83.3034 58.6927 82.957 59.0664C82.6107 59.4355 82.3965 59.9551 82.3145 60.625H86.0195V60.5293C85.9831 59.8867 85.8099 59.39 85.5 59.0391C85.1901 58.6836 84.7708 58.5059 84.2422 58.5059ZM99.7461 61.8418C99.623 62.8945 99.2334 63.708 98.5771 64.2822C97.9255 64.8519 97.0573 65.1367 95.9727 65.1367C94.7969 65.1367 93.8535 64.7152 93.1426 63.8721C92.4362 63.029 92.083 61.901 92.083 60.4883V59.5312C92.083 58.6061 92.2471 57.7926 92.5752 57.0908C92.9079 56.389 93.3773 55.8512 93.9834 55.4775C94.5895 55.0993 95.2913 54.9102 96.0889 54.9102C97.1462 54.9102 97.9938 55.2064 98.6318 55.7988C99.2699 56.3867 99.6413 57.2025 99.7461 58.2461H98.4268C98.3128 57.4531 98.0645 56.8789 97.6816 56.5234C97.3034 56.168 96.7725 55.9902 96.0889 55.9902C95.2503 55.9902 94.5918 56.3001 94.1133 56.9199C93.6393 57.5397 93.4023 58.4215 93.4023 59.5654V60.5293C93.4023 61.6094 93.6279 62.4684 94.0791 63.1064C94.5303 63.7445 95.1615 64.0635 95.9727 64.0635C96.7018 64.0635 97.2601 63.8994 97.6475 63.5713C98.0394 63.2386 98.2992 62.6621 98.4268 61.8418H99.7461ZM101.011 61.2334C101.011 60.5088 101.152 59.8571 101.435 59.2783C101.722 58.6995 102.118 58.2529 102.624 57.9385C103.134 57.624 103.715 57.4668 104.367 57.4668C105.374 57.4668 106.188 57.8154 106.808 58.5127C107.432 59.21 107.744 60.1374 107.744 61.2949V61.3838C107.744 62.1038 107.605 62.751 107.327 63.3252C107.054 63.8949 106.66 64.3392 106.145 64.6582C105.634 64.9772 105.046 65.1367 104.381 65.1367C103.378 65.1367 102.565 64.7881 101.94 64.0908C101.321 63.3936 101.011 62.4707 101.011 61.3223V61.2334ZM102.282 61.3838C102.282 62.2041 102.471 62.8626 102.85 63.3594C103.232 63.8561 103.743 64.1045 104.381 64.1045C105.023 64.1045 105.534 63.8538 105.912 63.3525C106.29 62.8467 106.479 62.1403 106.479 61.2334C106.479 60.4222 106.286 59.766 105.898 59.2646C105.516 58.7588 105.005 58.5059 104.367 58.5059C103.743 58.5059 103.239 58.7542 102.856 59.251C102.474 59.7477 102.282 60.4587 102.282 61.3838ZM110.526 57.6035L110.567 58.5332C111.132 57.8223 111.871 57.4668 112.782 57.4668C114.345 57.4668 115.134 58.3486 115.147 60.1123V65H113.883V60.1055C113.878 59.5723 113.755 59.1781 113.514 58.9229C113.277 58.6676 112.905 58.54 112.399 58.54C111.989 58.54 111.629 58.6494 111.319 58.8682C111.009 59.0869 110.768 59.374 110.595 59.7295V65H109.33V57.6035H110.526ZM117.479 65V58.5811H116.31V57.6035H117.479V56.9746C117.479 56.1497 117.713 55.5072 118.183 55.0469C118.657 54.5866 119.324 54.3564 120.186 54.3564C120.696 54.3564 121.341 54.4954 122.12 54.7734L121.908 55.8398C121.339 55.612 120.796 55.498 120.281 55.498C119.739 55.498 119.347 55.6211 119.105 55.8672C118.868 56.1087 118.75 56.4733 118.75 56.9609V57.6035H120.261V58.5811H118.75V65H117.479ZM122.749 65H121.478V57.6035H122.749V65ZM124.506 61.2402C124.506 60.0872 124.772 59.1712 125.306 58.4922C125.839 57.8086 126.545 57.4668 127.425 57.4668C128.327 57.4668 129.031 57.7858 129.537 58.4238L129.599 57.6035H130.754V64.8223C130.754 65.7793 130.469 66.5335 129.899 67.085C129.334 67.6364 128.573 67.9121 127.616 67.9121C127.083 67.9121 126.561 67.7982 126.051 67.5703C125.54 67.3424 125.151 67.0303 124.882 66.6338L125.538 65.875C126.08 66.5449 126.743 66.8799 127.527 66.8799C128.143 66.8799 128.621 66.7067 128.963 66.3604C129.309 66.014 129.482 65.5264 129.482 64.8975V64.2617C128.977 64.8451 128.286 65.1367 127.411 65.1367C126.545 65.1367 125.843 64.7881 125.306 64.0908C124.772 63.3936 124.506 62.4434 124.506 61.2402ZM125.777 61.3838C125.777 62.2178 125.948 62.874 126.29 63.3525C126.632 63.8265 127.11 64.0635 127.726 64.0635C128.523 64.0635 129.109 63.7012 129.482 62.9766V59.5996C129.095 58.8932 128.514 58.54 127.739 58.54C127.124 58.54 126.643 58.7793 126.297 59.2578C125.951 59.7363 125.777 60.445 125.777 61.3838ZM137.234 64.2686C136.742 64.8473 136.02 65.1367 135.067 65.1367C134.279 65.1367 133.677 64.9089 133.263 64.4531C132.853 63.9928 132.645 63.3138 132.641 62.416V57.6035H133.905V62.3818C133.905 63.5029 134.361 64.0635 135.272 64.0635C136.239 64.0635 136.881 63.7035 137.2 62.9834V57.6035H138.465V65H137.262L137.234 64.2686ZM143.968 58.7383C143.776 58.7064 143.569 58.6904 143.346 58.6904C142.516 58.6904 141.953 59.0436 141.657 59.75V65H140.393V57.6035H141.623L141.644 58.458C142.058 57.7972 142.646 57.4668 143.407 57.4668C143.653 57.4668 143.84 57.4987 143.968 57.5625V58.7383ZM149.43 65C149.357 64.8542 149.298 64.5944 149.252 64.2207C148.664 64.8314 147.962 65.1367 147.146 65.1367C146.417 65.1367 145.818 64.9316 145.349 64.5215C144.884 64.1068 144.651 63.5827 144.651 62.9492C144.651 62.179 144.943 61.582 145.526 61.1582C146.114 60.7298 146.939 60.5156 148.001 60.5156H149.231V59.9346C149.231 59.4925 149.099 59.1416 148.835 58.8818C148.571 58.6175 148.181 58.4854 147.666 58.4854C147.215 58.4854 146.837 58.5993 146.531 58.8271C146.226 59.055 146.073 59.3307 146.073 59.6543H144.802C144.802 59.2852 144.932 58.9297 145.191 58.5879C145.456 58.2415 145.811 57.9681 146.258 57.7676C146.709 57.5671 147.203 57.4668 147.741 57.4668C148.593 57.4668 149.261 57.681 149.744 58.1094C150.227 58.5332 150.478 59.1188 150.496 59.8662V63.2705C150.496 63.9495 150.583 64.4896 150.756 64.8906V65H149.43ZM147.331 64.0361C147.728 64.0361 148.104 63.9336 148.459 63.7285C148.814 63.5234 149.072 63.2568 149.231 62.9287V61.4111H148.24C146.691 61.4111 145.916 61.8646 145.916 62.7715C145.916 63.168 146.048 63.4779 146.312 63.7012C146.577 63.9245 146.916 64.0361 147.331 64.0361ZM154.194 55.8125V57.6035H155.575V58.5811H154.194V63.168C154.194 63.4642 154.256 63.6875 154.379 63.8379C154.502 63.9837 154.712 64.0566 155.008 64.0566C155.154 64.0566 155.354 64.0293 155.609 63.9746V65C155.277 65.0911 154.953 65.1367 154.639 65.1367C154.074 65.1367 153.647 64.9658 153.36 64.624C153.073 64.2822 152.93 63.7969 152.93 63.168V58.5811H151.583V57.6035H152.93V55.8125H154.194ZM158.433 65H157.168V57.6035H158.433V65ZM157.065 55.6416C157.065 55.4365 157.127 55.2633 157.25 55.1221C157.378 54.9808 157.564 54.9102 157.811 54.9102C158.057 54.9102 158.243 54.9808 158.371 55.1221C158.499 55.2633 158.562 55.4365 158.562 55.6416C158.562 55.8467 158.499 56.0176 158.371 56.1543C158.243 56.291 158.057 56.3594 157.811 56.3594C157.564 56.3594 157.378 56.291 157.25 56.1543C157.127 56.0176 157.065 55.8467 157.065 55.6416ZM160.128 61.2334C160.128 60.5088 160.269 59.8571 160.552 59.2783C160.839 58.6995 161.235 58.2529 161.741 57.9385C162.252 57.624 162.833 57.4668 163.484 57.4668C164.492 57.4668 165.305 57.8154 165.925 58.5127C166.549 59.21 166.861 60.1374 166.861 61.2949V61.3838C166.861 62.1038 166.722 62.751 166.444 63.3252C166.171 63.8949 165.777 64.3392 165.262 64.6582C164.751 64.9772 164.163 65.1367 163.498 65.1367C162.495 65.1367 161.682 64.7881 161.058 64.0908C160.438 63.3936 160.128 62.4707 160.128 61.3223V61.2334ZM161.399 61.3838C161.399 62.2041 161.589 62.8626 161.967 63.3594C162.35 63.8561 162.86 64.1045 163.498 64.1045C164.141 64.1045 164.651 63.8538 165.029 63.3525C165.408 62.8467 165.597 62.1403 165.597 61.2334C165.597 60.4222 165.403 59.766 165.016 59.2646C164.633 58.7588 164.122 58.5059 163.484 58.5059C162.86 58.5059 162.356 58.7542 161.974 59.251C161.591 59.7477 161.399 60.4587 161.399 61.3838ZM169.644 57.6035L169.685 58.5332C170.25 57.8223 170.988 57.4668 171.899 57.4668C173.463 57.4668 174.251 58.3486 174.265 60.1123V65H173V60.1055C172.995 59.5723 172.872 59.1781 172.631 58.9229C172.394 58.6676 172.022 58.54 171.517 58.54C171.106 58.54 170.746 58.6494 170.437 58.8682C170.127 59.0869 169.885 59.374 169.712 59.7295V65H168.447V57.6035H169.644Z" fill="white"/>
<path d="M28.5 62L27.5 61.4167C26.4167 60.75 26.4167 59.1667 27.5 58.5L28.5 57.9167C29.3333 57.4167 29.5833 56.4167 29.0833 55.6667L28.25 54.25C27.75 53.4167 26.75 53.1667 26 53.6667L25 54.25C23.9167 54.9167 22.5 54.0833 22.5 52.8333V51.6667C22.5 50.75 21.75 50 20.8333 50H19.1667C18.25 50 17.5 50.75 17.5 51.6667V52.75C17.5 54 16.0833 54.8333 15 54.1667L14 53.6667C13.1667 53.1667 12.1667 53.5 11.75 54.25L10.9167 55.6667C10.5 56.5 10.75 57.5 11.5 58L12.5 58.5833C13.5833 59.1667 13.5833 60.8333 12.5 61.4167L11.5 62C10.6667 62.5 10.4167 63.5 10.9167 64.25L11.75 65.6667C12.25 66.5 13.25 66.75 14 66.25L15 65.75C16.0833 65.0833 17.5 65.9167 17.5 67.1667V68.3333C17.5 69.25 18.25 70 19.1667 70H20.8333C21.75 70 22.5 69.25 22.5 68.3333V67.25C22.5 66 23.9167 65.1667 25 65.8333L26 66.4167C26.8333 66.9167 27.8333 66.5833 28.25 65.8333L29.0833 64.4167C29.5 63.5 29.25 62.5 28.5 62ZM20 63.3333C18.1667 63.3333 16.6667 61.8333 16.6667 60C16.6667 58.1667 18.1667 56.6667 20 56.6667C21.8333 56.6667 23.3333 58.1667 23.3333 60C23.3333 61.8333 21.8333 63.3333 20 63.3333Z" fill="white"/>
<path d="M229.707 60.7071C230.098 60.3166 230.098 59.6834 229.707 59.2929L223.343 52.9289C222.953 52.5384 222.319 52.5384 221.929 52.9289C221.538 53.3195 221.538 53.9526 221.929 54.3431L227.586 60L221.929 65.6569C221.538 66.0474 221.538 66.6805 221.929 67.0711C222.319 67.4616 222.953 67.4616 223.343 67.0711L229.707 60.7071ZM190 61H229V59H190V61Z" fill="black"/>
<path d="M419.707 60.7071C420.098 60.3166 420.098 59.6834 419.707 59.2929L413.343 52.9289C412.953 52.5384 412.319 52.5384 411.929 52.9289C411.538 53.3195 411.538 53.9526 411.929 54.3431L417.586 60L411.929 65.6569C411.538 66.0474 411.538 66.6805 411.929 67.0711C412.319 67.4616 412.953 67.4616 413.343 67.0711L419.707 60.7071ZM400 61H419V59H400V61Z" fill="black"/>
<path d="M609.707 60.7071C610.098 60.3166 610.098 59.6834 609.707 59.2929L603.343 52.9289C602.953 52.5384 602.319 52.5384 601.929 52.9289C601.538 53.3195 601.538 53.9526 601.929 54.3431L607.586 60L601.929 65.6569C601.538 66.0474 601.538 66.6805 601.929 67.0711C602.319 67.4616 602.953 67.4616 603.343 67.0711L609.707 60.7071ZM590 61H609V59H590V61Z" fill="black"/>
<path d="M505.707 80.2929C505.317 79.9024 504.683 79.9024 504.293 80.2929L497.929 86.6569C497.538 87.0474 497.538 87.6805 497.929 88.0711C498.319 88.4616 498.953 88.4616 499.343 88.0711L505 82.4142L510.657 88.0711C511.047 88.4616 511.681 88.4616 512.071 88.0711C512.462 87.6805 512.462 87.0474 512.071 86.6569L505.707 80.2929ZM506 100L506 81L504 81L504 100L506 100Z" fill="black"/>
<path d="M899.293 119.707C899.683 120.098 900.317 120.098 900.707 119.707L907.071 113.343C907.462 112.953 907.462 112.319 907.071 111.929C906.681 111.538 906.047 111.538 905.657 111.929L900 117.586L894.343 111.929C893.953 111.538 893.319 111.538 892.929 111.929C892.538 112.319 892.538 112.953 892.929 113.343L899.293 119.707ZM899 81V83.7143H901V81H899ZM899 85.8857V91.3143H901V85.8857H899ZM899 93.4857V98.9143H901V93.4857H899ZM899 101.086V106.514H901V101.086H899ZM899 108.686V114.114H901V108.686H899ZM899 116.286V119H901V116.286H899Z" fill="#2CB2C4"/>
<path d="M315.707 80.293C315.317 79.9025 314.683 79.9025 314.293 80.293L307.929 86.657C307.538 87.0475 307.538 87.6807 307.929 88.0712C308.319 88.4617 308.953 88.4617 309.343 88.0712L315 82.4144L320.657 88.0712C321.047 88.4617 321.681 88.4617 322.071 88.0712C322.462 87.6807 322.462 87.0475 322.071 86.657L315.707 80.293ZM315 120H314L314 121L315 121L315 120ZM420 119L315 119L315 121L420 121L420 119ZM316 120L316 81.0001L314 81.0001L314 120H316Z" fill="black"/>
<path d="M694.293 80.293C694.683 79.9025 695.317 79.9025 695.707 80.293L702.071 86.657C702.462 87.0475 702.462 87.6807 702.071 88.0712C701.681 88.4617 701.047 88.4617 700.657 88.0712L695 82.4144L689.343 88.0712C688.953 88.4617 688.319 88.4617 687.929 88.0712C687.538 87.6807 687.538 87.0475 687.929 86.657L694.293 80.293ZM695 120H696L696 121L695 121L695 120ZM590 119L695 119L695 121L590 121L590 119ZM694 120L694 81.0001L696 81.0001L696 120H694Z" fill="black"/>
<path d="M819.707 60.7071C820.098 60.3166 820.098 59.6834 819.707 59.2929L813.343 52.9289C812.953 52.5384 812.319 52.5384 811.929 52.9289C811.538 53.3195 811.538 53.9526 811.929 54.3431L817.586 60L811.929 65.6569C811.538 66.0474 811.538 66.6805 811.929 67.0711C812.319 67.4616 812.953 67.4616 813.343 67.0711L819.707 60.7071ZM780 61H819V59H780V61Z" fill="black"/>
<rect x="821" y="121" width="158" height="38" rx="4" stroke="#2CB2C4" stroke-width="2" stroke-dasharray="5 2"/>
<path d="M874.436 141.685C874.358 142.756 873.962 143.599 873.246 144.214C872.535 144.829 871.596 145.137 870.43 145.137C869.154 145.137 868.149 144.708 867.415 143.852C866.686 142.99 866.321 141.81 866.321 140.311V139.702C866.321 138.745 866.49 137.902 866.827 137.173C867.164 136.444 867.645 135.885 868.27 135.498C868.898 135.106 869.628 134.91 870.457 134.91C871.605 134.91 872.531 135.218 873.232 135.833C873.934 136.448 874.34 137.312 874.449 138.424H872.398C872.348 137.781 872.168 137.316 871.858 137.029C871.553 136.738 871.086 136.592 870.457 136.592C869.773 136.592 869.261 136.838 868.919 137.33C868.582 137.818 868.409 138.576 868.399 139.606V140.358C868.399 141.434 868.561 142.22 868.885 142.717C869.213 143.214 869.728 143.462 870.43 143.462C871.063 143.462 871.535 143.318 871.845 143.031C872.159 142.74 872.339 142.291 872.385 141.685H874.436ZM875.345 141.233C875.345 140.5 875.486 139.846 875.769 139.271C876.051 138.697 876.457 138.253 876.985 137.938C877.519 137.624 878.136 137.467 878.838 137.467C879.836 137.467 880.649 137.772 881.278 138.383C881.912 138.993 882.265 139.823 882.338 140.871L882.352 141.377C882.352 142.512 882.035 143.423 881.401 144.111C880.768 144.795 879.918 145.137 878.852 145.137C877.785 145.137 876.933 144.795 876.295 144.111C875.661 143.428 875.345 142.498 875.345 141.322V141.233ZM877.32 141.377C877.32 142.079 877.452 142.617 877.717 142.99C877.981 143.359 878.359 143.544 878.852 143.544C879.33 143.544 879.704 143.362 879.973 142.997C880.242 142.628 880.376 142.04 880.376 141.233C880.376 140.545 880.242 140.012 879.973 139.634C879.704 139.256 879.326 139.066 878.838 139.066C878.355 139.066 877.981 139.256 877.717 139.634C877.452 140.007 877.32 140.589 877.32 141.377ZM883.261 141.247C883.261 140.094 883.518 139.176 884.033 138.492C884.553 137.809 885.261 137.467 886.159 137.467C886.879 137.467 887.474 137.736 887.943 138.273V134.5H889.926V145H888.142L888.046 144.214C887.554 144.829 886.92 145.137 886.146 145.137C885.275 145.137 884.576 144.795 884.047 144.111C883.523 143.423 883.261 142.468 883.261 141.247ZM885.236 141.391C885.236 142.083 885.357 142.614 885.599 142.983C885.84 143.353 886.191 143.537 886.651 143.537C887.262 143.537 887.693 143.28 887.943 142.765V139.846C887.697 139.331 887.271 139.073 886.665 139.073C885.713 139.073 885.236 139.846 885.236 141.391ZM894.861 145.137C893.777 145.137 892.893 144.804 892.209 144.139C891.53 143.473 891.19 142.587 891.19 141.479V141.288C891.19 140.545 891.334 139.882 891.621 139.299C891.908 138.711 892.314 138.26 892.838 137.945C893.367 137.626 893.968 137.467 894.643 137.467C895.654 137.467 896.45 137.786 897.028 138.424C897.612 139.062 897.903 139.966 897.903 141.138V141.944H893.193C893.257 142.427 893.449 142.815 893.768 143.106C894.091 143.398 894.499 143.544 894.991 143.544C895.752 143.544 896.347 143.268 896.775 142.717L897.746 143.804C897.45 144.223 897.049 144.551 896.543 144.788C896.037 145.021 895.477 145.137 894.861 145.137ZM894.636 139.066C894.244 139.066 893.925 139.199 893.679 139.463C893.437 139.727 893.282 140.105 893.214 140.598H895.962V140.44C895.953 140.003 895.834 139.666 895.606 139.429C895.379 139.187 895.055 139.066 894.636 139.066ZM910.522 143.742C910.153 144.184 909.632 144.528 908.957 144.774C908.283 145.016 907.535 145.137 906.715 145.137C905.854 145.137 905.097 144.95 904.445 144.576C903.798 144.198 903.297 143.651 902.941 142.936C902.59 142.22 902.41 141.379 902.401 140.413V139.736C902.401 138.743 902.568 137.884 902.9 137.159C903.238 136.43 903.721 135.874 904.35 135.491C904.983 135.104 905.724 134.91 906.571 134.91C907.752 134.91 908.674 135.193 909.34 135.758C910.005 136.318 910.399 137.136 910.522 138.212H908.526C908.435 137.642 908.232 137.225 907.918 136.961C907.608 136.697 907.18 136.564 906.633 136.564C905.936 136.564 905.405 136.826 905.04 137.351C904.675 137.875 904.491 138.654 904.486 139.688V140.324C904.486 141.368 904.685 142.156 905.081 142.689C905.478 143.223 906.059 143.489 906.824 143.489C907.594 143.489 908.144 143.325 908.472 142.997V141.281H906.605V139.771H910.522V143.742ZM915.465 145.137C914.38 145.137 913.496 144.804 912.812 144.139C912.133 143.473 911.794 142.587 911.794 141.479V141.288C911.794 140.545 911.938 139.882 912.225 139.299C912.512 138.711 912.917 138.26 913.441 137.945C913.97 137.626 914.572 137.467 915.246 137.467C916.258 137.467 917.053 137.786 917.632 138.424C918.215 139.062 918.507 139.966 918.507 141.138V141.944H913.797C913.861 142.427 914.052 142.815 914.371 143.106C914.695 143.398 915.103 143.544 915.595 143.544C916.356 143.544 916.951 143.268 917.379 142.717L918.35 143.804C918.053 144.223 917.652 144.551 917.146 144.788C916.641 145.021 916.08 145.137 915.465 145.137ZM915.239 139.066C914.847 139.066 914.528 139.199 914.282 139.463C914.041 139.727 913.886 140.105 913.817 140.598H916.565V140.44C916.556 140.003 916.438 139.666 916.21 139.429C915.982 139.187 915.659 139.066 915.239 139.066ZM921.453 137.604L921.515 138.458C922.043 137.797 922.752 137.467 923.641 137.467C924.424 137.467 925.008 137.697 925.391 138.157C925.773 138.618 925.969 139.306 925.979 140.222V145H924.003V140.27C924.003 139.85 923.912 139.547 923.729 139.36C923.547 139.169 923.244 139.073 922.82 139.073C922.264 139.073 921.847 139.31 921.569 139.784V145H919.594V137.604H921.453ZM930.887 145.137C929.802 145.137 928.918 144.804 928.234 144.139C927.555 143.473 927.216 142.587 927.216 141.479V141.288C927.216 140.545 927.359 139.882 927.646 139.299C927.934 138.711 928.339 138.26 928.863 137.945C929.392 137.626 929.993 137.467 930.668 137.467C931.68 137.467 932.475 137.786 933.054 138.424C933.637 139.062 933.929 139.966 933.929 141.138V141.944H929.219C929.283 142.427 929.474 142.815 929.793 143.106C930.117 143.398 930.524 143.544 931.017 143.544C931.778 143.544 932.372 143.268 932.801 142.717L933.771 143.804C933.475 144.223 933.074 144.551 932.568 144.788C932.062 145.021 931.502 145.137 930.887 145.137ZM930.661 139.066C930.269 139.066 929.95 139.199 929.704 139.463C929.463 139.727 929.308 140.105 929.239 140.598H931.987V140.44C931.978 140.003 931.86 139.666 931.632 139.429C931.404 139.187 931.08 139.066 930.661 139.066ZM939.213 139.456C938.944 139.42 938.707 139.401 938.502 139.401C937.755 139.401 937.265 139.654 937.032 140.16V145H935.057V137.604H936.923L936.978 138.485C937.374 137.806 937.923 137.467 938.625 137.467C938.844 137.467 939.049 137.496 939.24 137.556L939.213 139.456ZM944.251 145C944.16 144.822 944.094 144.601 944.053 144.337C943.574 144.87 942.952 145.137 942.187 145.137C941.462 145.137 940.86 144.927 940.382 144.508C939.908 144.089 939.671 143.56 939.671 142.922C939.671 142.138 939.96 141.536 940.539 141.117C941.122 140.698 941.963 140.486 943.062 140.481H943.971V140.058C943.971 139.716 943.882 139.442 943.704 139.237C943.531 139.032 943.255 138.93 942.877 138.93C942.544 138.93 942.282 139.009 942.091 139.169C941.904 139.328 941.811 139.547 941.811 139.825H939.835C939.835 139.397 939.967 139 940.231 138.636C940.496 138.271 940.869 137.986 941.353 137.781C941.836 137.572 942.378 137.467 942.979 137.467C943.891 137.467 944.613 137.697 945.146 138.157C945.684 138.613 945.953 139.256 945.953 140.085V143.291C945.958 143.993 946.056 144.524 946.247 144.884V145H944.251ZM942.617 143.626C942.909 143.626 943.178 143.562 943.424 143.435C943.67 143.302 943.852 143.127 943.971 142.908V141.637H943.232C942.243 141.637 941.717 141.979 941.653 142.662L941.646 142.778C941.646 143.024 941.733 143.227 941.906 143.387C942.079 143.546 942.316 143.626 942.617 143.626ZM949.836 135.785V137.604H951.101V139.053H949.836V142.744C949.836 143.018 949.888 143.214 949.993 143.332C950.098 143.451 950.299 143.51 950.595 143.51C950.813 143.51 951.007 143.494 951.176 143.462V144.959C950.788 145.077 950.39 145.137 949.979 145.137C948.594 145.137 947.888 144.437 947.86 143.038V139.053H946.78V137.604H947.86V135.785H949.836ZM951.688 141.233C951.688 140.5 951.83 139.846 952.112 139.271C952.395 138.697 952.8 138.253 953.329 137.938C953.862 137.624 954.48 137.467 955.182 137.467C956.18 137.467 956.993 137.772 957.622 138.383C958.256 138.993 958.609 139.823 958.682 140.871L958.695 141.377C958.695 142.512 958.379 143.423 957.745 144.111C957.112 144.795 956.262 145.137 955.195 145.137C954.129 145.137 953.277 144.795 952.639 144.111C952.005 143.428 951.688 142.498 951.688 141.322V141.233ZM953.664 141.377C953.664 142.079 953.796 142.617 954.061 142.99C954.325 143.359 954.703 143.544 955.195 143.544C955.674 143.544 956.048 143.362 956.316 142.997C956.585 142.628 956.72 142.04 956.72 141.233C956.72 140.545 956.585 140.012 956.316 139.634C956.048 139.256 955.669 139.066 955.182 139.066C954.699 139.066 954.325 139.256 954.061 139.634C953.796 140.007 953.664 140.589 953.664 141.377ZM964.068 139.456C963.799 139.42 963.562 139.401 963.357 139.401C962.61 139.401 962.12 139.654 961.888 140.16V145H959.912V137.604H961.778L961.833 138.485C962.229 137.806 962.779 137.467 963.48 137.467C963.699 137.467 963.904 137.496 964.096 137.556L964.068 139.456Z" fill="#2CB2C4"/>
<path d="M832.104 149.583H847.896C848.241 149.583 848.521 149.303 848.521 148.958V134.101C848.521 133.935 848.455 133.775 848.337 133.658L845.267 130.599C845.149 130.482 844.991 130.417 844.825 130.417H832.104C831.759 130.417 831.479 130.697 831.479 131.042V148.958C831.479 149.303 831.759 149.583 832.104 149.583ZM847.261 134.35H845.012V132.109L847.261 134.35ZM832.729 131.667H843.762V134.975C843.762 135.32 844.042 135.6 844.387 135.6H847.271V148.333H832.729V131.667Z" fill="#2CB2C4"/>
<path d="M837.292 138.542H838.75C839.095 138.542 839.375 138.262 839.375 137.917C839.375 137.572 839.095 137.292 838.75 137.292H836.667C836.322 137.292 836.042 137.572 836.042 137.917V140.208H835C834.655 140.208 834.375 140.488 834.375 140.833C834.375 141.178 834.655 141.458 835 141.458H836.042V143.75C836.042 144.095 836.322 144.375 836.667 144.375H838.75C839.095 144.375 839.375 144.095 839.375 143.75C839.375 143.405 839.095 143.125 838.75 143.125H837.292V138.542Z" fill="#2CB2C4"/>
<path d="M845.417 140.208H844.375V137.917C844.375 137.572 844.095 137.292 843.75 137.292H841.667C841.322 137.292 841.042 137.572 841.042 137.917C841.042 138.262 841.322 138.542 841.667 138.542H843.125V143.125H841.667C841.322 143.125 841.042 143.405 841.042 143.75C841.042 144.095 841.322 144.375 841.667 144.375H843.75C844.095 144.375 844.375 144.095 844.375 143.75V141.458H845.417C845.762 141.458 846.042 141.178 846.042 140.833C846.042 140.488 845.762 140.208 845.417 140.208Z" fill="#2CB2C4"/>
</svg>
